<?xml version="1.0" encoding="utf-8"?>
<svg xmlns="http://www.w3.org/2000/svg" xmlns:xlink="http://www.w3.org/1999/xlink" width="600" height="400" viewBox="0 0 2400 1600">
<defs>
  <clipPath id="clip510">
    <rect x="0" y="0" width="2400" height="1600"/>
  </clipPath>
</defs>
<path clip-path="url(#clip510)" d="M0 1600 L2400 1600 L2400 0 L0 0  Z" fill="#ffffff" fill-rule="evenodd" fill-opacity="1"/>
<defs>
  <clipPath id="clip511">
    <rect x="480" y="0" width="1681" height="1600"/>
  </clipPath>
</defs>
<path clip-path="url(#clip510)" d="M234.125 1410.9 L2352.76 1410.9 L2352.76 47.2441 L234.125 47.2441  Z" fill="#ffffff" fill-rule="evenodd" fill-opacity="1"/>
<defs>
  <clipPath id="clip512">
    <rect x="234" y="47" width="2120" height="1365"/>
  </clipPath>
</defs>
<polyline clip-path="url(#clip512)" style="stroke:#000000; stroke-linecap:round; stroke-linejoin:round; stroke-width:2; stroke-opacity:0.1; fill:none" points="776.242,1410.9 776.242,47.2441 "/>
<polyline clip-path="url(#clip512)" style="stroke:#000000; stroke-linecap:round; stroke-linejoin:round; stroke-width:2; stroke-opacity:0.1; fill:none" points="1743.88,1410.9 1743.88,47.2441 "/>
<polyline clip-path="url(#clip512)" style="stroke:#000000; stroke-linecap:round; stroke-linejoin:round; stroke-width:2; stroke-opacity:0.1; fill:none" points="776.242,1410.9 776.242,47.2441 "/>
<polyline clip-path="url(#clip512)" style="stroke:#000000; stroke-linecap:round; stroke-linejoin:round; stroke-width:2; stroke-opacity:0.1; fill:none" points="1743.88,1410.9 1743.88,47.2441 "/>
<polyline clip-path="url(#clip512)" style="stroke:#000000; stroke-linecap:round; stroke-linejoin:round; stroke-width:2; stroke-opacity:0.1; fill:none" points="234.125,1210.38 2352.76,1210.38 "/>
<polyline clip-path="url(#clip512)" style="stroke:#000000; stroke-linecap:round; stroke-linejoin:round; stroke-width:2; stroke-opacity:0.1; fill:none" points="234.125,954.907 2352.76,954.907 "/>
<polyline clip-path="url(#clip512)" style="stroke:#000000; stroke-linecap:round; stroke-linejoin:round; stroke-width:2; stroke-opacity:0.1; fill:none" points="234.125,699.436 2352.76,699.436 "/>
<polyline clip-path="url(#clip512)" style="stroke:#000000; stroke-linecap:round; stroke-linejoin:round; stroke-width:2; stroke-opacity:0.1; fill:none" points="234.125,443.965 2352.76,443.965 "/>
<polyline clip-path="url(#clip512)" style="stroke:#000000; stroke-linecap:round; stroke-linejoin:round; stroke-width:2; stroke-opacity:0.1; fill:none" points="234.125,188.495 2352.76,188.495 "/>
<polyline clip-path="url(#clip512)" style="stroke:#000000; stroke-linecap:round; stroke-linejoin:round; stroke-width:2; stroke-opacity:0.1; fill:none" points="234.125,1210.38 2352.76,1210.38 "/>
<polyline clip-path="url(#clip512)" style="stroke:#000000; stroke-linecap:round; stroke-linejoin:round; stroke-width:2; stroke-opacity:0.1; fill:none" points="234.125,954.907 2352.76,954.907 "/>
<polyline clip-path="url(#clip512)" style="stroke:#000000; stroke-linecap:round; stroke-linejoin:round; stroke-width:2; stroke-opacity:0.1; fill:none" points="234.125,699.436 2352.76,699.436 "/>
<polyline clip-path="url(#clip512)" style="stroke:#000000; stroke-linecap:round; stroke-linejoin:round; stroke-width:2; stroke-opacity:0.1; fill:none" points="234.125,443.965 2352.76,443.965 "/>
<polyline clip-path="url(#clip512)" style="stroke:#000000; stroke-linecap:round; stroke-linejoin:round; stroke-width:2; stroke-opacity:0.1; fill:none" points="234.125,188.495 2352.76,188.495 "/>
<polyline clip-path="url(#clip510)" style="stroke:#000000; stroke-linecap:round; stroke-linejoin:round; stroke-width:4; stroke-opacity:1; fill:none" points="234.125,1410.9 2352.76,1410.9 "/>
<polyline clip-path="url(#clip510)" style="stroke:#000000; stroke-linecap:round; stroke-linejoin:round; stroke-width:4; stroke-opacity:1; fill:none" points="234.125,47.2441 2352.76,47.2441 "/>
<polyline clip-path="url(#clip510)" style="stroke:#000000; stroke-linecap:round; stroke-linejoin:round; stroke-width:4; stroke-opacity:1; fill:none" points="776.242,1410.9 776.242,1392 "/>
<polyline clip-path="url(#clip510)" style="stroke:#000000; stroke-linecap:round; stroke-linejoin:round; stroke-width:4; stroke-opacity:1; fill:none" points="1743.88,1410.9 1743.88,1392 "/>
<polyline clip-path="url(#clip510)" style="stroke:#000000; stroke-linecap:round; stroke-linejoin:round; stroke-width:4; stroke-opacity:1; fill:none" points="776.242,47.2441 776.242,66.1417 "/>
<polyline clip-path="url(#clip510)" style="stroke:#000000; stroke-linecap:round; stroke-linejoin:round; stroke-width:4; stroke-opacity:1; fill:none" points="1743.88,47.2441 1743.88,66.1417 "/>
<path clip-path="url(#clip510)" d="M741.686 1485.02 L749.325 1485.02 L749.325 1458.66 L741.015 1460.32 L741.015 1456.06 L749.278 1454.4 L753.954 1454.4 L753.954 1485.02 L761.593 1485.02 L761.593 1488.96 L741.686 1488.96 L741.686 1485.02 Z" fill="#000000" fill-rule="nonzero" fill-opacity="1" /><path clip-path="url(#clip510)" d="M781.037 1457.48 Q777.426 1457.48 775.598 1461.04 Q773.792 1464.58 773.792 1471.71 Q773.792 1478.82 775.598 1482.38 Q777.426 1485.92 781.037 1485.92 Q784.672 1485.92 786.477 1482.38 Q788.306 1478.82 788.306 1471.71 Q788.306 1464.58 786.477 1461.04 Q784.672 1457.48 781.037 1457.48 M781.037 1453.77 Q786.848 1453.77 789.903 1458.38 Q792.982 1462.96 792.982 1471.71 Q792.982 1480.44 789.903 1485.04 Q786.848 1489.63 781.037 1489.63 Q775.227 1489.63 772.149 1485.04 Q769.093 1480.44 769.093 1471.71 Q769.093 1462.96 772.149 1458.38 Q775.227 1453.77 781.037 1453.77 Z" fill="#000000" fill-rule="nonzero" fill-opacity="1" /><path clip-path="url(#clip510)" d="M805.677 1446.41 Q808.404 1446.99 809.928 1448.83 Q811.47 1450.68 811.47 1453.38 Q811.47 1457.54 808.611 1459.82 Q805.752 1462.09 800.486 1462.09 Q798.718 1462.09 796.837 1461.73 Q794.975 1461.4 792.982 1460.7 L792.982 1457.03 Q794.562 1457.95 796.442 1458.42 Q798.323 1458.89 800.373 1458.89 Q803.947 1458.89 805.809 1457.48 Q807.689 1456.07 807.689 1453.38 Q807.689 1450.9 805.94 1449.51 Q804.21 1448.1 801.107 1448.1 L797.834 1448.1 L797.834 1444.98 L801.257 1444.98 Q804.06 1444.98 805.545 1443.87 Q807.031 1442.74 807.031 1440.63 Q807.031 1438.47 805.489 1437.32 Q803.966 1436.16 801.107 1436.16 Q799.546 1436.16 797.759 1436.49 Q795.972 1436.83 793.828 1437.55 L793.828 1434.16 Q795.991 1433.56 797.872 1433.26 Q799.771 1432.96 801.445 1432.96 Q805.771 1432.96 808.291 1434.93 Q810.812 1436.89 810.812 1440.24 Q810.812 1442.57 809.476 1444.19 Q808.141 1445.79 805.677 1446.41 Z" fill="#000000" fill-rule="nonzero" fill-opacity="1" /><path clip-path="url(#clip510)" d="M1708.87 1485.02 L1716.51 1485.02 L1716.51 1458.66 L1708.2 1460.32 L1708.2 1456.06 L1716.46 1454.4 L1721.14 1454.4 L1721.14 1485.02 L1728.77 1485.02 L1728.77 1488.96 L1708.87 1488.96 L1708.87 1485.02 Z" fill="#000000" fill-rule="nonzero" fill-opacity="1" /><path clip-path="url(#clip510)" d="M1748.22 1457.48 Q1744.61 1457.48 1742.78 1461.04 Q1740.97 1464.58 1740.97 1471.71 Q1740.97 1478.82 1742.78 1482.38 Q1744.61 1485.92 1748.22 1485.92 Q1751.85 1485.92 1753.66 1482.38 Q1755.49 1478.82 1755.49 1471.71 Q1755.49 1464.58 1753.66 1461.04 Q1751.85 1457.48 1748.22 1457.48 M1748.22 1453.77 Q1754.03 1453.77 1757.08 1458.38 Q1760.16 1462.96 1760.16 1471.71 Q1760.16 1480.44 1757.08 1485.04 Q1754.03 1489.63 1748.22 1489.63 Q1742.41 1489.63 1739.33 1485.04 Q1736.27 1480.44 1736.27 1471.71 Q1736.27 1462.96 1739.33 1458.38 Q1742.41 1453.77 1748.22 1453.77 Z" fill="#000000" fill-rule="nonzero" fill-opacity="1" /><path clip-path="url(#clip510)" d="M1770.19 1445.99 Q1767.63 1445.99 1766.13 1447.74 Q1764.64 1449.49 1764.64 1452.54 Q1764.64 1455.57 1766.13 1457.33 Q1767.63 1459.08 1770.19 1459.08 Q1772.75 1459.08 1774.23 1457.33 Q1775.74 1455.57 1775.74 1452.54 Q1775.74 1449.49 1774.23 1447.74 Q1772.75 1445.99 1770.19 1445.99 M1777.73 1434.09 L1777.73 1437.55 Q1776.3 1436.87 1774.83 1436.51 Q1773.39 1436.16 1771.96 1436.16 Q1768.19 1436.16 1766.2 1438.69 Q1764.23 1441.23 1763.94 1446.37 Q1765.05 1444.73 1766.73 1443.87 Q1768.4 1442.98 1770.41 1442.98 Q1774.65 1442.98 1777.09 1445.56 Q1779.55 1448.12 1779.55 1452.54 Q1779.55 1456.86 1777 1459.48 Q1774.44 1462.09 1770.19 1462.09 Q1765.32 1462.09 1762.74 1458.37 Q1760.16 1454.62 1760.16 1447.53 Q1760.16 1440.88 1763.32 1436.93 Q1766.48 1432.96 1771.81 1432.96 Q1773.24 1432.96 1774.68 1433.24 Q1776.15 1433.52 1777.73 1434.09 Z" fill="#000000" fill-rule="nonzero" fill-opacity="1" /><path clip-path="url(#clip510)" d="M1089.23 1538.54 L1095.44 1538.54 L1106.58 1568.46 L1117.72 1538.54 L1123.92 1538.54 L1110.55 1574.19 L1102.6 1574.19 L1089.23 1538.54 Z" fill="#000000" fill-rule="nonzero" fill-opacity="1" /><path clip-path="url(#clip510)" d="M1162.5 1554.9 L1162.5 1557.76 L1135.57 1557.76 Q1135.95 1563.81 1139.2 1566.99 Q1142.48 1570.14 1148.3 1570.14 Q1151.68 1570.14 1154.83 1569.32 Q1158.01 1568.49 1161.13 1566.83 L1161.13 1572.37 Q1157.98 1573.71 1154.67 1574.41 Q1151.36 1575.11 1147.95 1575.11 Q1139.42 1575.11 1134.43 1570.14 Q1129.46 1565.18 1129.46 1556.71 Q1129.46 1547.96 1134.17 1542.83 Q1138.91 1537.68 1146.93 1537.68 Q1154.13 1537.68 1158.3 1542.33 Q1162.5 1546.94 1162.5 1554.9 M1156.64 1553.18 Q1156.58 1548.37 1153.94 1545.51 Q1151.33 1542.64 1147 1542.64 Q1142.1 1542.64 1139.14 1545.41 Q1136.21 1548.18 1135.76 1553.21 L1156.64 1553.18 Z" fill="#000000" fill-rule="nonzero" fill-opacity="1" /><path clip-path="url(#clip510)" d="M1197.76 1539.91 L1197.76 1545.38 Q1195.28 1544.01 1192.77 1543.34 Q1190.28 1542.64 1187.74 1542.64 Q1182.04 1542.64 1178.89 1546.27 Q1175.74 1549.87 1175.74 1556.39 Q1175.74 1562.92 1178.89 1566.55 Q1182.04 1570.14 1187.74 1570.14 Q1190.28 1570.14 1192.77 1569.47 Q1195.28 1568.77 1197.76 1567.41 L1197.76 1572.82 Q1195.31 1573.96 1192.67 1574.54 Q1190.06 1575.11 1187.1 1575.11 Q1179.05 1575.11 1174.31 1570.05 Q1169.56 1564.99 1169.56 1556.39 Q1169.56 1547.67 1174.34 1542.68 Q1179.14 1537.68 1187.48 1537.68 Q1190.19 1537.68 1192.77 1538.25 Q1195.35 1538.79 1197.76 1539.91 Z" fill="#000000" fill-rule="nonzero" fill-opacity="1" /><path clip-path="url(#clip510)" d="M1213.74 1528.42 L1213.74 1538.54 L1225.81 1538.54 L1225.81 1543.09 L1213.74 1543.09 L1213.74 1562.44 Q1213.74 1566.8 1214.92 1568.04 Q1216.13 1569.28 1219.79 1569.28 L1225.81 1569.28 L1225.81 1574.19 L1219.79 1574.19 Q1213.01 1574.19 1210.43 1571.67 Q1207.85 1569.12 1207.85 1562.44 L1207.85 1543.09 L1203.56 1543.09 L1203.56 1538.54 L1207.85 1538.54 L1207.85 1528.42 L1213.74 1528.42 Z" fill="#000000" fill-rule="nonzero" fill-opacity="1" /><path clip-path="url(#clip510)" d="M1247.32 1542.64 Q1242.61 1542.64 1239.87 1546.34 Q1237.14 1550 1237.14 1556.39 Q1237.14 1562.79 1239.84 1566.48 Q1242.58 1570.14 1247.32 1570.14 Q1252 1570.14 1254.74 1566.45 Q1257.47 1562.76 1257.47 1556.39 Q1257.47 1550.06 1254.74 1546.37 Q1252 1542.64 1247.32 1542.64 M1247.32 1537.68 Q1254.96 1537.68 1259.32 1542.64 Q1263.68 1547.61 1263.68 1556.39 Q1263.68 1565.15 1259.32 1570.14 Q1254.96 1575.11 1247.32 1575.11 Q1239.65 1575.11 1235.29 1570.14 Q1230.96 1565.15 1230.96 1556.39 Q1230.96 1547.61 1235.29 1542.64 Q1239.65 1537.68 1247.32 1537.68 Z" fill="#000000" fill-rule="nonzero" fill-opacity="1" /><path clip-path="url(#clip510)" d="M1294.05 1544.01 Q1293.06 1543.44 1291.88 1543.18 Q1290.74 1542.9 1289.33 1542.9 Q1284.37 1542.9 1281.7 1546.14 Q1279.05 1549.36 1279.05 1555.41 L1279.05 1574.19 L1273.17 1574.19 L1273.17 1538.54 L1279.05 1538.54 L1279.05 1544.08 Q1280.9 1540.83 1283.86 1539.27 Q1286.82 1537.68 1291.05 1537.68 Q1291.66 1537.68 1292.39 1537.77 Q1293.12 1537.84 1294.01 1538 L1294.05 1544.01 Z" fill="#000000" fill-rule="nonzero" fill-opacity="1" /><path clip-path="url(#clip510)" d="M1343.63 1539.59 L1343.63 1545.13 Q1341.15 1543.85 1338.48 1543.22 Q1335.8 1542.58 1332.94 1542.58 Q1328.58 1542.58 1326.38 1543.92 Q1324.22 1545.25 1324.22 1547.93 Q1324.22 1549.96 1325.78 1551.14 Q1327.34 1552.29 1332.05 1553.34 L1334.05 1553.78 Q1340.29 1555.12 1342.9 1557.57 Q1345.54 1559.99 1345.54 1564.35 Q1345.54 1569.32 1341.6 1572.21 Q1337.68 1575.11 1330.81 1575.11 Q1327.94 1575.11 1324.82 1574.54 Q1321.74 1573.99 1318.3 1572.88 L1318.3 1566.83 Q1321.55 1568.52 1324.7 1569.38 Q1327.85 1570.21 1330.93 1570.21 Q1335.07 1570.21 1337.3 1568.81 Q1339.53 1567.37 1339.53 1564.8 Q1339.53 1562.41 1337.91 1561.14 Q1336.31 1559.86 1330.87 1558.68 L1328.83 1558.21 Q1323.39 1557.06 1320.97 1554.71 Q1318.55 1552.32 1318.55 1548.18 Q1318.55 1543.15 1322.12 1540.42 Q1325.68 1537.68 1332.24 1537.68 Q1335.49 1537.68 1338.35 1538.16 Q1341.22 1538.63 1343.63 1539.59 Z" fill="#000000" fill-rule="nonzero" fill-opacity="1" /><path clip-path="url(#clip510)" d="M1354.87 1538.54 L1360.73 1538.54 L1360.73 1574.19 L1354.87 1574.19 L1354.87 1538.54 M1354.87 1524.66 L1360.73 1524.66 L1360.73 1532.08 L1354.87 1532.08 L1354.87 1524.66 Z" fill="#000000" fill-rule="nonzero" fill-opacity="1" /><path clip-path="url(#clip510)" d="M1370.43 1538.54 L1398.25 1538.54 L1398.25 1543.88 L1376.23 1569.51 L1398.25 1569.51 L1398.25 1574.19 L1369.64 1574.19 L1369.64 1568.84 L1391.66 1543.22 L1370.43 1543.22 L1370.43 1538.54 Z" fill="#000000" fill-rule="nonzero" fill-opacity="1" /><path clip-path="url(#clip510)" d="M1437.69 1554.9 L1437.69 1557.76 L1410.76 1557.76 Q1411.14 1563.81 1414.39 1566.99 Q1417.67 1570.14 1423.49 1570.14 Q1426.87 1570.14 1430.02 1569.32 Q1433.2 1568.49 1436.32 1566.83 L1436.32 1572.37 Q1433.17 1573.71 1429.86 1574.41 Q1426.55 1575.11 1423.14 1575.11 Q1414.61 1575.11 1409.61 1570.14 Q1404.65 1565.18 1404.65 1556.71 Q1404.65 1547.96 1409.36 1542.83 Q1414.1 1537.68 1422.12 1537.68 Q1429.32 1537.68 1433.49 1542.33 Q1437.69 1546.94 1437.69 1554.9 M1431.83 1553.18 Q1431.77 1548.37 1429.13 1545.51 Q1426.52 1542.64 1422.19 1542.64 Q1417.29 1542.64 1414.33 1545.41 Q1411.4 1548.18 1410.95 1553.21 L1431.83 1553.18 Z" fill="#000000" fill-rule="nonzero" fill-opacity="1" /><path clip-path="url(#clip510)" d="M1497.65 1552.67 L1497.65 1574.19 L1491.8 1574.19 L1491.8 1552.86 Q1491.8 1547.8 1489.82 1545.29 Q1487.85 1542.77 1483.9 1542.77 Q1479.16 1542.77 1476.42 1545.79 Q1473.69 1548.82 1473.69 1554.04 L1473.69 1574.19 L1467.8 1574.19 L1467.8 1538.54 L1473.69 1538.54 L1473.69 1544.08 Q1475.79 1540.86 1478.62 1539.27 Q1481.48 1537.68 1485.21 1537.68 Q1491.35 1537.68 1494.5 1541.5 Q1497.65 1545.29 1497.65 1552.67 Z" fill="#000000" fill-rule="nonzero" fill-opacity="1" /><polyline clip-path="url(#clip510)" style="stroke:#000000; stroke-linecap:round; stroke-linejoin:round; stroke-width:4; stroke-opacity:1; fill:none" points="234.125,1410.9 234.125,47.2441 "/>
<polyline clip-path="url(#clip510)" style="stroke:#000000; stroke-linecap:round; stroke-linejoin:round; stroke-width:4; stroke-opacity:1; fill:none" points="2352.76,1410.9 2352.76,47.2441 "/>
<polyline clip-path="url(#clip510)" style="stroke:#000000; stroke-linecap:round; stroke-linejoin:round; stroke-width:4; stroke-opacity:1; fill:none" points="234.125,1210.38 253.023,1210.38 "/>
<polyline clip-path="url(#clip510)" style="stroke:#000000; stroke-linecap:round; stroke-linejoin:round; stroke-width:4; stroke-opacity:1; fill:none" points="234.125,954.907 253.023,954.907 "/>
<polyline clip-path="url(#clip510)" style="stroke:#000000; stroke-linecap:round; stroke-linejoin:round; stroke-width:4; stroke-opacity:1; fill:none" points="234.125,699.436 253.023,699.436 "/>
<polyline clip-path="url(#clip510)" style="stroke:#000000; stroke-linecap:round; stroke-linejoin:round; stroke-width:4; stroke-opacity:1; fill:none" points="234.125,443.965 253.023,443.965 "/>
<polyline clip-path="url(#clip510)" style="stroke:#000000; stroke-linecap:round; stroke-linejoin:round; stroke-width:4; stroke-opacity:1; fill:none" points="234.125,188.495 253.023,188.495 "/>
<polyline clip-path="url(#clip510)" style="stroke:#000000; stroke-linecap:round; stroke-linejoin:round; stroke-width:4; stroke-opacity:1; fill:none" points="2352.76,1210.38 2333.86,1210.38 "/>
<polyline clip-path="url(#clip510)" style="stroke:#000000; stroke-linecap:round; stroke-linejoin:round; stroke-width:4; stroke-opacity:1; fill:none" points="2352.76,954.907 2333.86,954.907 "/>
<polyline clip-path="url(#clip510)" style="stroke:#000000; stroke-linecap:round; stroke-linejoin:round; stroke-width:4; stroke-opacity:1; fill:none" points="2352.76,699.436 2333.86,699.436 "/>
<polyline clip-path="url(#clip510)" style="stroke:#000000; stroke-linecap:round; stroke-linejoin:round; stroke-width:4; stroke-opacity:1; fill:none" points="2352.76,443.965 2333.86,443.965 "/>
<polyline clip-path="url(#clip510)" style="stroke:#000000; stroke-linecap:round; stroke-linejoin:round; stroke-width:4; stroke-opacity:1; fill:none" points="2352.76,188.495 2333.86,188.495 "/>
<path clip-path="url(#clip510)" d="M146.066 1193.1 L164.422 1193.1 L164.422 1197.03 L150.348 1197.03 L150.348 1205.5 Q151.366 1205.16 152.385 1205 Q153.403 1204.81 154.422 1204.81 Q160.209 1204.81 163.589 1207.98 Q166.968 1211.15 166.968 1216.57 Q166.968 1222.15 163.496 1225.25 Q160.024 1228.33 153.704 1228.33 Q151.528 1228.33 149.26 1227.96 Q147.015 1227.59 144.607 1226.85 L144.607 1222.15 Q146.691 1223.28 148.913 1223.84 Q151.135 1224.39 153.612 1224.39 Q157.616 1224.39 159.954 1222.29 Q162.292 1220.18 162.292 1216.57 Q162.292 1212.96 159.954 1210.85 Q157.616 1208.75 153.612 1208.75 Q151.737 1208.75 149.862 1209.16 Q148.01 1209.58 146.066 1210.46 L146.066 1193.1 Z" fill="#000000" fill-rule="nonzero" fill-opacity="1" /><path clip-path="url(#clip510)" d="M186.181 1196.18 Q182.57 1196.18 180.741 1199.74 Q178.936 1203.28 178.936 1210.41 Q178.936 1217.52 180.741 1221.08 Q182.57 1224.63 186.181 1224.63 Q189.815 1224.63 191.621 1221.08 Q193.45 1217.52 193.45 1210.41 Q193.45 1203.28 191.621 1199.74 Q189.815 1196.18 186.181 1196.18 M186.181 1192.47 Q191.991 1192.47 195.047 1197.08 Q198.125 1201.66 198.125 1210.41 Q198.125 1219.14 195.047 1223.75 Q191.991 1228.33 186.181 1228.33 Q180.371 1228.33 177.292 1223.75 Q174.237 1219.14 174.237 1210.41 Q174.237 1201.66 177.292 1197.08 Q180.371 1192.47 186.181 1192.47 Z" fill="#000000" fill-rule="nonzero" fill-opacity="1" /><path clip-path="url(#clip510)" d="M116.668 968.252 L124.306 968.252 L124.306 941.886 L115.996 943.553 L115.996 939.294 L124.26 937.627 L128.936 937.627 L128.936 968.252 L136.575 968.252 L136.575 972.187 L116.668 972.187 L116.668 968.252 Z" fill="#000000" fill-rule="nonzero" fill-opacity="1" /><path clip-path="url(#clip510)" d="M156.019 940.706 Q152.408 940.706 150.579 944.27 Q148.774 947.812 148.774 954.942 Q148.774 962.048 150.579 965.613 Q152.408 969.154 156.019 969.154 Q159.653 969.154 161.459 965.613 Q163.288 962.048 163.288 954.942 Q163.288 947.812 161.459 944.27 Q159.653 940.706 156.019 940.706 M156.019 937.002 Q161.829 937.002 164.885 941.608 Q167.964 946.192 167.964 954.942 Q167.964 963.668 164.885 968.275 Q161.829 972.858 156.019 972.858 Q150.209 972.858 147.13 968.275 Q144.075 963.668 144.075 954.942 Q144.075 946.192 147.13 941.608 Q150.209 937.002 156.019 937.002 Z" fill="#000000" fill-rule="nonzero" fill-opacity="1" /><path clip-path="url(#clip510)" d="M186.181 940.706 Q182.57 940.706 180.741 944.27 Q178.936 947.812 178.936 954.942 Q178.936 962.048 180.741 965.613 Q182.57 969.154 186.181 969.154 Q189.815 969.154 191.621 965.613 Q193.45 962.048 193.45 954.942 Q193.45 947.812 191.621 944.27 Q189.815 940.706 186.181 940.706 M186.181 937.002 Q191.991 937.002 195.047 941.608 Q198.125 946.192 198.125 954.942 Q198.125 963.668 195.047 968.275 Q191.991 972.858 186.181 972.858 Q180.371 972.858 177.292 968.275 Q174.237 963.668 174.237 954.942 Q174.237 946.192 177.292 941.608 Q180.371 937.002 186.181 937.002 Z" fill="#000000" fill-rule="nonzero" fill-opacity="1" /><path clip-path="url(#clip510)" d="M116.668 712.781 L124.306 712.781 L124.306 686.415 L115.996 688.082 L115.996 683.823 L124.26 682.156 L128.936 682.156 L128.936 712.781 L136.575 712.781 L136.575 716.716 L116.668 716.716 L116.668 712.781 Z" fill="#000000" fill-rule="nonzero" fill-opacity="1" /><path clip-path="url(#clip510)" d="M146.066 682.156 L164.422 682.156 L164.422 686.091 L150.348 686.091 L150.348 694.563 Q151.366 694.216 152.385 694.054 Q153.403 693.869 154.422 693.869 Q160.209 693.869 163.589 697.04 Q166.968 700.212 166.968 705.628 Q166.968 711.207 163.496 714.309 Q160.024 717.387 153.704 717.387 Q151.528 717.387 149.26 717.017 Q147.015 716.647 144.607 715.906 L144.607 711.207 Q146.691 712.341 148.913 712.897 Q151.135 713.452 153.612 713.452 Q157.616 713.452 159.954 711.346 Q162.292 709.239 162.292 705.628 Q162.292 702.017 159.954 699.911 Q157.616 697.804 153.612 697.804 Q151.737 697.804 149.862 698.221 Q148.01 698.638 146.066 699.517 L146.066 682.156 Z" fill="#000000" fill-rule="nonzero" fill-opacity="1" /><path clip-path="url(#clip510)" d="M186.181 685.235 Q182.57 685.235 180.741 688.8 Q178.936 692.341 178.936 699.471 Q178.936 706.577 180.741 710.142 Q182.57 713.684 186.181 713.684 Q189.815 713.684 191.621 710.142 Q193.45 706.577 193.45 699.471 Q193.45 692.341 191.621 688.8 Q189.815 685.235 186.181 685.235 M186.181 681.531 Q191.991 681.531 195.047 686.138 Q198.125 690.721 198.125 699.471 Q198.125 708.198 195.047 712.804 Q191.991 717.387 186.181 717.387 Q180.371 717.387 177.292 712.804 Q174.237 708.198 174.237 699.471 Q174.237 690.721 177.292 686.138 Q180.371 681.531 186.181 681.531 Z" fill="#000000" fill-rule="nonzero" fill-opacity="1" /><path clip-path="url(#clip510)" d="M119.885 457.31 L136.204 457.31 L136.204 461.245 L114.26 461.245 L114.26 457.31 Q116.922 454.556 121.505 449.926 Q126.112 445.273 127.292 443.931 Q129.538 441.408 130.417 439.671 Q131.32 437.912 131.32 436.222 Q131.32 433.468 129.376 431.732 Q127.455 429.996 124.353 429.996 Q122.154 429.996 119.7 430.759 Q117.269 431.523 114.492 433.074 L114.492 428.352 Q117.316 427.218 119.769 426.639 Q122.223 426.06 124.26 426.06 Q129.63 426.06 132.825 428.746 Q136.019 431.431 136.019 435.921 Q136.019 438.051 135.209 439.972 Q134.422 441.87 132.316 444.463 Q131.737 445.134 128.635 448.352 Q125.533 451.546 119.885 457.31 Z" fill="#000000" fill-rule="nonzero" fill-opacity="1" /><path clip-path="url(#clip510)" d="M156.019 429.764 Q152.408 429.764 150.579 433.329 Q148.774 436.871 148.774 444 Q148.774 451.107 150.579 454.671 Q152.408 458.213 156.019 458.213 Q159.653 458.213 161.459 454.671 Q163.288 451.107 163.288 444 Q163.288 436.871 161.459 433.329 Q159.653 429.764 156.019 429.764 M156.019 426.06 Q161.829 426.06 164.885 430.667 Q167.964 435.25 167.964 444 Q167.964 452.727 164.885 457.333 Q161.829 461.917 156.019 461.917 Q150.209 461.917 147.13 457.333 Q144.075 452.727 144.075 444 Q144.075 435.25 147.13 430.667 Q150.209 426.06 156.019 426.06 Z" fill="#000000" fill-rule="nonzero" fill-opacity="1" /><path clip-path="url(#clip510)" d="M186.181 429.764 Q182.57 429.764 180.741 433.329 Q178.936 436.871 178.936 444 Q178.936 451.107 180.741 454.671 Q182.57 458.213 186.181 458.213 Q189.815 458.213 191.621 454.671 Q193.45 451.107 193.45 444 Q193.45 436.871 191.621 433.329 Q189.815 429.764 186.181 429.764 M186.181 426.06 Q191.991 426.06 195.047 430.667 Q198.125 435.25 198.125 444 Q198.125 452.727 195.047 457.333 Q191.991 461.917 186.181 461.917 Q180.371 461.917 177.292 457.333 Q174.237 452.727 174.237 444 Q174.237 435.25 177.292 430.667 Q180.371 426.06 186.181 426.06 Z" fill="#000000" fill-rule="nonzero" fill-opacity="1" /><path clip-path="url(#clip510)" d="M119.885 201.839 L136.204 201.839 L136.204 205.775 L114.26 205.775 L114.26 201.839 Q116.922 199.085 121.505 194.455 Q126.112 189.802 127.292 188.46 Q129.538 185.937 130.417 184.201 Q131.32 182.441 131.32 180.752 Q131.32 177.997 129.376 176.261 Q127.455 174.525 124.353 174.525 Q122.154 174.525 119.7 175.289 Q117.269 176.053 114.492 177.603 L114.492 172.881 Q117.316 171.747 119.769 171.168 Q122.223 170.59 124.26 170.59 Q129.63 170.59 132.825 173.275 Q136.019 175.96 136.019 180.451 Q136.019 182.58 135.209 184.502 Q134.422 186.4 132.316 188.992 Q131.737 189.664 128.635 192.881 Q125.533 196.076 119.885 201.839 Z" fill="#000000" fill-rule="nonzero" fill-opacity="1" /><path clip-path="url(#clip510)" d="M146.066 171.215 L164.422 171.215 L164.422 175.15 L150.348 175.15 L150.348 183.622 Q151.366 183.275 152.385 183.113 Q153.403 182.928 154.422 182.928 Q160.209 182.928 163.589 186.099 Q166.968 189.27 166.968 194.687 Q166.968 200.265 163.496 203.367 Q160.024 206.446 153.704 206.446 Q151.528 206.446 149.26 206.076 Q147.015 205.705 144.607 204.964 L144.607 200.265 Q146.691 201.4 148.913 201.955 Q151.135 202.511 153.612 202.511 Q157.616 202.511 159.954 200.404 Q162.292 198.298 162.292 194.687 Q162.292 191.076 159.954 188.969 Q157.616 186.863 153.612 186.863 Q151.737 186.863 149.862 187.279 Q148.01 187.696 146.066 188.576 L146.066 171.215 Z" fill="#000000" fill-rule="nonzero" fill-opacity="1" /><path clip-path="url(#clip510)" d="M186.181 174.293 Q182.57 174.293 180.741 177.858 Q178.936 181.4 178.936 188.529 Q178.936 195.636 180.741 199.201 Q182.57 202.742 186.181 202.742 Q189.815 202.742 191.621 199.201 Q193.45 195.636 193.45 188.529 Q193.45 181.4 191.621 177.858 Q189.815 174.293 186.181 174.293 M186.181 170.59 Q191.991 170.59 195.047 175.196 Q198.125 179.779 198.125 188.529 Q198.125 197.256 195.047 201.863 Q191.991 206.446 186.181 206.446 Q180.371 206.446 177.292 201.863 Q174.237 197.256 174.237 188.529 Q174.237 179.779 177.292 175.196 Q180.371 170.59 186.181 170.59 Z" fill="#000000" fill-rule="nonzero" fill-opacity="1" /><path clip-path="url(#clip510)" d="M46.212 980.707 Q39.7508 980.707 36.0905 983.38 Q32.3984 986.022 32.3984 990.669 Q32.3984 995.316 36.0905 997.99 Q39.7508 1000.63 46.212 1000.63 Q52.6732 1000.63 56.3653 997.99 Q60.0256 995.316 60.0256 990.669 Q60.0256 986.022 56.3653 983.38 Q52.6732 980.707 46.212 980.707 M33.7671 1000.63 Q30.5842 998.785 29.0564 995.984 Q27.4968 993.152 27.4968 989.237 Q27.4968 982.744 32.6531 978.702 Q37.8093 974.628 46.212 974.628 Q54.6147 974.628 59.771 978.702 Q64.9272 982.744 64.9272 989.237 Q64.9272 993.152 63.3994 995.984 Q61.8398 998.785 58.657 1000.63 L64.0042 1000.63 L64.0042 1006.52 L14.479 1006.52 L14.479 1000.63 L33.7671 1000.63 Z" fill="#000000" fill-rule="nonzero" fill-opacity="1" /><path clip-path="url(#clip510)" d="M46.0847 948.719 Q46.0847 955.817 47.7079 958.554 Q49.3312 961.291 53.2461 961.291 Q56.3653 961.291 58.2114 959.254 Q60.0256 957.185 60.0256 953.652 Q60.0256 948.783 56.5881 945.855 Q53.1188 942.894 47.3897 942.894 L46.0847 942.894 L46.0847 948.719 M43.6657 937.038 L64.0042 937.038 L64.0042 942.894 L58.5933 942.894 Q61.8398 944.9 63.3994 947.892 Q64.9272 950.883 64.9272 955.212 Q64.9272 960.687 61.8716 963.933 Q58.7843 967.148 53.6281 967.148 Q47.6125 967.148 44.5569 963.137 Q41.5014 959.095 41.5014 951.106 L41.5014 942.894 L40.9285 942.894 Q36.8862 942.894 34.6901 945.568 Q32.4621 948.21 32.4621 953.016 Q32.4621 956.071 33.1941 958.968 Q33.9262 961.864 35.3903 964.538 L29.9795 964.538 Q28.7381 961.323 28.1334 958.299 Q27.4968 955.276 27.4968 952.411 Q27.4968 944.677 31.5072 940.857 Q35.5176 937.038 43.6657 937.038 Z" fill="#000000" fill-rule="nonzero" fill-opacity="1" /><path clip-path="url(#clip510)" d="M42.4881 895.343 L64.0042 895.343 L64.0042 901.199 L42.679 901.199 Q37.6183 901.199 35.1038 903.172 Q32.5894 905.146 32.5894 909.093 Q32.5894 913.835 35.6131 916.572 Q38.6368 919.31 43.8567 919.31 L64.0042 919.31 L64.0042 925.198 L28.3562 925.198 L28.3562 919.31 L33.8944 919.31 Q30.6797 917.209 29.0883 914.376 Q27.4968 911.512 27.4968 907.788 Q27.4968 901.645 31.3163 898.494 Q35.1038 895.343 42.4881 895.343 Z" fill="#000000" fill-rule="nonzero" fill-opacity="1" /><path clip-path="url(#clip510)" d="M33.7671 860.204 L14.479 860.204 L14.479 854.347 L64.0042 854.347 L64.0042 860.204 L58.657 860.204 Q61.8398 862.05 63.3994 864.883 Q64.9272 867.684 64.9272 871.63 Q64.9272 878.092 59.771 882.166 Q54.6147 886.208 46.212 886.208 Q37.8093 886.208 32.6531 882.166 Q27.4968 878.092 27.4968 871.63 Q27.4968 867.684 29.0564 864.883 Q30.5842 862.05 33.7671 860.204 M46.212 880.16 Q52.6732 880.16 56.3653 877.519 Q60.0256 874.845 60.0256 870.198 Q60.0256 865.551 56.3653 862.878 Q52.6732 860.204 46.212 860.204 Q39.7508 860.204 36.0905 862.878 Q32.3984 865.551 32.3984 870.198 Q32.3984 874.845 36.0905 877.519 Q39.7508 880.16 46.212 880.16 Z" fill="#000000" fill-rule="nonzero" fill-opacity="1" /><path clip-path="url(#clip510)" d="M28.3562 845.69 L28.3562 839.834 L56.1743 832.513 L28.3562 825.224 L28.3562 818.318 L56.1743 810.997 L28.3562 803.708 L28.3562 797.852 L64.0042 807.178 L64.0042 814.084 L34.7856 821.755 L64.0042 829.458 L64.0042 836.364 L28.3562 845.69 Z" fill="#000000" fill-rule="nonzero" fill-opacity="1" /><path clip-path="url(#clip510)" d="M28.3562 788.972 L28.3562 783.115 L64.0042 783.115 L64.0042 788.972 L28.3562 788.972 M14.479 788.972 L14.479 783.115 L21.895 783.115 L21.895 788.972 L14.479 788.972 Z" fill="#000000" fill-rule="nonzero" fill-opacity="1" /><path clip-path="url(#clip510)" d="M33.7671 747.404 L14.479 747.404 L14.479 741.547 L64.0042 741.547 L64.0042 747.404 L58.657 747.404 Q61.8398 749.25 63.3994 752.082 Q64.9272 754.883 64.9272 758.83 Q64.9272 765.291 59.771 769.365 Q54.6147 773.408 46.212 773.408 Q37.8093 773.408 32.6531 769.365 Q27.4968 765.291 27.4968 758.83 Q27.4968 754.883 29.0564 752.082 Q30.5842 749.25 33.7671 747.404 M46.212 767.36 Q52.6732 767.36 56.3653 764.718 Q60.0256 762.045 60.0256 757.398 Q60.0256 752.751 56.3653 750.077 Q52.6732 747.404 46.212 747.404 Q39.7508 747.404 36.0905 750.077 Q32.3984 752.751 32.3984 757.398 Q32.3984 762.045 36.0905 764.718 Q39.7508 767.36 46.212 767.36 Z" fill="#000000" fill-rule="nonzero" fill-opacity="1" /><path clip-path="url(#clip510)" d="M18.2347 723.691 L28.3562 723.691 L28.3562 711.628 L32.9077 711.628 L32.9077 723.691 L52.2594 723.691 Q56.6199 723.691 57.8613 722.514 Q59.1026 721.304 59.1026 717.644 L59.1026 711.628 L64.0042 711.628 L64.0042 717.644 Q64.0042 724.423 61.4897 727.002 Q58.9434 729.58 52.2594 729.58 L32.9077 729.58 L32.9077 733.876 L28.3562 733.876 L28.3562 729.58 L18.2347 729.58 L18.2347 723.691 Z" fill="#000000" fill-rule="nonzero" fill-opacity="1" /><path clip-path="url(#clip510)" d="M42.4881 674.293 L64.0042 674.293 L64.0042 680.15 L42.679 680.15 Q37.6183 680.15 35.1038 682.123 Q32.5894 684.097 32.5894 688.043 Q32.5894 692.786 35.6131 695.523 Q38.6368 698.26 43.8567 698.26 L64.0042 698.26 L64.0042 704.149 L14.479 704.149 L14.479 698.26 L33.8944 698.26 Q30.6797 696.16 29.0883 693.327 Q27.4968 690.462 27.4968 686.738 Q27.4968 680.596 31.3163 677.444 Q35.1038 674.293 42.4881 674.293 Z" fill="#000000" fill-rule="nonzero" fill-opacity="1" /><path clip-path="url(#clip510)" d="M14.479 642.433 L14.479 628.938 L19.0304 628.938 L19.0304 636.577 L68.0464 636.577 L68.0464 628.938 L72.5979 628.938 L72.5979 642.433 L14.479 642.433 Z" fill="#000000" fill-rule="nonzero" fill-opacity="1" /><path clip-path="url(#clip510)" d="M57.2247 583.805 L44.4614 583.805 L44.4614 594.308 L39.1779 594.308 L39.1779 577.439 L59.58 577.439 Q62.2218 581.163 63.5904 585.651 Q64.9272 590.139 64.9272 595.231 Q64.9272 606.371 58.4342 612.673 Q51.9093 618.944 40.2919 618.944 Q28.6427 618.944 22.1496 612.673 Q15.6248 606.371 15.6248 595.231 Q15.6248 590.584 16.7706 586.415 Q17.9164 582.214 20.1444 578.681 L26.9876 578.681 Q23.9639 582.245 22.4361 586.256 Q20.9083 590.266 20.9083 594.69 Q20.9083 603.411 25.7781 607.804 Q30.6479 612.164 40.2919 612.164 Q49.9041 612.164 54.7739 607.804 Q59.6436 603.411 59.6436 594.69 Q59.6436 591.285 59.0707 588.611 Q58.466 585.937 57.2247 583.805 Z" fill="#000000" fill-rule="nonzero" fill-opacity="1" /><path clip-path="url(#clip510)" d="M41.3104 559.265 L58.7206 559.265 L58.7206 548.953 Q58.7206 543.765 56.5881 541.282 Q54.4238 538.768 49.9996 538.768 Q45.5436 538.768 43.4429 541.282 Q41.3104 543.765 41.3104 548.953 L41.3104 559.265 M21.7677 559.265 L36.0905 559.265 L36.0905 549.748 Q36.0905 545.038 34.34 542.746 Q32.5576 540.423 28.9291 540.423 Q25.3325 540.423 23.5501 542.746 Q21.7677 545.038 21.7677 549.748 L21.7677 559.265 M16.4842 565.695 L16.4842 549.271 Q16.4842 541.919 19.5397 537.94 Q22.5952 533.961 28.2289 533.961 Q32.5894 533.961 35.1675 535.998 Q37.7456 538.036 38.3822 541.982 Q39.4007 537.24 42.6472 534.63 Q45.8619 531.988 50.6998 531.988 Q57.0655 531.988 60.5348 536.317 Q64.0042 540.645 64.0042 548.634 L64.0042 565.695 L16.4842 565.695 Z" fill="#000000" fill-rule="nonzero" fill-opacity="1" /><path clip-path="url(#clip510)" d="M16.4842 510.822 L16.4842 505.411 L70.0516 521.962 L70.0516 527.373 L16.4842 510.822 Z" fill="#000000" fill-rule="nonzero" fill-opacity="1" /><path clip-path="url(#clip510)" d="M29.4065 476.543 L34.9447 476.543 Q33.6716 479.025 33.035 481.699 Q32.3984 484.373 32.3984 487.237 Q32.3984 491.598 33.7352 493.794 Q35.072 495.958 37.7456 495.958 Q39.7826 495.958 40.9603 494.399 Q42.1061 492.839 43.1565 488.128 L43.6021 486.123 Q44.9389 479.885 47.3897 477.275 Q49.8086 474.633 54.1691 474.633 Q59.1344 474.633 62.0308 478.58 Q64.9272 482.495 64.9272 489.37 Q64.9272 492.234 64.3543 495.353 Q63.8132 498.441 62.6992 501.878 L56.6518 501.878 Q58.3387 498.632 59.198 495.481 Q60.0256 492.33 60.0256 489.242 Q60.0256 485.105 58.6251 482.877 Q57.1929 480.649 54.6147 480.649 Q52.2276 480.649 50.9545 482.272 Q49.6813 483.863 48.5037 489.306 L48.0262 491.343 Q46.8804 496.786 44.5251 499.205 Q42.138 501.624 38.0002 501.624 Q32.9713 501.624 30.2341 498.059 Q27.4968 494.494 27.4968 487.937 Q27.4968 484.691 27.9743 481.826 Q28.4517 478.962 29.4065 476.543 Z" fill="#000000" fill-rule="nonzero" fill-opacity="1" /><path clip-path="url(#clip510)" d="M14.479 451.621 L72.5979 451.621 L72.5979 465.116 L68.0464 465.116 L68.0464 457.509 L19.0304 457.509 L19.0304 465.116 L14.479 465.116 L14.479 451.621 Z" fill="#000000" fill-rule="nonzero" fill-opacity="1" /><polyline clip-path="url(#clip512)" style="stroke:#009af9; stroke-linecap:round; stroke-linejoin:round; stroke-width:4; stroke-opacity:1; fill:none" points="294.087,423.28 391.182,243.762 488.278,172.69 519.536,363.66 585.373,446.994 629.982,85.838 682.469,99.1819 733.304,113.448 783.875,115.08 836.362,92.866 893.159,765.88 936.345,812.02 982.248,785.648 1026.11,779.017 1071.94,944.892 1117.04,881.749 1161.79,772.806 1206.46,769.575 1251.25,785.209 1296.3,790.209 1353.1,1071.63 1403.53,1221.22 1453.94,1224.22 1504.44,1224.38 1554.95,1224.27 1605.44,1224.05 1655.9,1224.32 1706.36,1224.29 1756.84,1266.28 1807.32,1321.43 1864.11,1360.72 1925.35,1365.52 1986.59,1368.6 2047.83,1369.29 2109.07,1369.83 2170.31,1370.68 2231.55,1369.65 2292.79,1372.3 "/>
<circle clip-path="url(#clip512)" cx="294.087" cy="423.28" r="7.2" fill="#009af9" fill-rule="evenodd" fill-opacity="1" stroke="#000000" stroke-opacity="1" stroke-width="3.2"/>
<circle clip-path="url(#clip512)" cx="391.182" cy="243.762" r="7.2" fill="#009af9" fill-rule="evenodd" fill-opacity="1" stroke="#000000" stroke-opacity="1" stroke-width="3.2"/>
<circle clip-path="url(#clip512)" cx="488.278" cy="172.69" r="7.2" fill="#009af9" fill-rule="evenodd" fill-opacity="1" stroke="#000000" stroke-opacity="1" stroke-width="3.2"/>
<circle clip-path="url(#clip512)" cx="519.536" cy="363.66" r="7.2" fill="#009af9" fill-rule="evenodd" fill-opacity="1" stroke="#000000" stroke-opacity="1" stroke-width="3.2"/>
<circle clip-path="url(#clip512)" cx="585.373" cy="446.994" r="7.2" fill="#009af9" fill-rule="evenodd" fill-opacity="1" stroke="#000000" stroke-opacity="1" stroke-width="3.2"/>
<circle clip-path="url(#clip512)" cx="629.982" cy="85.838" r="7.2" fill="#009af9" fill-rule="evenodd" fill-opacity="1" stroke="#000000" stroke-opacity="1" stroke-width="3.2"/>
<circle clip-path="url(#clip512)" cx="682.469" cy="99.1819" r="7.2" fill="#009af9" fill-rule="evenodd" fill-opacity="1" stroke="#000000" stroke-opacity="1" stroke-width="3.2"/>
<circle clip-path="url(#clip512)" cx="733.304" cy="113.448" r="7.2" fill="#009af9" fill-rule="evenodd" fill-opacity="1" stroke="#000000" stroke-opacity="1" stroke-width="3.2"/>
<circle clip-path="url(#clip512)" cx="783.875" cy="115.08" r="7.2" fill="#009af9" fill-rule="evenodd" fill-opacity="1" stroke="#000000" stroke-opacity="1" stroke-width="3.2"/>
<circle clip-path="url(#clip512)" cx="836.362" cy="92.866" r="7.2" fill="#009af9" fill-rule="evenodd" fill-opacity="1" stroke="#000000" stroke-opacity="1" stroke-width="3.2"/>
<circle clip-path="url(#clip512)" cx="893.159" cy="765.88" r="7.2" fill="#009af9" fill-rule="evenodd" fill-opacity="1" stroke="#000000" stroke-opacity="1" stroke-width="3.2"/>
<circle clip-path="url(#clip512)" cx="936.345" cy="812.02" r="7.2" fill="#009af9" fill-rule="evenodd" fill-opacity="1" stroke="#000000" stroke-opacity="1" stroke-width="3.2"/>
<circle clip-path="url(#clip512)" cx="982.248" cy="785.648" r="7.2" fill="#009af9" fill-rule="evenodd" fill-opacity="1" stroke="#000000" stroke-opacity="1" stroke-width="3.2"/>
<circle clip-path="url(#clip512)" cx="1026.11" cy="779.017" r="7.2" fill="#009af9" fill-rule="evenodd" fill-opacity="1" stroke="#000000" stroke-opacity="1" stroke-width="3.2"/>
<circle clip-path="url(#clip512)" cx="1071.94" cy="944.892" r="7.2" fill="#009af9" fill-rule="evenodd" fill-opacity="1" stroke="#000000" stroke-opacity="1" stroke-width="3.2"/>
<circle clip-path="url(#clip512)" cx="1117.04" cy="881.749" r="7.2" fill="#009af9" fill-rule="evenodd" fill-opacity="1" stroke="#000000" stroke-opacity="1" stroke-width="3.2"/>
<circle clip-path="url(#clip512)" cx="1161.79" cy="772.806" r="7.2" fill="#009af9" fill-rule="evenodd" fill-opacity="1" stroke="#000000" stroke-opacity="1" stroke-width="3.2"/>
<circle clip-path="url(#clip512)" cx="1206.46" cy="769.575" r="7.2" fill="#009af9" fill-rule="evenodd" fill-opacity="1" stroke="#000000" stroke-opacity="1" stroke-width="3.2"/>
<circle clip-path="url(#clip512)" cx="1251.25" cy="785.209" r="7.2" fill="#009af9" fill-rule="evenodd" fill-opacity="1" stroke="#000000" stroke-opacity="1" stroke-width="3.2"/>
<circle clip-path="url(#clip512)" cx="1296.3" cy="790.209" r="7.2" fill="#009af9" fill-rule="evenodd" fill-opacity="1" stroke="#000000" stroke-opacity="1" stroke-width="3.2"/>
<circle clip-path="url(#clip512)" cx="1353.1" cy="1071.63" r="7.2" fill="#009af9" fill-rule="evenodd" fill-opacity="1" stroke="#000000" stroke-opacity="1" stroke-width="3.2"/>
<circle clip-path="url(#clip512)" cx="1403.53" cy="1221.22" r="7.2" fill="#009af9" fill-rule="evenodd" fill-opacity="1" stroke="#000000" stroke-opacity="1" stroke-width="3.2"/>
<circle clip-path="url(#clip512)" cx="1453.94" cy="1224.22" r="7.2" fill="#009af9" fill-rule="evenodd" fill-opacity="1" stroke="#000000" stroke-opacity="1" stroke-width="3.2"/>
<circle clip-path="url(#clip512)" cx="1504.44" cy="1224.38" r="7.2" fill="#009af9" fill-rule="evenodd" fill-opacity="1" stroke="#000000" stroke-opacity="1" stroke-width="3.2"/>
<circle clip-path="url(#clip512)" cx="1554.95" cy="1224.27" r="7.2" fill="#009af9" fill-rule="evenodd" fill-opacity="1" stroke="#000000" stroke-opacity="1" stroke-width="3.2"/>
<circle clip-path="url(#clip512)" cx="1605.44" cy="1224.05" r="7.2" fill="#009af9" fill-rule="evenodd" fill-opacity="1" stroke="#000000" stroke-opacity="1" stroke-width="3.2"/>
<circle clip-path="url(#clip512)" cx="1655.9" cy="1224.32" r="7.2" fill="#009af9" fill-rule="evenodd" fill-opacity="1" stroke="#000000" stroke-opacity="1" stroke-width="3.2"/>
<circle clip-path="url(#clip512)" cx="1706.36" cy="1224.29" r="7.2" fill="#009af9" fill-rule="evenodd" fill-opacity="1" stroke="#000000" stroke-opacity="1" stroke-width="3.2"/>
<circle clip-path="url(#clip512)" cx="1756.84" cy="1266.28" r="7.2" fill="#009af9" fill-rule="evenodd" fill-opacity="1" stroke="#000000" stroke-opacity="1" stroke-width="3.2"/>
<circle clip-path="url(#clip512)" cx="1807.32" cy="1321.43" r="7.2" fill="#009af9" fill-rule="evenodd" fill-opacity="1" stroke="#000000" stroke-opacity="1" stroke-width="3.2"/>
<circle clip-path="url(#clip512)" cx="1864.11" cy="1360.72" r="7.2" fill="#009af9" fill-rule="evenodd" fill-opacity="1" stroke="#000000" stroke-opacity="1" stroke-width="3.2"/>
<circle clip-path="url(#clip512)" cx="1925.35" cy="1365.52" r="7.2" fill="#009af9" fill-rule="evenodd" fill-opacity="1" stroke="#000000" stroke-opacity="1" stroke-width="3.2"/>
<circle clip-path="url(#clip512)" cx="1986.59" cy="1368.6" r="7.2" fill="#009af9" fill-rule="evenodd" fill-opacity="1" stroke="#000000" stroke-opacity="1" stroke-width="3.2"/>
<circle clip-path="url(#clip512)" cx="2047.83" cy="1369.29" r="7.2" fill="#009af9" fill-rule="evenodd" fill-opacity="1" stroke="#000000" stroke-opacity="1" stroke-width="3.2"/>
<circle clip-path="url(#clip512)" cx="2109.07" cy="1369.83" r="7.2" fill="#009af9" fill-rule="evenodd" fill-opacity="1" stroke="#000000" stroke-opacity="1" stroke-width="3.2"/>
<circle clip-path="url(#clip512)" cx="2170.31" cy="1370.68" r="7.2" fill="#009af9" fill-rule="evenodd" fill-opacity="1" stroke="#000000" stroke-opacity="1" stroke-width="3.2"/>
<circle clip-path="url(#clip512)" cx="2231.55" cy="1369.65" r="7.2" fill="#009af9" fill-rule="evenodd" fill-opacity="1" stroke="#000000" stroke-opacity="1" stroke-width="3.2"/>
<circle clip-path="url(#clip512)" cx="2292.79" cy="1372.3" r="7.2" fill="#009af9" fill-rule="evenodd" fill-opacity="1" stroke="#000000" stroke-opacity="1" stroke-width="3.2"/>
<polyline clip-path="url(#clip512)" style="stroke:#ffa500; stroke-linecap:round; stroke-linejoin:round; stroke-width:8; stroke-opacity:1; fill:none" points="836.362,2774.55 836.362,-1316.41 "/>
<polyline clip-path="url(#clip512)" style="stroke:#ff0000; stroke-linecap:round; stroke-linejoin:round; stroke-width:8; stroke-opacity:1; fill:none" points="1296.3,2774.55 1296.3,-1316.41 "/>
<polyline clip-path="url(#clip512)" style="stroke:#800080; stroke-linecap:round; stroke-linejoin:round; stroke-width:8; stroke-opacity:1; fill:none" points="1807.32,2774.55 1807.32,-1316.41 "/>
<path clip-path="url(#clip510)" d="M1737.89 611.099 L2282.13 611.099 L2282.13 92.6992 L1737.89 92.6992  Z" fill="#ffffff" fill-rule="evenodd" fill-opacity="1"/>
<polyline clip-path="url(#clip510)" style="stroke:#000000; stroke-linecap:round; stroke-linejoin:round; stroke-width:4; stroke-opacity:1; fill:none" points="1737.89,611.099 2282.13,611.099 2282.13,92.6992 1737.89,92.6992 1737.89,611.099 "/>
<polyline clip-path="url(#clip510)" style="stroke:#009af9; stroke-linecap:round; stroke-linejoin:round; stroke-width:4; stroke-opacity:1; fill:none" points="1761.43,196.379 1902.67,196.379 "/>
<circle clip-path="url(#clip510)" cx="1832.05" cy="196.379" r="9.80847" fill="#009af9" fill-rule="evenodd" fill-opacity="1" stroke="#000000" stroke-opacity="1" stroke-width="8.192"/>
<path clip-path="url(#clip510)" d="M1944.64 188.497 L1944.64 192.525 Q1942.83 191.599 1940.89 191.136 Q1938.94 190.673 1936.86 190.673 Q1933.69 190.673 1932.09 191.645 Q1930.52 192.618 1930.52 194.562 Q1930.52 196.044 1931.65 196.9 Q1932.79 197.733 1936.21 198.497 L1937.67 198.821 Q1942.21 199.794 1944.11 201.576 Q1946.03 203.335 1946.03 206.506 Q1946.03 210.118 1943.16 212.224 Q1940.31 214.33 1935.31 214.33 Q1933.23 214.33 1930.96 213.914 Q1928.71 213.52 1926.21 212.71 L1926.21 208.312 Q1928.57 209.539 1930.86 210.164 Q1933.16 210.766 1935.4 210.766 Q1938.41 210.766 1940.03 209.747 Q1941.65 208.706 1941.65 206.831 Q1941.65 205.094 1940.47 204.168 Q1939.31 203.243 1935.36 202.386 L1933.87 202.039 Q1929.92 201.206 1928.16 199.493 Q1926.4 197.756 1926.4 194.747 Q1926.4 191.09 1928.99 189.099 Q1931.58 187.108 1936.35 187.108 Q1938.71 187.108 1940.8 187.456 Q1942.88 187.803 1944.64 188.497 Z" fill="#000000" fill-rule="nonzero" fill-opacity="1" /><path clip-path="url(#clip510)" d="M1969.87 191.669 L1969.87 177.641 L1974.13 177.641 L1974.13 213.659 L1969.87 213.659 L1969.87 209.77 Q1968.53 212.085 1966.47 213.219 Q1964.43 214.33 1961.56 214.33 Q1956.86 214.33 1953.9 210.58 Q1950.96 206.831 1950.96 200.719 Q1950.96 194.608 1953.9 190.858 Q1956.86 187.108 1961.56 187.108 Q1964.43 187.108 1966.47 188.243 Q1968.53 189.354 1969.87 191.669 M1955.36 200.719 Q1955.36 205.418 1957.28 208.104 Q1959.22 210.766 1962.6 210.766 Q1965.98 210.766 1967.92 208.104 Q1969.87 205.418 1969.87 200.719 Q1969.87 196.02 1967.92 193.358 Q1965.98 190.673 1962.6 190.673 Q1959.22 190.673 1957.28 193.358 Q1955.36 196.02 1955.36 200.719 Z" fill="#000000" fill-rule="nonzero" fill-opacity="1" /><path clip-path="url(#clip510)" d="M1994.68 200.627 Q1989.52 200.627 1987.53 201.807 Q1985.54 202.988 1985.54 205.835 Q1985.54 208.104 1987.02 209.446 Q1988.53 210.766 1991.1 210.766 Q1994.64 210.766 1996.77 208.266 Q1998.92 205.743 1998.92 201.576 L1998.92 200.627 L1994.68 200.627 M2003.18 198.868 L2003.18 213.659 L1998.92 213.659 L1998.92 209.724 Q1997.46 212.085 1995.29 213.219 Q1993.11 214.33 1989.96 214.33 Q1985.98 214.33 1983.62 212.108 Q1981.28 209.863 1981.28 206.113 Q1981.28 201.738 1984.2 199.516 Q1987.14 197.294 1992.95 197.294 L1998.92 197.294 L1998.92 196.877 Q1998.92 193.937 1996.98 192.34 Q1995.05 190.719 1991.56 190.719 Q1989.34 190.719 1987.23 191.252 Q1985.12 191.784 1983.18 192.849 L1983.18 188.914 Q1985.52 188.011 1987.72 187.571 Q1989.92 187.108 1992 187.108 Q1997.62 187.108 2000.4 190.025 Q2003.18 192.942 2003.18 198.868 Z" fill="#000000" fill-rule="nonzero" fill-opacity="1" /><path clip-path="url(#clip510)" d="M2033.5 187.733 L2024.13 200.349 L2033.99 213.659 L2028.97 213.659 L2021.42 203.474 L2013.87 213.659 L2008.85 213.659 L2018.92 200.094 L2009.71 187.733 L2014.73 187.733 L2021.61 196.969 L2028.48 187.733 L2033.5 187.733 Z" fill="#000000" fill-rule="nonzero" fill-opacity="1" /><path clip-path="url(#clip510)" d="M2044.13 209.77 L2044.13 223.52 L2039.85 223.52 L2039.85 187.733 L2044.13 187.733 L2044.13 191.669 Q2045.47 189.354 2047.51 188.243 Q2049.57 187.108 2052.42 187.108 Q2057.14 187.108 2060.08 190.858 Q2063.04 194.608 2063.04 200.719 Q2063.04 206.831 2060.08 210.58 Q2057.14 214.33 2052.42 214.33 Q2049.57 214.33 2047.51 213.219 Q2045.47 212.085 2044.13 209.77 M2058.62 200.719 Q2058.62 196.02 2056.67 193.358 Q2054.75 190.673 2051.37 190.673 Q2047.99 190.673 2046.05 193.358 Q2044.13 196.02 2044.13 200.719 Q2044.13 205.418 2046.05 208.104 Q2047.99 210.766 2051.37 210.766 Q2054.75 210.766 2056.67 208.104 Q2058.62 205.418 2058.62 200.719 Z" fill="#000000" fill-rule="nonzero" fill-opacity="1" /><path clip-path="url(#clip510)" d="M2080.89 216.067 Q2079.08 220.696 2077.37 222.108 Q2075.66 223.52 2072.79 223.52 L2069.38 223.52 L2069.38 219.955 L2071.88 219.955 Q2073.64 219.955 2074.61 219.122 Q2075.59 218.289 2076.77 215.187 L2077.53 213.243 L2067.04 187.733 L2071.56 187.733 L2079.66 208.011 L2087.76 187.733 L2092.28 187.733 L2080.89 216.067 Z" fill="#000000" fill-rule="nonzero" fill-opacity="1" /><path clip-path="url(#clip510)" d="M2100.84 207.78 L2105.54 207.78 L2105.54 213.659 L2100.84 213.659 L2100.84 207.78 M2100.84 179.099 L2105.54 179.099 L2105.54 194.261 L2105.08 202.525 L2101.33 202.525 L2100.84 194.261 L2100.84 179.099 Z" fill="#000000" fill-rule="nonzero" fill-opacity="1" /><polyline clip-path="url(#clip510)" style="stroke:#ffa500; stroke-linecap:round; stroke-linejoin:round; stroke-width:8; stroke-opacity:1; fill:none" points="1761.43,300.059 1902.67,300.059 "/>
<path clip-path="url(#clip510)" d="M1926.21 256.859 L1930.89 256.859 L1930.89 287.484 L1947.72 287.484 L1947.72 291.419 L1926.21 291.419 L1926.21 256.859 Z" fill="#000000" fill-rule="nonzero" fill-opacity="1" /><path clip-path="url(#clip510)" d="M1953.85 287.484 L1961.49 287.484 L1961.49 261.118 L1953.18 262.785 L1953.18 258.526 L1961.44 256.859 L1966.12 256.859 L1966.12 287.484 L1973.76 287.484 L1973.76 291.419 L1953.85 291.419 L1953.85 287.484 Z" fill="#000000" fill-rule="nonzero" fill-opacity="1" /><path clip-path="url(#clip510)" d="M1998.23 269.892 L2027.9 269.892 L2027.9 273.78 L1998.23 273.78 L1998.23 269.892 M1998.23 279.336 L2027.9 279.336 L2027.9 283.271 L1998.23 283.271 L1998.23 279.336 Z" fill="#000000" fill-rule="nonzero" fill-opacity="1" /><path clip-path="url(#clip510)" d="M1936.84 307.287 Q1933.74 312.611 1932.23 317.82 Q1930.73 323.028 1930.73 328.375 Q1930.73 333.722 1932.23 338.977 Q1933.76 344.208 1936.84 349.509 L1933.13 349.509 Q1929.66 344.069 1927.93 338.815 Q1926.21 333.56 1926.21 328.375 Q1926.21 323.213 1927.93 317.982 Q1929.64 312.75 1933.13 307.287 L1936.84 307.287 Z" fill="#000000" fill-rule="nonzero" fill-opacity="1" /><path clip-path="url(#clip510)" d="M1945.29 308.699 L1949.96 308.699 L1949.96 339.324 L1966.79 339.324 L1966.79 343.259 L1945.29 343.259 L1945.29 308.699 Z" fill="#000000" fill-rule="nonzero" fill-opacity="1" /><path clip-path="url(#clip510)" d="M1972.92 339.324 L1980.56 339.324 L1980.56 312.958 L1972.25 314.625 L1972.25 310.366 L1980.52 308.699 L1985.19 308.699 L1985.19 339.324 L1992.83 339.324 L1992.83 343.259 L1972.92 343.259 L1972.92 339.324 Z" fill="#000000" fill-rule="nonzero" fill-opacity="1" /><path clip-path="url(#clip510)" d="M2009.24 308.699 L2013.18 308.699 L2001.14 347.657 L1997.21 347.657 L2009.24 308.699 Z" fill="#000000" fill-rule="nonzero" fill-opacity="1" /><path clip-path="url(#clip510)" d="M2019.06 339.324 L2026.7 339.324 L2026.7 312.958 L2018.39 314.625 L2018.39 310.366 L2026.65 308.699 L2031.33 308.699 L2031.33 339.324 L2038.97 339.324 L2038.97 343.259 L2019.06 343.259 L2019.06 339.324 Z" fill="#000000" fill-rule="nonzero" fill-opacity="1" /><path clip-path="url(#clip510)" d="M2058.41 311.778 Q2054.8 311.778 2052.97 315.343 Q2051.17 318.884 2051.17 326.014 Q2051.17 333.12 2052.97 336.685 Q2054.8 340.227 2058.41 340.227 Q2062.04 340.227 2063.85 336.685 Q2065.68 333.12 2065.68 326.014 Q2065.68 318.884 2063.85 315.343 Q2062.04 311.778 2058.41 311.778 M2058.41 308.074 Q2064.22 308.074 2067.28 312.681 Q2070.35 317.264 2070.35 326.014 Q2070.35 334.741 2067.28 339.347 Q2064.22 343.93 2058.41 343.93 Q2052.6 343.93 2049.52 339.347 Q2046.47 334.741 2046.47 326.014 Q2046.47 317.264 2049.52 312.681 Q2052.6 308.074 2058.41 308.074 Z" fill="#000000" fill-rule="nonzero" fill-opacity="1" /><path clip-path="url(#clip510)" d="M2082.6 339.324 L2098.92 339.324 L2098.92 343.259 L2076.98 343.259 L2076.98 339.324 Q2079.64 336.569 2084.22 331.94 Q2088.83 327.287 2090.01 325.944 Q2092.25 323.421 2093.13 321.685 Q2094.04 319.926 2094.04 318.236 Q2094.04 315.482 2092.09 313.745 Q2090.17 312.009 2087.07 312.009 Q2084.87 312.009 2082.41 312.773 Q2079.98 313.537 2077.21 315.088 L2077.21 310.366 Q2080.03 309.232 2082.48 308.653 Q2084.94 308.074 2086.98 308.074 Q2092.35 308.074 2095.54 310.759 Q2098.73 313.445 2098.73 317.935 Q2098.73 320.065 2097.92 321.986 Q2097.14 323.884 2095.03 326.477 Q2094.45 327.148 2091.35 330.366 Q2088.25 333.56 2082.6 339.324 Z" fill="#000000" fill-rule="nonzero" fill-opacity="1" /><path clip-path="url(#clip510)" d="M2121.58 312.773 L2109.78 331.222 L2121.58 331.222 L2121.58 312.773 M2120.35 308.699 L2126.23 308.699 L2126.23 331.222 L2131.16 331.222 L2131.16 335.111 L2126.23 335.111 L2126.23 343.259 L2121.58 343.259 L2121.58 335.111 L2105.98 335.111 L2105.98 330.597 L2120.35 308.699 Z" fill="#000000" fill-rule="nonzero" fill-opacity="1" /><path clip-path="url(#clip510)" d="M2137.62 307.287 L2141.33 307.287 Q2144.8 312.75 2146.51 317.982 Q2148.25 323.213 2148.25 328.375 Q2148.25 333.56 2146.51 338.815 Q2144.8 344.069 2141.33 349.509 L2137.62 349.509 Q2140.7 344.208 2142.21 338.977 Q2143.73 333.722 2143.73 328.375 Q2143.73 323.028 2142.21 317.82 Q2140.7 312.611 2137.62 307.287 Z" fill="#000000" fill-rule="nonzero" fill-opacity="1" /><path clip-path="url(#clip510)" d="M2172.04 308.699 L2176.72 308.699 L2176.72 323.306 L2192.23 308.699 L2198.25 308.699 L2181.09 324.81 L2199.47 343.259 L2193.32 343.259 L2176.72 326.616 L2176.72 343.259 L2172.04 343.259 L2172.04 308.699 Z" fill="#000000" fill-rule="nonzero" fill-opacity="1" /><path clip-path="url(#clip510)" d="M2202.95 317.333 L2207.21 317.333 L2207.21 343.259 L2202.95 343.259 L2202.95 317.333 M2202.95 307.241 L2207.21 307.241 L2207.21 312.634 L2202.95 312.634 L2202.95 307.241 Z" fill="#000000" fill-rule="nonzero" fill-opacity="1" /><path clip-path="url(#clip510)" d="M2220.98 326.755 L2220.98 339.417 L2228.48 339.417 Q2232.25 339.417 2234.06 337.866 Q2235.89 336.292 2235.89 333.074 Q2235.89 329.833 2234.06 328.306 Q2232.25 326.755 2228.48 326.755 L2220.98 326.755 M2220.98 312.542 L2220.98 322.958 L2227.9 322.958 Q2231.33 322.958 2232.99 321.685 Q2234.68 320.389 2234.68 317.75 Q2234.68 315.134 2232.99 313.838 Q2231.33 312.542 2227.9 312.542 L2220.98 312.542 M2216.3 308.699 L2228.25 308.699 Q2233.59 308.699 2236.49 310.921 Q2239.38 313.144 2239.38 317.241 Q2239.38 320.412 2237.9 322.287 Q2236.42 324.162 2233.55 324.625 Q2237 325.366 2238.9 327.727 Q2240.82 330.065 2240.82 333.583 Q2240.82 338.213 2237.67 340.736 Q2234.52 343.259 2228.71 343.259 L2216.3 343.259 L2216.3 308.699 Z" fill="#000000" fill-rule="nonzero" fill-opacity="1" /><path clip-path="url(#clip510)" d="M2247.97 307.287 L2251.67 307.287 Q2255.15 312.75 2256.86 317.982 Q2258.59 323.213 2258.59 328.375 Q2258.59 333.56 2256.86 338.815 Q2255.15 344.069 2251.67 349.509 L2247.97 349.509 Q2251.05 344.208 2252.55 338.977 Q2254.08 333.722 2254.08 328.375 Q2254.08 323.028 2252.55 317.82 Q2251.05 312.611 2247.97 307.287 Z" fill="#000000" fill-rule="nonzero" fill-opacity="1" /><polyline clip-path="url(#clip510)" style="stroke:#ff0000; stroke-linecap:round; stroke-linejoin:round; stroke-width:8; stroke-opacity:1; fill:none" points="1761.43,403.739 1902.67,403.739 "/>
<path clip-path="url(#clip510)" d="M1926.21 360.539 L1930.89 360.539 L1930.89 391.164 L1947.72 391.164 L1947.72 395.099 L1926.21 395.099 L1926.21 360.539 Z" fill="#000000" fill-rule="nonzero" fill-opacity="1" /><path clip-path="url(#clip510)" d="M1957.07 391.164 L1973.39 391.164 L1973.39 395.099 L1951.44 395.099 L1951.44 391.164 Q1954.11 388.409 1958.69 383.78 Q1963.3 379.127 1964.48 377.784 Q1966.72 375.261 1967.6 373.525 Q1968.5 371.766 1968.5 370.076 Q1968.5 367.322 1966.56 365.585 Q1964.64 363.849 1961.54 363.849 Q1959.34 363.849 1956.88 364.613 Q1954.45 365.377 1951.67 366.928 L1951.67 362.206 Q1954.5 361.072 1956.95 360.493 Q1959.41 359.914 1961.44 359.914 Q1966.81 359.914 1970.01 362.599 Q1973.2 365.285 1973.2 369.775 Q1973.2 371.905 1972.39 373.826 Q1971.61 375.724 1969.5 378.317 Q1968.92 378.988 1965.82 382.206 Q1962.72 385.4 1957.07 391.164 Z" fill="#000000" fill-rule="nonzero" fill-opacity="1" /><path clip-path="url(#clip510)" d="M1998.23 373.572 L2027.9 373.572 L2027.9 377.46 L1998.23 377.46 L1998.23 373.572 M1998.23 383.016 L2027.9 383.016 L2027.9 386.951 L1998.23 386.951 L1998.23 383.016 Z" fill="#000000" fill-rule="nonzero" fill-opacity="1" /><path clip-path="url(#clip510)" d="M1936.84 410.967 Q1933.74 416.291 1932.23 421.5 Q1930.73 426.708 1930.73 432.055 Q1930.73 437.402 1932.23 442.657 Q1933.76 447.888 1936.84 453.189 L1933.13 453.189 Q1929.66 447.749 1927.93 442.495 Q1926.21 437.24 1926.21 432.055 Q1926.21 426.893 1927.93 421.662 Q1929.64 416.43 1933.13 410.967 L1936.84 410.967 Z" fill="#000000" fill-rule="nonzero" fill-opacity="1" /><path clip-path="url(#clip510)" d="M1945.29 412.379 L1949.96 412.379 L1949.96 443.004 L1966.79 443.004 L1966.79 446.939 L1945.29 446.939 L1945.29 412.379 Z" fill="#000000" fill-rule="nonzero" fill-opacity="1" /><path clip-path="url(#clip510)" d="M1976.14 443.004 L1992.46 443.004 L1992.46 446.939 L1970.52 446.939 L1970.52 443.004 Q1973.18 440.249 1977.76 435.62 Q1982.37 430.967 1983.55 429.624 Q1985.8 427.101 1986.67 425.365 Q1987.58 423.606 1987.58 421.916 Q1987.58 419.162 1985.63 417.425 Q1983.71 415.689 1980.61 415.689 Q1978.41 415.689 1975.96 416.453 Q1973.53 417.217 1970.75 418.768 L1970.75 414.046 Q1973.57 412.912 1976.03 412.333 Q1978.48 411.754 1980.52 411.754 Q1985.89 411.754 1989.08 414.439 Q1992.28 417.125 1992.28 421.615 Q1992.28 423.745 1991.47 425.666 Q1990.68 427.564 1988.57 430.157 Q1987.99 430.828 1984.89 434.046 Q1981.79 437.24 1976.14 443.004 Z" fill="#000000" fill-rule="nonzero" fill-opacity="1" /><path clip-path="url(#clip510)" d="M2009.24 412.379 L2013.18 412.379 L2001.14 451.337 L1997.21 451.337 L2009.24 412.379 Z" fill="#000000" fill-rule="nonzero" fill-opacity="1" /><path clip-path="url(#clip510)" d="M2019.06 443.004 L2026.7 443.004 L2026.7 416.638 L2018.39 418.305 L2018.39 414.046 L2026.65 412.379 L2031.33 412.379 L2031.33 443.004 L2038.97 443.004 L2038.97 446.939 L2019.06 446.939 L2019.06 443.004 Z" fill="#000000" fill-rule="nonzero" fill-opacity="1" /><path clip-path="url(#clip510)" d="M2058.41 415.458 Q2054.8 415.458 2052.97 419.023 Q2051.17 422.564 2051.17 429.694 Q2051.17 436.8 2052.97 440.365 Q2054.8 443.907 2058.41 443.907 Q2062.04 443.907 2063.85 440.365 Q2065.68 436.8 2065.68 429.694 Q2065.68 422.564 2063.85 419.023 Q2062.04 415.458 2058.41 415.458 M2058.41 411.754 Q2064.22 411.754 2067.28 416.361 Q2070.35 420.944 2070.35 429.694 Q2070.35 438.421 2067.28 443.027 Q2064.22 447.61 2058.41 447.61 Q2052.6 447.61 2049.52 443.027 Q2046.47 438.421 2046.47 429.694 Q2046.47 420.944 2049.52 416.361 Q2052.6 411.754 2058.41 411.754 Z" fill="#000000" fill-rule="nonzero" fill-opacity="1" /><path clip-path="url(#clip510)" d="M2082.6 443.004 L2098.92 443.004 L2098.92 446.939 L2076.98 446.939 L2076.98 443.004 Q2079.64 440.249 2084.22 435.62 Q2088.83 430.967 2090.01 429.624 Q2092.25 427.101 2093.13 425.365 Q2094.04 423.606 2094.04 421.916 Q2094.04 419.162 2092.09 417.425 Q2090.17 415.689 2087.07 415.689 Q2084.87 415.689 2082.41 416.453 Q2079.98 417.217 2077.21 418.768 L2077.21 414.046 Q2080.03 412.912 2082.48 412.333 Q2084.94 411.754 2086.98 411.754 Q2092.35 411.754 2095.54 414.439 Q2098.73 417.125 2098.73 421.615 Q2098.73 423.745 2097.92 425.666 Q2097.14 427.564 2095.03 430.157 Q2094.45 430.828 2091.35 434.046 Q2088.25 437.24 2082.6 443.004 Z" fill="#000000" fill-rule="nonzero" fill-opacity="1" /><path clip-path="url(#clip510)" d="M2121.58 416.453 L2109.78 434.902 L2121.58 434.902 L2121.58 416.453 M2120.35 412.379 L2126.23 412.379 L2126.23 434.902 L2131.16 434.902 L2131.16 438.791 L2126.23 438.791 L2126.23 446.939 L2121.58 446.939 L2121.58 438.791 L2105.98 438.791 L2105.98 434.277 L2120.35 412.379 Z" fill="#000000" fill-rule="nonzero" fill-opacity="1" /><path clip-path="url(#clip510)" d="M2137.62 410.967 L2141.33 410.967 Q2144.8 416.43 2146.51 421.662 Q2148.25 426.893 2148.25 432.055 Q2148.25 437.24 2146.51 442.495 Q2144.8 447.749 2141.33 453.189 L2137.62 453.189 Q2140.7 447.888 2142.21 442.657 Q2143.73 437.402 2143.73 432.055 Q2143.73 426.708 2142.21 421.5 Q2140.7 416.291 2137.62 410.967 Z" fill="#000000" fill-rule="nonzero" fill-opacity="1" /><path clip-path="url(#clip510)" d="M2172.04 412.379 L2176.72 412.379 L2176.72 426.986 L2192.23 412.379 L2198.25 412.379 L2181.09 428.49 L2199.47 446.939 L2193.32 446.939 L2176.72 430.296 L2176.72 446.939 L2172.04 446.939 L2172.04 412.379 Z" fill="#000000" fill-rule="nonzero" fill-opacity="1" /><path clip-path="url(#clip510)" d="M2202.95 421.013 L2207.21 421.013 L2207.21 446.939 L2202.95 446.939 L2202.95 421.013 M2202.95 410.921 L2207.21 410.921 L2207.21 416.314 L2202.95 416.314 L2202.95 410.921 Z" fill="#000000" fill-rule="nonzero" fill-opacity="1" /><path clip-path="url(#clip510)" d="M2220.98 430.435 L2220.98 443.097 L2228.48 443.097 Q2232.25 443.097 2234.06 441.546 Q2235.89 439.972 2235.89 436.754 Q2235.89 433.513 2234.06 431.986 Q2232.25 430.435 2228.48 430.435 L2220.98 430.435 M2220.98 416.222 L2220.98 426.638 L2227.9 426.638 Q2231.33 426.638 2232.99 425.365 Q2234.68 424.069 2234.68 421.43 Q2234.68 418.814 2232.99 417.518 Q2231.33 416.222 2227.9 416.222 L2220.98 416.222 M2216.3 412.379 L2228.25 412.379 Q2233.59 412.379 2236.49 414.601 Q2239.38 416.824 2239.38 420.921 Q2239.38 424.092 2237.9 425.967 Q2236.42 427.842 2233.55 428.305 Q2237 429.046 2238.9 431.407 Q2240.82 433.745 2240.82 437.263 Q2240.82 441.893 2237.67 444.416 Q2234.52 446.939 2228.71 446.939 L2216.3 446.939 L2216.3 412.379 Z" fill="#000000" fill-rule="nonzero" fill-opacity="1" /><path clip-path="url(#clip510)" d="M2247.97 410.967 L2251.67 410.967 Q2255.15 416.43 2256.86 421.662 Q2258.59 426.893 2258.59 432.055 Q2258.59 437.24 2256.86 442.495 Q2255.15 447.749 2251.67 453.189 L2247.97 453.189 Q2251.05 447.888 2252.55 442.657 Q2254.08 437.402 2254.08 432.055 Q2254.08 426.708 2252.55 421.5 Q2251.05 416.291 2247.97 410.967 Z" fill="#000000" fill-rule="nonzero" fill-opacity="1" /><polyline clip-path="url(#clip510)" style="stroke:#800080; stroke-linecap:round; stroke-linejoin:round; stroke-width:8; stroke-opacity:1; fill:none" points="1761.43,507.419 1902.67,507.419 "/>
<path clip-path="url(#clip510)" d="M1926.21 464.219 L1930.89 464.219 L1930.89 494.844 L1947.72 494.844 L1947.72 498.779 L1926.21 498.779 L1926.21 464.219 Z" fill="#000000" fill-rule="nonzero" fill-opacity="1" /><path clip-path="url(#clip510)" d="M1967.21 480.145 Q1970.56 480.863 1972.44 483.131 Q1974.34 485.4 1974.34 488.733 Q1974.34 493.849 1970.82 496.65 Q1967.3 499.45 1960.82 499.45 Q1958.64 499.45 1956.33 499.011 Q1954.04 498.594 1951.58 497.738 L1951.58 493.224 Q1953.53 494.358 1955.84 494.937 Q1958.16 495.515 1960.68 495.515 Q1965.08 495.515 1967.37 493.779 Q1969.68 492.043 1969.68 488.733 Q1969.68 485.677 1967.53 483.964 Q1965.4 482.228 1961.58 482.228 L1957.55 482.228 L1957.55 478.386 L1961.77 478.386 Q1965.22 478.386 1967.05 477.02 Q1968.87 475.631 1968.87 473.039 Q1968.87 470.377 1966.98 468.965 Q1965.1 467.529 1961.58 467.529 Q1959.66 467.529 1957.46 467.946 Q1955.26 468.363 1952.62 469.242 L1952.62 465.076 Q1955.29 464.335 1957.6 463.965 Q1959.94 463.594 1962 463.594 Q1967.32 463.594 1970.42 466.025 Q1973.53 468.432 1973.53 472.552 Q1973.53 475.423 1971.88 477.414 Q1970.24 479.381 1967.21 480.145 Z" fill="#000000" fill-rule="nonzero" fill-opacity="1" /><path clip-path="url(#clip510)" d="M1998.23 477.252 L2027.9 477.252 L2027.9 481.14 L1998.23 481.14 L1998.23 477.252 M1998.23 486.696 L2027.9 486.696 L2027.9 490.631 L1998.23 490.631 L1998.23 486.696 Z" fill="#000000" fill-rule="nonzero" fill-opacity="1" /><path clip-path="url(#clip510)" d="M1936.84 514.647 Q1933.74 519.971 1932.23 525.18 Q1930.73 530.388 1930.73 535.735 Q1930.73 541.082 1932.23 546.337 Q1933.76 551.568 1936.84 556.869 L1933.13 556.869 Q1929.66 551.429 1927.93 546.175 Q1926.21 540.92 1926.21 535.735 Q1926.21 530.573 1927.93 525.342 Q1929.64 520.11 1933.13 514.647 L1936.84 514.647 Z" fill="#000000" fill-rule="nonzero" fill-opacity="1" /><path clip-path="url(#clip510)" d="M1945.29 516.059 L1949.96 516.059 L1949.96 546.684 L1966.79 546.684 L1966.79 550.619 L1945.29 550.619 L1945.29 516.059 Z" fill="#000000" fill-rule="nonzero" fill-opacity="1" /><path clip-path="url(#clip510)" d="M1986.28 531.985 Q1989.64 532.703 1991.51 534.971 Q1993.41 537.24 1993.41 540.573 Q1993.41 545.689 1989.89 548.49 Q1986.37 551.29 1979.89 551.29 Q1977.72 551.29 1975.4 550.851 Q1973.11 550.434 1970.66 549.578 L1970.66 545.064 Q1972.6 546.198 1974.92 546.777 Q1977.23 547.355 1979.75 547.355 Q1984.15 547.355 1986.44 545.619 Q1988.76 543.883 1988.76 540.573 Q1988.76 537.517 1986.61 535.804 Q1984.48 534.068 1980.66 534.068 L1976.63 534.068 L1976.63 530.226 L1980.84 530.226 Q1984.29 530.226 1986.12 528.86 Q1987.95 527.471 1987.95 524.879 Q1987.95 522.217 1986.05 520.805 Q1984.17 519.369 1980.66 519.369 Q1978.73 519.369 1976.54 519.786 Q1974.34 520.203 1971.7 521.082 L1971.7 516.916 Q1974.36 516.175 1976.67 515.805 Q1979.01 515.434 1981.07 515.434 Q1986.4 515.434 1989.5 517.865 Q1992.6 520.272 1992.6 524.392 Q1992.6 527.263 1990.96 529.254 Q1989.31 531.221 1986.28 531.985 Z" fill="#000000" fill-rule="nonzero" fill-opacity="1" /><path clip-path="url(#clip510)" d="M2009.24 516.059 L2013.18 516.059 L2001.14 555.017 L1997.21 555.017 L2009.24 516.059 Z" fill="#000000" fill-rule="nonzero" fill-opacity="1" /><path clip-path="url(#clip510)" d="M2019.06 546.684 L2026.7 546.684 L2026.7 520.318 L2018.39 521.985 L2018.39 517.726 L2026.65 516.059 L2031.33 516.059 L2031.33 546.684 L2038.97 546.684 L2038.97 550.619 L2019.06 550.619 L2019.06 546.684 Z" fill="#000000" fill-rule="nonzero" fill-opacity="1" /><path clip-path="url(#clip510)" d="M2058.41 519.138 Q2054.8 519.138 2052.97 522.703 Q2051.17 526.244 2051.17 533.374 Q2051.17 540.48 2052.97 544.045 Q2054.8 547.587 2058.41 547.587 Q2062.04 547.587 2063.85 544.045 Q2065.68 540.48 2065.68 533.374 Q2065.68 526.244 2063.85 522.703 Q2062.04 519.138 2058.41 519.138 M2058.41 515.434 Q2064.22 515.434 2067.28 520.041 Q2070.35 524.624 2070.35 533.374 Q2070.35 542.101 2067.28 546.707 Q2064.22 551.29 2058.41 551.29 Q2052.6 551.29 2049.52 546.707 Q2046.47 542.101 2046.47 533.374 Q2046.47 524.624 2049.52 520.041 Q2052.6 515.434 2058.41 515.434 Z" fill="#000000" fill-rule="nonzero" fill-opacity="1" /><path clip-path="url(#clip510)" d="M2082.6 546.684 L2098.92 546.684 L2098.92 550.619 L2076.98 550.619 L2076.98 546.684 Q2079.64 543.929 2084.22 539.3 Q2088.83 534.647 2090.01 533.304 Q2092.25 530.781 2093.13 529.045 Q2094.04 527.286 2094.04 525.596 Q2094.04 522.842 2092.09 521.105 Q2090.17 519.369 2087.07 519.369 Q2084.87 519.369 2082.41 520.133 Q2079.98 520.897 2077.21 522.448 L2077.21 517.726 Q2080.03 516.592 2082.48 516.013 Q2084.94 515.434 2086.98 515.434 Q2092.35 515.434 2095.54 518.119 Q2098.73 520.805 2098.73 525.295 Q2098.73 527.425 2097.92 529.346 Q2097.14 531.244 2095.03 533.837 Q2094.45 534.508 2091.35 537.726 Q2088.25 540.92 2082.6 546.684 Z" fill="#000000" fill-rule="nonzero" fill-opacity="1" /><path clip-path="url(#clip510)" d="M2121.58 520.133 L2109.78 538.582 L2121.58 538.582 L2121.58 520.133 M2120.35 516.059 L2126.23 516.059 L2126.23 538.582 L2131.16 538.582 L2131.16 542.471 L2126.23 542.471 L2126.23 550.619 L2121.58 550.619 L2121.58 542.471 L2105.98 542.471 L2105.98 537.957 L2120.35 516.059 Z" fill="#000000" fill-rule="nonzero" fill-opacity="1" /><path clip-path="url(#clip510)" d="M2137.62 514.647 L2141.33 514.647 Q2144.8 520.11 2146.51 525.342 Q2148.25 530.573 2148.25 535.735 Q2148.25 540.92 2146.51 546.175 Q2144.8 551.429 2141.33 556.869 L2137.62 556.869 Q2140.7 551.568 2142.21 546.337 Q2143.73 541.082 2143.73 535.735 Q2143.73 530.388 2142.21 525.18 Q2140.7 519.971 2137.62 514.647 Z" fill="#000000" fill-rule="nonzero" fill-opacity="1" /><path clip-path="url(#clip510)" d="M2172.04 516.059 L2176.72 516.059 L2176.72 530.666 L2192.23 516.059 L2198.25 516.059 L2181.09 532.17 L2199.47 550.619 L2193.32 550.619 L2176.72 533.976 L2176.72 550.619 L2172.04 550.619 L2172.04 516.059 Z" fill="#000000" fill-rule="nonzero" fill-opacity="1" /><path clip-path="url(#clip510)" d="M2202.95 524.693 L2207.21 524.693 L2207.21 550.619 L2202.95 550.619 L2202.95 524.693 M2202.95 514.601 L2207.21 514.601 L2207.21 519.994 L2202.95 519.994 L2202.95 514.601 Z" fill="#000000" fill-rule="nonzero" fill-opacity="1" /><path clip-path="url(#clip510)" d="M2220.98 534.115 L2220.98 546.777 L2228.48 546.777 Q2232.25 546.777 2234.06 545.226 Q2235.89 543.652 2235.89 540.434 Q2235.89 537.193 2234.06 535.666 Q2232.25 534.115 2228.48 534.115 L2220.98 534.115 M2220.98 519.902 L2220.98 530.318 L2227.9 530.318 Q2231.33 530.318 2232.99 529.045 Q2234.68 527.749 2234.68 525.11 Q2234.68 522.494 2232.99 521.198 Q2231.33 519.902 2227.9 519.902 L2220.98 519.902 M2216.3 516.059 L2228.25 516.059 Q2233.59 516.059 2236.49 518.281 Q2239.38 520.504 2239.38 524.601 Q2239.38 527.772 2237.9 529.647 Q2236.42 531.522 2233.55 531.985 Q2237 532.726 2238.9 535.087 Q2240.82 537.425 2240.82 540.943 Q2240.82 545.573 2237.67 548.096 Q2234.52 550.619 2228.71 550.619 L2216.3 550.619 L2216.3 516.059 Z" fill="#000000" fill-rule="nonzero" fill-opacity="1" /><path clip-path="url(#clip510)" d="M2247.97 514.647 L2251.67 514.647 Q2255.15 520.11 2256.86 525.342 Q2258.59 530.573 2258.59 535.735 Q2258.59 540.92 2256.86 546.175 Q2255.15 551.429 2251.67 556.869 L2247.97 556.869 Q2251.05 551.568 2252.55 546.337 Q2254.08 541.082 2254.08 535.735 Q2254.08 530.388 2252.55 525.18 Q2251.05 519.971 2247.97 514.647 Z" fill="#000000" fill-rule="nonzero" fill-opacity="1" /></svg>
