<?xml version="1.0" encoding="utf-8"?>
<svg xmlns="http://www.w3.org/2000/svg" xmlns:xlink="http://www.w3.org/1999/xlink" width="600" height="400" viewBox="0 0 2400 1600">
<defs>
  <clipPath id="clip820">
    <rect x="0" y="0" width="2400" height="1600"/>
  </clipPath>
</defs>
<path clip-path="url(#clip820)" d="M0 1600 L2400 1600 L2400 0 L0 0  Z" fill="#ffffff" fill-rule="evenodd" fill-opacity="1"/>
<defs>
  <clipPath id="clip821">
    <rect x="480" y="0" width="1681" height="1600"/>
  </clipPath>
</defs>
<path clip-path="url(#clip820)" d="M205.121 1410.9 L2352.76 1410.9 L2352.76 47.2441 L205.121 47.2441  Z" fill="#ffffff" fill-rule="evenodd" fill-opacity="1"/>
<defs>
  <clipPath id="clip822">
    <rect x="205" y="47" width="2149" height="1365"/>
  </clipPath>
</defs>
<polyline clip-path="url(#clip822)" style="stroke:#000000; stroke-linecap:round; stroke-linejoin:round; stroke-width:2; stroke-opacity:0.1; fill:none" points="754.659,1410.9 754.659,47.2441 "/>
<polyline clip-path="url(#clip822)" style="stroke:#000000; stroke-linecap:round; stroke-linejoin:round; stroke-width:2; stroke-opacity:0.1; fill:none" points="1735.54,1410.9 1735.54,47.2441 "/>
<polyline clip-path="url(#clip822)" style="stroke:#000000; stroke-linecap:round; stroke-linejoin:round; stroke-width:2; stroke-opacity:0.1; fill:none" points="754.659,1410.9 754.659,47.2441 "/>
<polyline clip-path="url(#clip822)" style="stroke:#000000; stroke-linecap:round; stroke-linejoin:round; stroke-width:2; stroke-opacity:0.1; fill:none" points="1735.54,1410.9 1735.54,47.2441 "/>
<polyline clip-path="url(#clip822)" style="stroke:#000000; stroke-linecap:round; stroke-linejoin:round; stroke-width:2; stroke-opacity:0.1; fill:none" points="205.121,1374.3 2352.76,1374.3 "/>
<polyline clip-path="url(#clip822)" style="stroke:#000000; stroke-linecap:round; stroke-linejoin:round; stroke-width:2; stroke-opacity:0.1; fill:none" points="205.121,1075.39 2352.76,1075.39 "/>
<polyline clip-path="url(#clip822)" style="stroke:#000000; stroke-linecap:round; stroke-linejoin:round; stroke-width:2; stroke-opacity:0.1; fill:none" points="205.121,776.471 2352.76,776.471 "/>
<polyline clip-path="url(#clip822)" style="stroke:#000000; stroke-linecap:round; stroke-linejoin:round; stroke-width:2; stroke-opacity:0.1; fill:none" points="205.121,477.555 2352.76,477.555 "/>
<polyline clip-path="url(#clip822)" style="stroke:#000000; stroke-linecap:round; stroke-linejoin:round; stroke-width:2; stroke-opacity:0.1; fill:none" points="205.121,178.638 2352.76,178.638 "/>
<polyline clip-path="url(#clip822)" style="stroke:#000000; stroke-linecap:round; stroke-linejoin:round; stroke-width:2; stroke-opacity:0.1; fill:none" points="205.121,1374.3 2352.76,1374.3 "/>
<polyline clip-path="url(#clip822)" style="stroke:#000000; stroke-linecap:round; stroke-linejoin:round; stroke-width:2; stroke-opacity:0.1; fill:none" points="205.121,1075.39 2352.76,1075.39 "/>
<polyline clip-path="url(#clip822)" style="stroke:#000000; stroke-linecap:round; stroke-linejoin:round; stroke-width:2; stroke-opacity:0.1; fill:none" points="205.121,776.471 2352.76,776.471 "/>
<polyline clip-path="url(#clip822)" style="stroke:#000000; stroke-linecap:round; stroke-linejoin:round; stroke-width:2; stroke-opacity:0.1; fill:none" points="205.121,477.555 2352.76,477.555 "/>
<polyline clip-path="url(#clip822)" style="stroke:#000000; stroke-linecap:round; stroke-linejoin:round; stroke-width:2; stroke-opacity:0.1; fill:none" points="205.121,178.638 2352.76,178.638 "/>
<polyline clip-path="url(#clip820)" style="stroke:#000000; stroke-linecap:round; stroke-linejoin:round; stroke-width:4; stroke-opacity:1; fill:none" points="205.121,1410.9 2352.76,1410.9 "/>
<polyline clip-path="url(#clip820)" style="stroke:#000000; stroke-linecap:round; stroke-linejoin:round; stroke-width:4; stroke-opacity:1; fill:none" points="205.121,47.2441 2352.76,47.2441 "/>
<polyline clip-path="url(#clip820)" style="stroke:#000000; stroke-linecap:round; stroke-linejoin:round; stroke-width:4; stroke-opacity:1; fill:none" points="754.659,1410.9 754.659,1392 "/>
<polyline clip-path="url(#clip820)" style="stroke:#000000; stroke-linecap:round; stroke-linejoin:round; stroke-width:4; stroke-opacity:1; fill:none" points="1735.54,1410.9 1735.54,1392 "/>
<polyline clip-path="url(#clip820)" style="stroke:#000000; stroke-linecap:round; stroke-linejoin:round; stroke-width:4; stroke-opacity:1; fill:none" points="754.659,47.2441 754.659,66.1417 "/>
<polyline clip-path="url(#clip820)" style="stroke:#000000; stroke-linecap:round; stroke-linejoin:round; stroke-width:4; stroke-opacity:1; fill:none" points="1735.54,47.2441 1735.54,66.1417 "/>
<path clip-path="url(#clip820)" d="M720.103 1485.02 L727.742 1485.02 L727.742 1458.66 L719.432 1460.32 L719.432 1456.06 L727.696 1454.4 L732.371 1454.4 L732.371 1485.02 L740.01 1485.02 L740.01 1488.96 L720.103 1488.96 L720.103 1485.02 Z" fill="#000000" fill-rule="nonzero" fill-opacity="1" /><path clip-path="url(#clip820)" d="M759.455 1457.48 Q755.844 1457.48 754.015 1461.04 Q752.209 1464.58 752.209 1471.71 Q752.209 1478.82 754.015 1482.38 Q755.844 1485.92 759.455 1485.92 Q763.089 1485.92 764.894 1482.38 Q766.723 1478.82 766.723 1471.71 Q766.723 1464.58 764.894 1461.04 Q763.089 1457.48 759.455 1457.48 M759.455 1453.77 Q765.265 1453.77 768.32 1458.38 Q771.399 1462.96 771.399 1471.71 Q771.399 1480.44 768.32 1485.04 Q765.265 1489.63 759.455 1489.63 Q753.644 1489.63 750.566 1485.04 Q747.51 1480.44 747.51 1471.71 Q747.51 1462.96 750.566 1458.38 Q753.644 1453.77 759.455 1453.77 Z" fill="#000000" fill-rule="nonzero" fill-opacity="1" /><path clip-path="url(#clip820)" d="M784.094 1446.41 Q786.821 1446.99 788.345 1448.83 Q789.887 1450.68 789.887 1453.38 Q789.887 1457.54 787.028 1459.82 Q784.17 1462.09 778.903 1462.09 Q777.135 1462.09 775.255 1461.73 Q773.393 1461.4 771.399 1460.7 L771.399 1457.03 Q772.979 1457.95 774.86 1458.42 Q776.74 1458.89 778.79 1458.89 Q782.364 1458.89 784.226 1457.48 Q786.107 1456.07 786.107 1453.38 Q786.107 1450.9 784.358 1449.51 Q782.627 1448.1 779.524 1448.1 L776.251 1448.1 L776.251 1444.98 L779.674 1444.98 Q782.477 1444.98 783.963 1443.87 Q785.448 1442.74 785.448 1440.63 Q785.448 1438.47 783.906 1437.32 Q782.383 1436.16 779.524 1436.16 Q777.963 1436.16 776.176 1436.49 Q774.389 1436.83 772.245 1437.55 L772.245 1434.16 Q774.408 1433.56 776.289 1433.26 Q778.189 1432.96 779.863 1432.96 Q784.188 1432.96 786.709 1434.93 Q789.229 1436.89 789.229 1440.24 Q789.229 1442.57 787.893 1444.19 Q786.558 1445.79 784.094 1446.41 Z" fill="#000000" fill-rule="nonzero" fill-opacity="1" /><path clip-path="url(#clip820)" d="M1700.53 1485.02 L1708.17 1485.02 L1708.17 1458.66 L1699.86 1460.32 L1699.86 1456.06 L1708.12 1454.4 L1712.8 1454.4 L1712.8 1485.02 L1720.44 1485.02 L1720.44 1488.96 L1700.53 1488.96 L1700.53 1485.02 Z" fill="#000000" fill-rule="nonzero" fill-opacity="1" /><path clip-path="url(#clip820)" d="M1739.88 1457.48 Q1736.27 1457.48 1734.44 1461.04 Q1732.64 1464.58 1732.64 1471.71 Q1732.64 1478.82 1734.44 1482.38 Q1736.27 1485.92 1739.88 1485.92 Q1743.52 1485.92 1745.32 1482.38 Q1747.15 1478.82 1747.15 1471.71 Q1747.15 1464.58 1745.32 1461.04 Q1743.52 1457.48 1739.88 1457.48 M1739.88 1453.77 Q1745.69 1453.77 1748.75 1458.38 Q1751.83 1462.96 1751.83 1471.71 Q1751.83 1480.44 1748.75 1485.04 Q1745.69 1489.63 1739.88 1489.63 Q1734.07 1489.63 1730.99 1485.04 Q1727.94 1480.44 1727.94 1471.71 Q1727.94 1462.96 1730.99 1458.38 Q1734.07 1453.77 1739.88 1453.77 Z" fill="#000000" fill-rule="nonzero" fill-opacity="1" /><path clip-path="url(#clip820)" d="M1761.85 1445.99 Q1759.29 1445.99 1757.79 1447.74 Q1756.3 1449.49 1756.3 1452.54 Q1756.3 1455.57 1757.79 1457.33 Q1759.29 1459.08 1761.85 1459.08 Q1764.41 1459.08 1765.9 1457.33 Q1767.4 1455.57 1767.4 1452.54 Q1767.4 1449.49 1765.9 1447.74 Q1764.41 1445.99 1761.85 1445.99 M1769.39 1434.09 L1769.39 1437.55 Q1767.96 1436.87 1766.5 1436.51 Q1765.05 1436.16 1763.62 1436.16 Q1759.86 1436.16 1757.87 1438.69 Q1755.89 1441.23 1755.61 1446.37 Q1756.72 1444.73 1758.39 1443.87 Q1760.07 1442.98 1762.08 1442.98 Q1766.31 1442.98 1768.75 1445.56 Q1771.22 1448.12 1771.22 1452.54 Q1771.22 1456.86 1768.66 1459.48 Q1766.1 1462.09 1761.85 1462.09 Q1756.98 1462.09 1754.4 1458.37 Q1751.83 1454.62 1751.83 1447.53 Q1751.83 1440.88 1754.99 1436.93 Q1758.15 1432.96 1763.47 1432.96 Q1764.9 1432.96 1766.35 1433.24 Q1767.81 1433.52 1769.39 1434.09 Z" fill="#000000" fill-rule="nonzero" fill-opacity="1" /><path clip-path="url(#clip820)" d="M1074.73 1538.54 L1080.93 1538.54 L1092.07 1568.46 L1103.21 1538.54 L1109.42 1538.54 L1096.05 1574.19 L1088.09 1574.19 L1074.73 1538.54 Z" fill="#000000" fill-rule="nonzero" fill-opacity="1" /><path clip-path="url(#clip820)" d="M1148 1554.9 L1148 1557.76 L1121.07 1557.76 Q1121.45 1563.81 1124.7 1566.99 Q1127.98 1570.14 1133.8 1570.14 Q1137.17 1570.14 1140.33 1569.32 Q1143.51 1568.49 1146.63 1566.83 L1146.63 1572.37 Q1143.48 1573.71 1140.17 1574.41 Q1136.86 1575.11 1133.45 1575.11 Q1124.92 1575.11 1119.92 1570.14 Q1114.96 1565.18 1114.96 1556.71 Q1114.96 1547.96 1119.67 1542.83 Q1124.41 1537.68 1132.43 1537.68 Q1139.62 1537.68 1143.79 1542.33 Q1148 1546.94 1148 1554.9 M1142.14 1553.18 Q1142.08 1548.37 1139.43 1545.51 Q1136.82 1542.64 1132.5 1542.64 Q1127.59 1542.64 1124.63 1545.41 Q1121.71 1548.18 1121.26 1553.21 L1142.14 1553.18 Z" fill="#000000" fill-rule="nonzero" fill-opacity="1" /><path clip-path="url(#clip820)" d="M1183.26 1539.91 L1183.26 1545.38 Q1180.78 1544.01 1178.26 1543.34 Q1175.78 1542.64 1173.24 1542.64 Q1167.54 1542.64 1164.39 1546.27 Q1161.24 1549.87 1161.24 1556.39 Q1161.24 1562.92 1164.39 1566.55 Q1167.54 1570.14 1173.24 1570.14 Q1175.78 1570.14 1178.26 1569.47 Q1180.78 1568.77 1183.26 1567.41 L1183.26 1572.82 Q1180.81 1573.96 1178.17 1574.54 Q1175.56 1575.11 1172.6 1575.11 Q1164.55 1575.11 1159.8 1570.05 Q1155.06 1564.99 1155.06 1556.39 Q1155.06 1547.67 1159.84 1542.68 Q1164.64 1537.68 1172.98 1537.68 Q1175.69 1537.68 1178.26 1538.25 Q1180.84 1538.79 1183.26 1539.91 Z" fill="#000000" fill-rule="nonzero" fill-opacity="1" /><path clip-path="url(#clip820)" d="M1199.24 1528.42 L1199.24 1538.54 L1211.3 1538.54 L1211.3 1543.09 L1199.24 1543.09 L1199.24 1562.44 Q1199.24 1566.8 1200.42 1568.04 Q1201.63 1569.28 1205.29 1569.28 L1211.3 1569.28 L1211.3 1574.19 L1205.29 1574.19 Q1198.51 1574.19 1195.93 1571.67 Q1193.35 1569.12 1193.35 1562.44 L1193.35 1543.09 L1189.05 1543.09 L1189.05 1538.54 L1193.35 1538.54 L1193.35 1528.42 L1199.24 1528.42 Z" fill="#000000" fill-rule="nonzero" fill-opacity="1" /><path clip-path="url(#clip820)" d="M1232.82 1542.64 Q1228.11 1542.64 1225.37 1546.34 Q1222.63 1550 1222.63 1556.39 Q1222.63 1562.79 1225.34 1566.48 Q1228.08 1570.14 1232.82 1570.14 Q1237.5 1570.14 1240.23 1566.45 Q1242.97 1562.76 1242.97 1556.39 Q1242.97 1550.06 1240.23 1546.37 Q1237.5 1542.64 1232.82 1542.64 M1232.82 1537.68 Q1240.46 1537.68 1244.82 1542.64 Q1249.18 1547.61 1249.18 1556.39 Q1249.18 1565.15 1244.82 1570.14 Q1240.46 1575.11 1232.82 1575.11 Q1225.15 1575.11 1220.79 1570.14 Q1216.46 1565.15 1216.46 1556.39 Q1216.46 1547.61 1220.79 1542.64 Q1225.15 1537.68 1232.82 1537.68 Z" fill="#000000" fill-rule="nonzero" fill-opacity="1" /><path clip-path="url(#clip820)" d="M1279.54 1544.01 Q1278.56 1543.44 1277.38 1543.18 Q1276.23 1542.9 1274.83 1542.9 Q1269.87 1542.9 1267.19 1546.14 Q1264.55 1549.36 1264.55 1555.41 L1264.55 1574.19 L1258.66 1574.19 L1258.66 1538.54 L1264.55 1538.54 L1264.55 1544.08 Q1266.4 1540.83 1269.36 1539.27 Q1272.32 1537.68 1276.55 1537.68 Q1277.16 1537.68 1277.89 1537.77 Q1278.62 1537.84 1279.51 1538 L1279.54 1544.01 Z" fill="#000000" fill-rule="nonzero" fill-opacity="1" /><path clip-path="url(#clip820)" d="M1329.13 1539.59 L1329.13 1545.13 Q1326.65 1543.85 1323.98 1543.22 Q1321.3 1542.58 1318.44 1542.58 Q1314.08 1542.58 1311.88 1543.92 Q1309.72 1545.25 1309.72 1547.93 Q1309.72 1549.96 1311.28 1551.14 Q1312.84 1552.29 1317.55 1553.34 L1319.55 1553.78 Q1325.79 1555.12 1328.4 1557.57 Q1331.04 1559.99 1331.04 1564.35 Q1331.04 1569.32 1327.1 1572.21 Q1323.18 1575.11 1316.31 1575.11 Q1313.44 1575.11 1310.32 1574.54 Q1307.23 1573.99 1303.8 1572.88 L1303.8 1566.83 Q1307.04 1568.52 1310.19 1569.38 Q1313.35 1570.21 1316.43 1570.21 Q1320.57 1570.21 1322.8 1568.81 Q1325.03 1567.37 1325.03 1564.8 Q1325.03 1562.41 1323.4 1561.14 Q1321.81 1559.86 1316.37 1558.68 L1314.33 1558.21 Q1308.89 1557.06 1306.47 1554.71 Q1304.05 1552.32 1304.05 1548.18 Q1304.05 1543.15 1307.62 1540.42 Q1311.18 1537.68 1317.74 1537.68 Q1320.98 1537.68 1323.85 1538.16 Q1326.71 1538.63 1329.13 1539.59 Z" fill="#000000" fill-rule="nonzero" fill-opacity="1" /><path clip-path="url(#clip820)" d="M1340.37 1538.54 L1346.22 1538.54 L1346.22 1574.19 L1340.37 1574.19 L1340.37 1538.54 M1340.37 1524.66 L1346.22 1524.66 L1346.22 1532.08 L1340.37 1532.08 L1340.37 1524.66 Z" fill="#000000" fill-rule="nonzero" fill-opacity="1" /><path clip-path="url(#clip820)" d="M1355.93 1538.54 L1383.75 1538.54 L1383.75 1543.88 L1361.72 1569.51 L1383.75 1569.51 L1383.75 1574.19 L1355.14 1574.19 L1355.14 1568.84 L1377.16 1543.22 L1355.93 1543.22 L1355.93 1538.54 Z" fill="#000000" fill-rule="nonzero" fill-opacity="1" /><path clip-path="url(#clip820)" d="M1423.19 1554.9 L1423.19 1557.76 L1396.26 1557.76 Q1396.64 1563.81 1399.89 1566.99 Q1403.17 1570.14 1408.99 1570.14 Q1412.36 1570.14 1415.51 1569.32 Q1418.7 1568.49 1421.82 1566.83 L1421.82 1572.37 Q1418.67 1573.71 1415.36 1574.41 Q1412.05 1575.11 1408.64 1575.11 Q1400.11 1575.11 1395.11 1570.14 Q1390.15 1565.18 1390.15 1556.71 Q1390.15 1547.96 1394.86 1542.83 Q1399.6 1537.68 1407.62 1537.68 Q1414.81 1537.68 1418.98 1542.33 Q1423.19 1546.94 1423.19 1554.9 M1417.33 1553.18 Q1417.27 1548.37 1414.62 1545.51 Q1412.01 1542.64 1407.68 1542.64 Q1402.78 1542.64 1399.82 1545.41 Q1396.89 1548.18 1396.45 1553.21 L1417.33 1553.18 Z" fill="#000000" fill-rule="nonzero" fill-opacity="1" /><path clip-path="url(#clip820)" d="M1483.15 1552.67 L1483.15 1574.19 L1477.29 1574.19 L1477.29 1552.86 Q1477.29 1547.8 1475.32 1545.29 Q1473.35 1542.77 1469.4 1542.77 Q1464.66 1542.77 1461.92 1545.79 Q1459.18 1548.82 1459.18 1554.04 L1459.18 1574.19 L1453.3 1574.19 L1453.3 1538.54 L1459.18 1538.54 L1459.18 1544.08 Q1461.28 1540.86 1464.12 1539.27 Q1466.98 1537.68 1470.71 1537.68 Q1476.85 1537.68 1480 1541.5 Q1483.15 1545.29 1483.15 1552.67 Z" fill="#000000" fill-rule="nonzero" fill-opacity="1" /><polyline clip-path="url(#clip820)" style="stroke:#000000; stroke-linecap:round; stroke-linejoin:round; stroke-width:4; stroke-opacity:1; fill:none" points="205.121,1410.9 205.121,47.2441 "/>
<polyline clip-path="url(#clip820)" style="stroke:#000000; stroke-linecap:round; stroke-linejoin:round; stroke-width:4; stroke-opacity:1; fill:none" points="2352.76,1410.9 2352.76,47.2441 "/>
<polyline clip-path="url(#clip820)" style="stroke:#000000; stroke-linecap:round; stroke-linejoin:round; stroke-width:4; stroke-opacity:1; fill:none" points="205.121,1374.3 224.019,1374.3 "/>
<polyline clip-path="url(#clip820)" style="stroke:#000000; stroke-linecap:round; stroke-linejoin:round; stroke-width:4; stroke-opacity:1; fill:none" points="205.121,1075.39 224.019,1075.39 "/>
<polyline clip-path="url(#clip820)" style="stroke:#000000; stroke-linecap:round; stroke-linejoin:round; stroke-width:4; stroke-opacity:1; fill:none" points="205.121,776.471 224.019,776.471 "/>
<polyline clip-path="url(#clip820)" style="stroke:#000000; stroke-linecap:round; stroke-linejoin:round; stroke-width:4; stroke-opacity:1; fill:none" points="205.121,477.555 224.019,477.555 "/>
<polyline clip-path="url(#clip820)" style="stroke:#000000; stroke-linecap:round; stroke-linejoin:round; stroke-width:4; stroke-opacity:1; fill:none" points="205.121,178.638 224.019,178.638 "/>
<polyline clip-path="url(#clip820)" style="stroke:#000000; stroke-linecap:round; stroke-linejoin:round; stroke-width:4; stroke-opacity:1; fill:none" points="2352.76,1374.3 2333.86,1374.3 "/>
<polyline clip-path="url(#clip820)" style="stroke:#000000; stroke-linecap:round; stroke-linejoin:round; stroke-width:4; stroke-opacity:1; fill:none" points="2352.76,1075.39 2333.86,1075.39 "/>
<polyline clip-path="url(#clip820)" style="stroke:#000000; stroke-linecap:round; stroke-linejoin:round; stroke-width:4; stroke-opacity:1; fill:none" points="2352.76,776.471 2333.86,776.471 "/>
<polyline clip-path="url(#clip820)" style="stroke:#000000; stroke-linecap:round; stroke-linejoin:round; stroke-width:4; stroke-opacity:1; fill:none" points="2352.76,477.555 2333.86,477.555 "/>
<polyline clip-path="url(#clip820)" style="stroke:#000000; stroke-linecap:round; stroke-linejoin:round; stroke-width:4; stroke-opacity:1; fill:none" points="2352.76,178.638 2333.86,178.638 "/>
<path clip-path="url(#clip820)" d="M117.825 1387.65 L125.464 1387.65 L125.464 1361.28 L117.154 1362.95 L117.154 1358.69 L125.418 1357.02 L130.093 1357.02 L130.093 1387.65 L137.732 1387.65 L137.732 1391.58 L117.825 1391.58 L117.825 1387.65 Z" fill="#000000" fill-rule="nonzero" fill-opacity="1" /><path clip-path="url(#clip820)" d="M157.177 1360.1 Q153.566 1360.1 151.737 1363.67 Q149.931 1367.21 149.931 1374.34 Q149.931 1381.45 151.737 1385.01 Q153.566 1388.55 157.177 1388.55 Q160.811 1388.55 162.616 1385.01 Q164.445 1381.45 164.445 1374.34 Q164.445 1367.21 162.616 1363.67 Q160.811 1360.1 157.177 1360.1 M157.177 1356.4 Q162.987 1356.4 166.042 1361.01 Q169.121 1365.59 169.121 1374.34 Q169.121 1383.07 166.042 1387.67 Q162.987 1392.26 157.177 1392.26 Q151.366 1392.26 148.288 1387.67 Q145.232 1383.07 145.232 1374.34 Q145.232 1365.59 148.288 1361.01 Q151.366 1356.4 157.177 1356.4 Z" fill="#000000" fill-rule="nonzero" fill-opacity="1" /><path clip-path="url(#clip820)" d="M121.043 1088.73 L137.362 1088.73 L137.362 1092.67 L115.418 1092.67 L115.418 1088.73 Q118.08 1085.98 122.663 1081.35 Q127.269 1076.7 128.45 1075.35 Q130.695 1072.83 131.575 1071.09 Q132.478 1069.33 132.478 1067.64 Q132.478 1064.89 130.533 1063.15 Q128.612 1061.42 125.51 1061.42 Q123.311 1061.42 120.857 1062.18 Q118.427 1062.95 115.649 1064.5 L115.649 1059.77 Q118.473 1058.64 120.927 1058.06 Q123.38 1057.48 125.418 1057.48 Q130.788 1057.48 133.982 1060.17 Q137.177 1062.85 137.177 1067.34 Q137.177 1069.47 136.367 1071.39 Q135.579 1073.29 133.473 1075.89 Q132.894 1076.56 129.792 1079.77 Q126.691 1082.97 121.043 1088.73 Z" fill="#000000" fill-rule="nonzero" fill-opacity="1" /><path clip-path="url(#clip820)" d="M157.177 1061.19 Q153.566 1061.19 151.737 1064.75 Q149.931 1068.29 149.931 1075.42 Q149.931 1082.53 151.737 1086.09 Q153.566 1089.64 157.177 1089.64 Q160.811 1089.64 162.616 1086.09 Q164.445 1082.53 164.445 1075.42 Q164.445 1068.29 162.616 1064.75 Q160.811 1061.19 157.177 1061.19 M157.177 1057.48 Q162.987 1057.48 166.042 1062.09 Q169.121 1066.67 169.121 1075.42 Q169.121 1084.15 166.042 1088.76 Q162.987 1093.34 157.177 1093.34 Q151.366 1093.34 148.288 1088.76 Q145.232 1084.15 145.232 1075.42 Q145.232 1066.67 148.288 1062.09 Q151.366 1057.48 157.177 1057.48 Z" fill="#000000" fill-rule="nonzero" fill-opacity="1" /><path clip-path="url(#clip820)" d="M131.181 775.117 Q134.538 775.835 136.413 778.103 Q138.311 780.372 138.311 783.705 Q138.311 788.821 134.792 791.621 Q131.274 794.422 124.793 794.422 Q122.617 794.422 120.302 793.983 Q118.01 793.566 115.556 792.709 L115.556 788.196 Q117.501 789.33 119.816 789.909 Q122.13 790.487 124.654 790.487 Q129.052 790.487 131.343 788.751 Q133.658 787.015 133.658 783.705 Q133.658 780.649 131.505 778.936 Q129.376 777.2 125.556 777.2 L121.529 777.2 L121.529 773.358 L125.742 773.358 Q129.191 773.358 131.019 771.992 Q132.848 770.603 132.848 768.01 Q132.848 765.348 130.95 763.936 Q129.075 762.501 125.556 762.501 Q123.635 762.501 121.436 762.918 Q119.237 763.335 116.598 764.214 L116.598 760.048 Q119.26 759.307 121.575 758.936 Q123.913 758.566 125.973 758.566 Q131.297 758.566 134.399 760.997 Q137.501 763.404 137.501 767.524 Q137.501 770.395 135.857 772.385 Q134.214 774.353 131.181 775.117 Z" fill="#000000" fill-rule="nonzero" fill-opacity="1" /><path clip-path="url(#clip820)" d="M157.177 762.27 Q153.566 762.27 151.737 765.835 Q149.931 769.376 149.931 776.506 Q149.931 783.612 151.737 787.177 Q153.566 790.719 157.177 790.719 Q160.811 790.719 162.616 787.177 Q164.445 783.612 164.445 776.506 Q164.445 769.376 162.616 765.835 Q160.811 762.27 157.177 762.27 M157.177 758.566 Q162.987 758.566 166.042 763.173 Q169.121 767.756 169.121 776.506 Q169.121 785.233 166.042 789.839 Q162.987 794.422 157.177 794.422 Q151.366 794.422 148.288 789.839 Q145.232 785.233 145.232 776.506 Q145.232 767.756 148.288 763.173 Q151.366 758.566 157.177 758.566 Z" fill="#000000" fill-rule="nonzero" fill-opacity="1" /><path clip-path="url(#clip820)" d="M129.862 464.349 L118.056 482.798 L129.862 482.798 L129.862 464.349 M128.635 460.275 L134.515 460.275 L134.515 482.798 L139.445 482.798 L139.445 486.687 L134.515 486.687 L134.515 494.835 L129.862 494.835 L129.862 486.687 L114.26 486.687 L114.26 482.173 L128.635 460.275 Z" fill="#000000" fill-rule="nonzero" fill-opacity="1" /><path clip-path="url(#clip820)" d="M157.177 463.353 Q153.566 463.353 151.737 466.918 Q149.931 470.46 149.931 477.589 Q149.931 484.696 151.737 488.261 Q153.566 491.802 157.177 491.802 Q160.811 491.802 162.616 488.261 Q164.445 484.696 164.445 477.589 Q164.445 470.46 162.616 466.918 Q160.811 463.353 157.177 463.353 M157.177 459.65 Q162.987 459.65 166.042 464.256 Q169.121 468.839 169.121 477.589 Q169.121 486.316 166.042 490.923 Q162.987 495.506 157.177 495.506 Q151.366 495.506 148.288 490.923 Q145.232 486.316 145.232 477.589 Q145.232 468.839 148.288 464.256 Q151.366 459.65 157.177 459.65 Z" fill="#000000" fill-rule="nonzero" fill-opacity="1" /><path clip-path="url(#clip820)" d="M117.061 161.358 L135.417 161.358 L135.417 165.293 L121.343 165.293 L121.343 173.765 Q122.362 173.418 123.38 173.256 Q124.399 173.071 125.418 173.071 Q131.205 173.071 134.584 176.242 Q137.964 179.414 137.964 184.83 Q137.964 190.409 134.492 193.511 Q131.019 196.589 124.7 196.589 Q122.524 196.589 120.255 196.219 Q118.01 195.849 115.603 195.108 L115.603 190.409 Q117.686 191.543 119.908 192.099 Q122.13 192.654 124.607 192.654 Q128.612 192.654 130.95 190.548 Q133.288 188.441 133.288 184.83 Q133.288 181.219 130.95 179.113 Q128.612 177.006 124.607 177.006 Q122.732 177.006 120.857 177.423 Q119.006 177.84 117.061 178.719 L117.061 161.358 Z" fill="#000000" fill-rule="nonzero" fill-opacity="1" /><path clip-path="url(#clip820)" d="M157.177 164.437 Q153.566 164.437 151.737 168.002 Q149.931 171.543 149.931 178.673 Q149.931 185.779 151.737 189.344 Q153.566 192.886 157.177 192.886 Q160.811 192.886 162.616 189.344 Q164.445 185.779 164.445 178.673 Q164.445 171.543 162.616 168.002 Q160.811 164.437 157.177 164.437 M157.177 160.733 Q162.987 160.733 166.042 165.34 Q169.121 169.923 169.121 178.673 Q169.121 187.4 166.042 192.006 Q162.987 196.589 157.177 196.589 Q151.366 196.589 148.288 192.006 Q145.232 187.4 145.232 178.673 Q145.232 169.923 148.288 165.34 Q151.366 160.733 157.177 160.733 Z" fill="#000000" fill-rule="nonzero" fill-opacity="1" /><path clip-path="url(#clip820)" d="M46.212 980.707 Q39.7508 980.707 36.0905 983.38 Q32.3984 986.022 32.3984 990.669 Q32.3984 995.316 36.0905 997.99 Q39.7508 1000.63 46.212 1000.63 Q52.6732 1000.63 56.3653 997.99 Q60.0256 995.316 60.0256 990.669 Q60.0256 986.022 56.3653 983.38 Q52.6732 980.707 46.212 980.707 M33.7671 1000.63 Q30.5842 998.785 29.0564 995.984 Q27.4968 993.152 27.4968 989.237 Q27.4968 982.744 32.6531 978.702 Q37.8093 974.628 46.212 974.628 Q54.6147 974.628 59.771 978.702 Q64.9272 982.744 64.9272 989.237 Q64.9272 993.152 63.3994 995.984 Q61.8398 998.785 58.657 1000.63 L64.0042 1000.63 L64.0042 1006.52 L14.479 1006.52 L14.479 1000.63 L33.7671 1000.63 Z" fill="#000000" fill-rule="nonzero" fill-opacity="1" /><path clip-path="url(#clip820)" d="M46.0847 948.719 Q46.0847 955.817 47.7079 958.554 Q49.3312 961.291 53.2461 961.291 Q56.3653 961.291 58.2114 959.254 Q60.0256 957.185 60.0256 953.652 Q60.0256 948.783 56.5881 945.855 Q53.1188 942.894 47.3897 942.894 L46.0847 942.894 L46.0847 948.719 M43.6657 937.038 L64.0042 937.038 L64.0042 942.894 L58.5933 942.894 Q61.8398 944.9 63.3994 947.892 Q64.9272 950.883 64.9272 955.212 Q64.9272 960.687 61.8716 963.933 Q58.7843 967.148 53.6281 967.148 Q47.6125 967.148 44.5569 963.137 Q41.5014 959.095 41.5014 951.106 L41.5014 942.894 L40.9285 942.894 Q36.8862 942.894 34.6901 945.568 Q32.4621 948.21 32.4621 953.016 Q32.4621 956.071 33.1941 958.968 Q33.9262 961.864 35.3903 964.538 L29.9795 964.538 Q28.7381 961.323 28.1334 958.299 Q27.4968 955.276 27.4968 952.411 Q27.4968 944.677 31.5072 940.857 Q35.5176 937.038 43.6657 937.038 Z" fill="#000000" fill-rule="nonzero" fill-opacity="1" /><path clip-path="url(#clip820)" d="M42.4881 895.343 L64.0042 895.343 L64.0042 901.199 L42.679 901.199 Q37.6183 901.199 35.1038 903.172 Q32.5894 905.146 32.5894 909.093 Q32.5894 913.835 35.6131 916.572 Q38.6368 919.31 43.8567 919.31 L64.0042 919.31 L64.0042 925.198 L28.3562 925.198 L28.3562 919.31 L33.8944 919.31 Q30.6797 917.209 29.0883 914.376 Q27.4968 911.512 27.4968 907.788 Q27.4968 901.645 31.3163 898.494 Q35.1038 895.343 42.4881 895.343 Z" fill="#000000" fill-rule="nonzero" fill-opacity="1" /><path clip-path="url(#clip820)" d="M33.7671 860.204 L14.479 860.204 L14.479 854.347 L64.0042 854.347 L64.0042 860.204 L58.657 860.204 Q61.8398 862.05 63.3994 864.883 Q64.9272 867.684 64.9272 871.63 Q64.9272 878.092 59.771 882.166 Q54.6147 886.208 46.212 886.208 Q37.8093 886.208 32.6531 882.166 Q27.4968 878.092 27.4968 871.63 Q27.4968 867.684 29.0564 864.883 Q30.5842 862.05 33.7671 860.204 M46.212 880.16 Q52.6732 880.16 56.3653 877.519 Q60.0256 874.845 60.0256 870.198 Q60.0256 865.551 56.3653 862.878 Q52.6732 860.204 46.212 860.204 Q39.7508 860.204 36.0905 862.878 Q32.3984 865.551 32.3984 870.198 Q32.3984 874.845 36.0905 877.519 Q39.7508 880.16 46.212 880.16 Z" fill="#000000" fill-rule="nonzero" fill-opacity="1" /><path clip-path="url(#clip820)" d="M28.3562 845.69 L28.3562 839.834 L56.1743 832.513 L28.3562 825.224 L28.3562 818.318 L56.1743 810.997 L28.3562 803.708 L28.3562 797.852 L64.0042 807.178 L64.0042 814.084 L34.7856 821.755 L64.0042 829.458 L64.0042 836.364 L28.3562 845.69 Z" fill="#000000" fill-rule="nonzero" fill-opacity="1" /><path clip-path="url(#clip820)" d="M28.3562 788.972 L28.3562 783.115 L64.0042 783.115 L64.0042 788.972 L28.3562 788.972 M14.479 788.972 L14.479 783.115 L21.895 783.115 L21.895 788.972 L14.479 788.972 Z" fill="#000000" fill-rule="nonzero" fill-opacity="1" /><path clip-path="url(#clip820)" d="M33.7671 747.404 L14.479 747.404 L14.479 741.547 L64.0042 741.547 L64.0042 747.404 L58.657 747.404 Q61.8398 749.25 63.3994 752.082 Q64.9272 754.883 64.9272 758.83 Q64.9272 765.291 59.771 769.365 Q54.6147 773.408 46.212 773.408 Q37.8093 773.408 32.6531 769.365 Q27.4968 765.291 27.4968 758.83 Q27.4968 754.883 29.0564 752.082 Q30.5842 749.25 33.7671 747.404 M46.212 767.36 Q52.6732 767.36 56.3653 764.718 Q60.0256 762.045 60.0256 757.398 Q60.0256 752.751 56.3653 750.077 Q52.6732 747.404 46.212 747.404 Q39.7508 747.404 36.0905 750.077 Q32.3984 752.751 32.3984 757.398 Q32.3984 762.045 36.0905 764.718 Q39.7508 767.36 46.212 767.36 Z" fill="#000000" fill-rule="nonzero" fill-opacity="1" /><path clip-path="url(#clip820)" d="M18.2347 723.691 L28.3562 723.691 L28.3562 711.628 L32.9077 711.628 L32.9077 723.691 L52.2594 723.691 Q56.6199 723.691 57.8613 722.514 Q59.1026 721.304 59.1026 717.644 L59.1026 711.628 L64.0042 711.628 L64.0042 717.644 Q64.0042 724.423 61.4897 727.002 Q58.9434 729.58 52.2594 729.58 L32.9077 729.58 L32.9077 733.876 L28.3562 733.876 L28.3562 729.58 L18.2347 729.58 L18.2347 723.691 Z" fill="#000000" fill-rule="nonzero" fill-opacity="1" /><path clip-path="url(#clip820)" d="M42.4881 674.293 L64.0042 674.293 L64.0042 680.15 L42.679 680.15 Q37.6183 680.15 35.1038 682.123 Q32.5894 684.097 32.5894 688.043 Q32.5894 692.786 35.6131 695.523 Q38.6368 698.26 43.8567 698.26 L64.0042 698.26 L64.0042 704.149 L14.479 704.149 L14.479 698.26 L33.8944 698.26 Q30.6797 696.16 29.0883 693.327 Q27.4968 690.462 27.4968 686.738 Q27.4968 680.596 31.3163 677.444 Q35.1038 674.293 42.4881 674.293 Z" fill="#000000" fill-rule="nonzero" fill-opacity="1" /><path clip-path="url(#clip820)" d="M14.479 642.433 L14.479 628.938 L19.0304 628.938 L19.0304 636.577 L68.0464 636.577 L68.0464 628.938 L72.5979 628.938 L72.5979 642.433 L14.479 642.433 Z" fill="#000000" fill-rule="nonzero" fill-opacity="1" /><path clip-path="url(#clip820)" d="M57.2247 583.805 L44.4614 583.805 L44.4614 594.308 L39.1779 594.308 L39.1779 577.439 L59.58 577.439 Q62.2218 581.163 63.5904 585.651 Q64.9272 590.139 64.9272 595.231 Q64.9272 606.371 58.4342 612.673 Q51.9093 618.944 40.2919 618.944 Q28.6427 618.944 22.1496 612.673 Q15.6248 606.371 15.6248 595.231 Q15.6248 590.584 16.7706 586.415 Q17.9164 582.214 20.1444 578.681 L26.9876 578.681 Q23.9639 582.245 22.4361 586.256 Q20.9083 590.266 20.9083 594.69 Q20.9083 603.411 25.7781 607.804 Q30.6479 612.164 40.2919 612.164 Q49.9041 612.164 54.7739 607.804 Q59.6436 603.411 59.6436 594.69 Q59.6436 591.285 59.0707 588.611 Q58.466 585.937 57.2247 583.805 Z" fill="#000000" fill-rule="nonzero" fill-opacity="1" /><path clip-path="url(#clip820)" d="M41.3104 559.265 L58.7206 559.265 L58.7206 548.953 Q58.7206 543.765 56.5881 541.282 Q54.4238 538.768 49.9996 538.768 Q45.5436 538.768 43.4429 541.282 Q41.3104 543.765 41.3104 548.953 L41.3104 559.265 M21.7677 559.265 L36.0905 559.265 L36.0905 549.748 Q36.0905 545.038 34.34 542.746 Q32.5576 540.423 28.9291 540.423 Q25.3325 540.423 23.5501 542.746 Q21.7677 545.038 21.7677 549.748 L21.7677 559.265 M16.4842 565.695 L16.4842 549.271 Q16.4842 541.919 19.5397 537.94 Q22.5952 533.961 28.2289 533.961 Q32.5894 533.961 35.1675 535.998 Q37.7456 538.036 38.3822 541.982 Q39.4007 537.24 42.6472 534.63 Q45.8619 531.988 50.6998 531.988 Q57.0655 531.988 60.5348 536.317 Q64.0042 540.645 64.0042 548.634 L64.0042 565.695 L16.4842 565.695 Z" fill="#000000" fill-rule="nonzero" fill-opacity="1" /><path clip-path="url(#clip820)" d="M16.4842 510.822 L16.4842 505.411 L70.0516 521.962 L70.0516 527.373 L16.4842 510.822 Z" fill="#000000" fill-rule="nonzero" fill-opacity="1" /><path clip-path="url(#clip820)" d="M29.4065 476.543 L34.9447 476.543 Q33.6716 479.025 33.035 481.699 Q32.3984 484.373 32.3984 487.237 Q32.3984 491.598 33.7352 493.794 Q35.072 495.958 37.7456 495.958 Q39.7826 495.958 40.9603 494.399 Q42.1061 492.839 43.1565 488.128 L43.6021 486.123 Q44.9389 479.885 47.3897 477.275 Q49.8086 474.633 54.1691 474.633 Q59.1344 474.633 62.0308 478.58 Q64.9272 482.495 64.9272 489.37 Q64.9272 492.234 64.3543 495.353 Q63.8132 498.441 62.6992 501.878 L56.6518 501.878 Q58.3387 498.632 59.198 495.481 Q60.0256 492.33 60.0256 489.242 Q60.0256 485.105 58.6251 482.877 Q57.1929 480.649 54.6147 480.649 Q52.2276 480.649 50.9545 482.272 Q49.6813 483.863 48.5037 489.306 L48.0262 491.343 Q46.8804 496.786 44.5251 499.205 Q42.138 501.624 38.0002 501.624 Q32.9713 501.624 30.2341 498.059 Q27.4968 494.494 27.4968 487.937 Q27.4968 484.691 27.9743 481.826 Q28.4517 478.962 29.4065 476.543 Z" fill="#000000" fill-rule="nonzero" fill-opacity="1" /><path clip-path="url(#clip820)" d="M14.479 451.621 L72.5979 451.621 L72.5979 465.116 L68.0464 465.116 L68.0464 457.509 L19.0304 457.509 L19.0304 465.116 L14.479 465.116 L14.479 451.621 Z" fill="#000000" fill-rule="nonzero" fill-opacity="1" /><polyline clip-path="url(#clip822)" style="stroke:#009af9; stroke-linecap:round; stroke-linejoin:round; stroke-width:4; stroke-opacity:1; fill:none" points="265.903,308.893 364.328,192.236 462.753,125.977 494.438,111.966 561.177,90.6222 606.397,177.392 659.602,144.993 711.134,118.205 762.397,99.6205 815.602,85.838 873.177,369.888 916.955,479.504 963.485,478.487 1007.94,476.66 1054.41,477.106 1100.13,477.512 1145.49,483.754 1190.76,478.625 1236.17,494.573 1281.84,521.2 1339.41,754.334 1390.53,959.62 1441.63,964.03 1492.82,979.156 1544.03,975.708 1595.21,980.067 1646.36,981.555 1697.51,978.144 1748.68,1097.49 1799.85,1289.71 1857.42,1344.41 1919.5,1350.29 1981.58,1369.67 2043.66,1372.3 2105.74,1372.09 2167.82,1359.82 2229.9,1369.34 2291.97,1358.73 "/>
<circle clip-path="url(#clip822)" cx="265.903" cy="308.893" r="7.2" fill="#009af9" fill-rule="evenodd" fill-opacity="1" stroke="#000000" stroke-opacity="1" stroke-width="3.2"/>
<circle clip-path="url(#clip822)" cx="364.328" cy="192.236" r="7.2" fill="#009af9" fill-rule="evenodd" fill-opacity="1" stroke="#000000" stroke-opacity="1" stroke-width="3.2"/>
<circle clip-path="url(#clip822)" cx="462.753" cy="125.977" r="7.2" fill="#009af9" fill-rule="evenodd" fill-opacity="1" stroke="#000000" stroke-opacity="1" stroke-width="3.2"/>
<circle clip-path="url(#clip822)" cx="494.438" cy="111.966" r="7.2" fill="#009af9" fill-rule="evenodd" fill-opacity="1" stroke="#000000" stroke-opacity="1" stroke-width="3.2"/>
<circle clip-path="url(#clip822)" cx="561.177" cy="90.6222" r="7.2" fill="#009af9" fill-rule="evenodd" fill-opacity="1" stroke="#000000" stroke-opacity="1" stroke-width="3.2"/>
<circle clip-path="url(#clip822)" cx="606.397" cy="177.392" r="7.2" fill="#009af9" fill-rule="evenodd" fill-opacity="1" stroke="#000000" stroke-opacity="1" stroke-width="3.2"/>
<circle clip-path="url(#clip822)" cx="659.602" cy="144.993" r="7.2" fill="#009af9" fill-rule="evenodd" fill-opacity="1" stroke="#000000" stroke-opacity="1" stroke-width="3.2"/>
<circle clip-path="url(#clip822)" cx="711.134" cy="118.205" r="7.2" fill="#009af9" fill-rule="evenodd" fill-opacity="1" stroke="#000000" stroke-opacity="1" stroke-width="3.2"/>
<circle clip-path="url(#clip822)" cx="762.397" cy="99.6205" r="7.2" fill="#009af9" fill-rule="evenodd" fill-opacity="1" stroke="#000000" stroke-opacity="1" stroke-width="3.2"/>
<circle clip-path="url(#clip822)" cx="815.602" cy="85.838" r="7.2" fill="#009af9" fill-rule="evenodd" fill-opacity="1" stroke="#000000" stroke-opacity="1" stroke-width="3.2"/>
<circle clip-path="url(#clip822)" cx="873.177" cy="369.888" r="7.2" fill="#009af9" fill-rule="evenodd" fill-opacity="1" stroke="#000000" stroke-opacity="1" stroke-width="3.2"/>
<circle clip-path="url(#clip822)" cx="916.955" cy="479.504" r="7.2" fill="#009af9" fill-rule="evenodd" fill-opacity="1" stroke="#000000" stroke-opacity="1" stroke-width="3.2"/>
<circle clip-path="url(#clip822)" cx="963.485" cy="478.487" r="7.2" fill="#009af9" fill-rule="evenodd" fill-opacity="1" stroke="#000000" stroke-opacity="1" stroke-width="3.2"/>
<circle clip-path="url(#clip822)" cx="1007.94" cy="476.66" r="7.2" fill="#009af9" fill-rule="evenodd" fill-opacity="1" stroke="#000000" stroke-opacity="1" stroke-width="3.2"/>
<circle clip-path="url(#clip822)" cx="1054.41" cy="477.106" r="7.2" fill="#009af9" fill-rule="evenodd" fill-opacity="1" stroke="#000000" stroke-opacity="1" stroke-width="3.2"/>
<circle clip-path="url(#clip822)" cx="1100.13" cy="477.512" r="7.2" fill="#009af9" fill-rule="evenodd" fill-opacity="1" stroke="#000000" stroke-opacity="1" stroke-width="3.2"/>
<circle clip-path="url(#clip822)" cx="1145.49" cy="483.754" r="7.2" fill="#009af9" fill-rule="evenodd" fill-opacity="1" stroke="#000000" stroke-opacity="1" stroke-width="3.2"/>
<circle clip-path="url(#clip822)" cx="1190.76" cy="478.625" r="7.2" fill="#009af9" fill-rule="evenodd" fill-opacity="1" stroke="#000000" stroke-opacity="1" stroke-width="3.2"/>
<circle clip-path="url(#clip822)" cx="1236.17" cy="494.573" r="7.2" fill="#009af9" fill-rule="evenodd" fill-opacity="1" stroke="#000000" stroke-opacity="1" stroke-width="3.2"/>
<circle clip-path="url(#clip822)" cx="1281.84" cy="521.2" r="7.2" fill="#009af9" fill-rule="evenodd" fill-opacity="1" stroke="#000000" stroke-opacity="1" stroke-width="3.2"/>
<circle clip-path="url(#clip822)" cx="1339.41" cy="754.334" r="7.2" fill="#009af9" fill-rule="evenodd" fill-opacity="1" stroke="#000000" stroke-opacity="1" stroke-width="3.2"/>
<circle clip-path="url(#clip822)" cx="1390.53" cy="959.62" r="7.2" fill="#009af9" fill-rule="evenodd" fill-opacity="1" stroke="#000000" stroke-opacity="1" stroke-width="3.2"/>
<circle clip-path="url(#clip822)" cx="1441.63" cy="964.03" r="7.2" fill="#009af9" fill-rule="evenodd" fill-opacity="1" stroke="#000000" stroke-opacity="1" stroke-width="3.2"/>
<circle clip-path="url(#clip822)" cx="1492.82" cy="979.156" r="7.2" fill="#009af9" fill-rule="evenodd" fill-opacity="1" stroke="#000000" stroke-opacity="1" stroke-width="3.2"/>
<circle clip-path="url(#clip822)" cx="1544.03" cy="975.708" r="7.2" fill="#009af9" fill-rule="evenodd" fill-opacity="1" stroke="#000000" stroke-opacity="1" stroke-width="3.2"/>
<circle clip-path="url(#clip822)" cx="1595.21" cy="980.067" r="7.2" fill="#009af9" fill-rule="evenodd" fill-opacity="1" stroke="#000000" stroke-opacity="1" stroke-width="3.2"/>
<circle clip-path="url(#clip822)" cx="1646.36" cy="981.555" r="7.2" fill="#009af9" fill-rule="evenodd" fill-opacity="1" stroke="#000000" stroke-opacity="1" stroke-width="3.2"/>
<circle clip-path="url(#clip822)" cx="1697.51" cy="978.144" r="7.2" fill="#009af9" fill-rule="evenodd" fill-opacity="1" stroke="#000000" stroke-opacity="1" stroke-width="3.2"/>
<circle clip-path="url(#clip822)" cx="1748.68" cy="1097.49" r="7.2" fill="#009af9" fill-rule="evenodd" fill-opacity="1" stroke="#000000" stroke-opacity="1" stroke-width="3.2"/>
<circle clip-path="url(#clip822)" cx="1799.85" cy="1289.71" r="7.2" fill="#009af9" fill-rule="evenodd" fill-opacity="1" stroke="#000000" stroke-opacity="1" stroke-width="3.2"/>
<circle clip-path="url(#clip822)" cx="1857.42" cy="1344.41" r="7.2" fill="#009af9" fill-rule="evenodd" fill-opacity="1" stroke="#000000" stroke-opacity="1" stroke-width="3.2"/>
<circle clip-path="url(#clip822)" cx="1919.5" cy="1350.29" r="7.2" fill="#009af9" fill-rule="evenodd" fill-opacity="1" stroke="#000000" stroke-opacity="1" stroke-width="3.2"/>
<circle clip-path="url(#clip822)" cx="1981.58" cy="1369.67" r="7.2" fill="#009af9" fill-rule="evenodd" fill-opacity="1" stroke="#000000" stroke-opacity="1" stroke-width="3.2"/>
<circle clip-path="url(#clip822)" cx="2043.66" cy="1372.3" r="7.2" fill="#009af9" fill-rule="evenodd" fill-opacity="1" stroke="#000000" stroke-opacity="1" stroke-width="3.2"/>
<circle clip-path="url(#clip822)" cx="2105.74" cy="1372.09" r="7.2" fill="#009af9" fill-rule="evenodd" fill-opacity="1" stroke="#000000" stroke-opacity="1" stroke-width="3.2"/>
<circle clip-path="url(#clip822)" cx="2167.82" cy="1359.82" r="7.2" fill="#009af9" fill-rule="evenodd" fill-opacity="1" stroke="#000000" stroke-opacity="1" stroke-width="3.2"/>
<circle clip-path="url(#clip822)" cx="2229.9" cy="1369.34" r="7.2" fill="#009af9" fill-rule="evenodd" fill-opacity="1" stroke="#000000" stroke-opacity="1" stroke-width="3.2"/>
<circle clip-path="url(#clip822)" cx="2291.97" cy="1358.73" r="7.2" fill="#009af9" fill-rule="evenodd" fill-opacity="1" stroke="#000000" stroke-opacity="1" stroke-width="3.2"/>
<polyline clip-path="url(#clip822)" style="stroke:#ffa500; stroke-linecap:round; stroke-linejoin:round; stroke-width:8; stroke-opacity:1; fill:none" points="815.602,2774.55 815.602,-1316.41 "/>
<polyline clip-path="url(#clip822)" style="stroke:#ff0000; stroke-linecap:round; stroke-linejoin:round; stroke-width:8; stroke-opacity:1; fill:none" points="1281.84,2774.55 1281.84,-1316.41 "/>
<polyline clip-path="url(#clip822)" style="stroke:#800080; stroke-linecap:round; stroke-linejoin:round; stroke-width:8; stroke-opacity:1; fill:none" points="1799.85,2774.55 1799.85,-1316.41 "/>
<path clip-path="url(#clip820)" d="M1734.02 611.099 L2281.17 611.099 L2281.17 92.6992 L1734.02 92.6992  Z" fill="#ffffff" fill-rule="evenodd" fill-opacity="1"/>
<polyline clip-path="url(#clip820)" style="stroke:#000000; stroke-linecap:round; stroke-linejoin:round; stroke-width:4; stroke-opacity:1; fill:none" points="1734.02,611.099 2281.17,611.099 2281.17,92.6992 1734.02,92.6992 1734.02,611.099 "/>
<polyline clip-path="url(#clip820)" style="stroke:#009af9; stroke-linecap:round; stroke-linejoin:round; stroke-width:4; stroke-opacity:1; fill:none" points="1757.88,196.379 1901.06,196.379 "/>
<circle clip-path="url(#clip820)" cx="1829.47" cy="196.379" r="9.94275" fill="#009af9" fill-rule="evenodd" fill-opacity="1" stroke="#000000" stroke-opacity="1" stroke-width="8.192"/>
<path clip-path="url(#clip820)" d="M1943.35 188.497 L1943.35 192.525 Q1941.54 191.599 1939.6 191.136 Q1937.65 190.673 1935.57 190.673 Q1932.4 190.673 1930.8 191.645 Q1929.23 192.618 1929.23 194.562 Q1929.23 196.044 1930.36 196.9 Q1931.5 197.733 1934.92 198.497 L1936.38 198.821 Q1940.92 199.794 1942.82 201.576 Q1944.74 203.335 1944.74 206.506 Q1944.74 210.118 1941.87 212.224 Q1939.02 214.33 1934.02 214.33 Q1931.94 214.33 1929.67 213.914 Q1927.42 213.52 1924.92 212.71 L1924.92 208.312 Q1927.28 209.539 1929.58 210.164 Q1931.87 210.766 1934.11 210.766 Q1937.12 210.766 1938.74 209.747 Q1940.36 208.706 1940.36 206.831 Q1940.36 205.094 1939.18 204.168 Q1938.02 203.243 1934.07 202.386 L1932.58 202.039 Q1928.63 201.206 1926.87 199.493 Q1925.11 197.756 1925.11 194.747 Q1925.11 191.09 1927.7 189.099 Q1930.29 187.108 1935.06 187.108 Q1937.42 187.108 1939.51 187.456 Q1941.59 187.803 1943.35 188.497 Z" fill="#000000" fill-rule="nonzero" fill-opacity="1" /><path clip-path="url(#clip820)" d="M1968.58 191.669 L1968.58 177.641 L1972.84 177.641 L1972.84 213.659 L1968.58 213.659 L1968.58 209.77 Q1967.24 212.085 1965.18 213.219 Q1963.14 214.33 1960.27 214.33 Q1955.57 214.33 1952.61 210.58 Q1949.67 206.831 1949.67 200.719 Q1949.67 194.608 1952.61 190.858 Q1955.57 187.108 1960.27 187.108 Q1963.14 187.108 1965.18 188.243 Q1967.24 189.354 1968.58 191.669 M1954.07 200.719 Q1954.07 205.418 1955.99 208.104 Q1957.93 210.766 1961.31 210.766 Q1964.69 210.766 1966.64 208.104 Q1968.58 205.418 1968.58 200.719 Q1968.58 196.02 1966.64 193.358 Q1964.69 190.673 1961.31 190.673 Q1957.93 190.673 1955.99 193.358 Q1954.07 196.02 1954.07 200.719 Z" fill="#000000" fill-rule="nonzero" fill-opacity="1" /><path clip-path="url(#clip820)" d="M1993.39 200.627 Q1988.23 200.627 1986.24 201.807 Q1984.25 202.988 1984.25 205.835 Q1984.25 208.104 1985.73 209.446 Q1987.24 210.766 1989.81 210.766 Q1993.35 210.766 1995.48 208.266 Q1997.63 205.743 1997.63 201.576 L1997.63 200.627 L1993.39 200.627 M2001.89 198.868 L2001.89 213.659 L1997.63 213.659 L1997.63 209.724 Q1996.17 212.085 1994 213.219 Q1991.82 214.33 1988.67 214.33 Q1984.69 214.33 1982.33 212.108 Q1979.99 209.863 1979.99 206.113 Q1979.99 201.738 1982.91 199.516 Q1985.85 197.294 1991.66 197.294 L1997.63 197.294 L1997.63 196.877 Q1997.63 193.937 1995.69 192.34 Q1993.77 190.719 1990.27 190.719 Q1988.05 190.719 1985.94 191.252 Q1983.83 191.784 1981.89 192.849 L1981.89 188.914 Q1984.23 188.011 1986.43 187.571 Q1988.63 187.108 1990.71 187.108 Q1996.33 187.108 1999.11 190.025 Q2001.89 192.942 2001.89 198.868 Z" fill="#000000" fill-rule="nonzero" fill-opacity="1" /><path clip-path="url(#clip820)" d="M2032.21 187.733 L2022.84 200.349 L2032.7 213.659 L2027.68 213.659 L2020.13 203.474 L2012.58 213.659 L2007.56 213.659 L2017.63 200.094 L2008.42 187.733 L2013.44 187.733 L2020.32 196.969 L2027.19 187.733 L2032.21 187.733 Z" fill="#000000" fill-rule="nonzero" fill-opacity="1" /><path clip-path="url(#clip820)" d="M2042.84 209.77 L2042.84 223.52 L2038.56 223.52 L2038.56 187.733 L2042.84 187.733 L2042.84 191.669 Q2044.18 189.354 2046.22 188.243 Q2048.28 187.108 2051.13 187.108 Q2055.85 187.108 2058.79 190.858 Q2061.75 194.608 2061.75 200.719 Q2061.75 206.831 2058.79 210.58 Q2055.85 214.33 2051.13 214.33 Q2048.28 214.33 2046.22 213.219 Q2044.18 212.085 2042.84 209.77 M2057.33 200.719 Q2057.33 196.02 2055.39 193.358 Q2053.46 190.673 2050.08 190.673 Q2046.7 190.673 2044.76 193.358 Q2042.84 196.02 2042.84 200.719 Q2042.84 205.418 2044.76 208.104 Q2046.7 210.766 2050.08 210.766 Q2053.46 210.766 2055.39 208.104 Q2057.33 205.418 2057.33 200.719 Z" fill="#000000" fill-rule="nonzero" fill-opacity="1" /><path clip-path="url(#clip820)" d="M2079.6 216.067 Q2077.79 220.696 2076.08 222.108 Q2074.37 223.52 2071.5 223.52 L2068.09 223.52 L2068.09 219.955 L2070.59 219.955 Q2072.35 219.955 2073.32 219.122 Q2074.3 218.289 2075.48 215.187 L2076.24 213.243 L2065.76 187.733 L2070.27 187.733 L2078.37 208.011 L2086.47 187.733 L2090.99 187.733 L2079.6 216.067 Z" fill="#000000" fill-rule="nonzero" fill-opacity="1" /><path clip-path="url(#clip820)" d="M2099.55 207.78 L2104.25 207.78 L2104.25 213.659 L2099.55 213.659 L2099.55 207.78 M2099.55 179.099 L2104.25 179.099 L2104.25 194.261 L2103.79 202.525 L2100.04 202.525 L2099.55 194.261 L2099.55 179.099 Z" fill="#000000" fill-rule="nonzero" fill-opacity="1" /><polyline clip-path="url(#clip820)" style="stroke:#ffa500; stroke-linecap:round; stroke-linejoin:round; stroke-width:8; stroke-opacity:1; fill:none" points="1757.88,300.059 1901.06,300.059 "/>
<path clip-path="url(#clip820)" d="M1924.92 256.859 L1929.6 256.859 L1929.6 287.484 L1946.43 287.484 L1946.43 291.419 L1924.92 291.419 L1924.92 256.859 Z" fill="#000000" fill-rule="nonzero" fill-opacity="1" /><path clip-path="url(#clip820)" d="M1952.56 287.484 L1960.2 287.484 L1960.2 261.118 L1951.89 262.785 L1951.89 258.526 L1960.15 256.859 L1964.83 256.859 L1964.83 287.484 L1972.47 287.484 L1972.47 291.419 L1952.56 291.419 L1952.56 287.484 Z" fill="#000000" fill-rule="nonzero" fill-opacity="1" /><path clip-path="url(#clip820)" d="M1996.94 269.892 L2026.61 269.892 L2026.61 273.78 L1996.94 273.78 L1996.94 269.892 M1996.94 279.336 L2026.61 279.336 L2026.61 283.271 L1996.94 283.271 L1996.94 279.336 Z" fill="#000000" fill-rule="nonzero" fill-opacity="1" /><path clip-path="url(#clip820)" d="M1935.55 307.287 Q1932.45 312.611 1930.94 317.82 Q1929.44 323.028 1929.44 328.375 Q1929.44 333.722 1930.94 338.977 Q1932.47 344.208 1935.55 349.509 L1931.84 349.509 Q1928.37 344.069 1926.64 338.815 Q1924.92 333.56 1924.92 328.375 Q1924.92 323.213 1926.64 317.982 Q1928.35 312.75 1931.84 307.287 L1935.55 307.287 Z" fill="#000000" fill-rule="nonzero" fill-opacity="1" /><path clip-path="url(#clip820)" d="M1944 308.699 L1948.67 308.699 L1948.67 339.324 L1965.5 339.324 L1965.5 343.259 L1944 343.259 L1944 308.699 Z" fill="#000000" fill-rule="nonzero" fill-opacity="1" /><path clip-path="url(#clip820)" d="M1971.64 339.324 L1979.27 339.324 L1979.27 312.958 L1970.96 314.625 L1970.96 310.366 L1979.23 308.699 L1983.9 308.699 L1983.9 339.324 L1991.54 339.324 L1991.54 343.259 L1971.64 343.259 L1971.64 339.324 Z" fill="#000000" fill-rule="nonzero" fill-opacity="1" /><path clip-path="url(#clip820)" d="M2007.95 308.699 L2011.89 308.699 L1999.85 347.657 L1995.92 347.657 L2007.95 308.699 Z" fill="#000000" fill-rule="nonzero" fill-opacity="1" /><path clip-path="url(#clip820)" d="M2017.77 339.324 L2025.41 339.324 L2025.41 312.958 L2017.1 314.625 L2017.1 310.366 L2025.36 308.699 L2030.04 308.699 L2030.04 339.324 L2037.68 339.324 L2037.68 343.259 L2017.77 343.259 L2017.77 339.324 Z" fill="#000000" fill-rule="nonzero" fill-opacity="1" /><path clip-path="url(#clip820)" d="M2057.12 311.778 Q2053.51 311.778 2051.68 315.343 Q2049.88 318.884 2049.88 326.014 Q2049.88 333.12 2051.68 336.685 Q2053.51 340.227 2057.12 340.227 Q2060.76 340.227 2062.56 336.685 Q2064.39 333.12 2064.39 326.014 Q2064.39 318.884 2062.56 315.343 Q2060.76 311.778 2057.12 311.778 M2057.12 308.074 Q2062.93 308.074 2065.99 312.681 Q2069.07 317.264 2069.07 326.014 Q2069.07 334.741 2065.99 339.347 Q2062.93 343.93 2057.12 343.93 Q2051.31 343.93 2048.23 339.347 Q2045.18 334.741 2045.18 326.014 Q2045.18 317.264 2048.23 312.681 Q2051.31 308.074 2057.12 308.074 Z" fill="#000000" fill-rule="nonzero" fill-opacity="1" /><path clip-path="url(#clip820)" d="M2081.31 339.324 L2097.63 339.324 L2097.63 343.259 L2075.69 343.259 L2075.69 339.324 Q2078.35 336.569 2082.93 331.94 Q2087.54 327.287 2088.72 325.944 Q2090.96 323.421 2091.84 321.685 Q2092.75 319.926 2092.75 318.236 Q2092.75 315.482 2090.8 313.745 Q2088.88 312.009 2085.78 312.009 Q2083.58 312.009 2081.13 312.773 Q2078.7 313.537 2075.92 315.088 L2075.92 310.366 Q2078.74 309.232 2081.2 308.653 Q2083.65 308.074 2085.69 308.074 Q2091.06 308.074 2094.25 310.759 Q2097.45 313.445 2097.45 317.935 Q2097.45 320.065 2096.64 321.986 Q2095.85 323.884 2093.74 326.477 Q2093.16 327.148 2090.06 330.366 Q2086.96 333.56 2081.31 339.324 Z" fill="#000000" fill-rule="nonzero" fill-opacity="1" /><path clip-path="url(#clip820)" d="M2120.29 312.773 L2108.49 331.222 L2120.29 331.222 L2120.29 312.773 M2119.07 308.699 L2124.95 308.699 L2124.95 331.222 L2129.88 331.222 L2129.88 335.111 L2124.95 335.111 L2124.95 343.259 L2120.29 343.259 L2120.29 335.111 L2104.69 335.111 L2104.69 330.597 L2119.07 308.699 Z" fill="#000000" fill-rule="nonzero" fill-opacity="1" /><path clip-path="url(#clip820)" d="M2136.33 307.287 L2140.04 307.287 Q2143.51 312.75 2145.22 317.982 Q2146.96 323.213 2146.96 328.375 Q2146.96 333.56 2145.22 338.815 Q2143.51 344.069 2140.04 349.509 L2136.33 349.509 Q2139.41 344.208 2140.92 338.977 Q2142.44 333.722 2142.44 328.375 Q2142.44 323.028 2140.92 317.82 Q2139.41 312.611 2136.33 307.287 Z" fill="#000000" fill-rule="nonzero" fill-opacity="1" /><path clip-path="url(#clip820)" d="M2170.76 308.699 L2175.43 308.699 L2175.43 323.306 L2190.94 308.699 L2196.96 308.699 L2179.81 324.81 L2198.19 343.259 L2192.03 343.259 L2175.43 326.616 L2175.43 343.259 L2170.76 343.259 L2170.76 308.699 Z" fill="#000000" fill-rule="nonzero" fill-opacity="1" /><path clip-path="url(#clip820)" d="M2201.66 317.333 L2205.92 317.333 L2205.92 343.259 L2201.66 343.259 L2201.66 317.333 M2201.66 307.241 L2205.92 307.241 L2205.92 312.634 L2201.66 312.634 L2201.66 307.241 Z" fill="#000000" fill-rule="nonzero" fill-opacity="1" /><path clip-path="url(#clip820)" d="M2219.69 326.755 L2219.69 339.417 L2227.19 339.417 Q2230.96 339.417 2232.77 337.866 Q2234.6 336.292 2234.6 333.074 Q2234.6 329.833 2232.77 328.306 Q2230.96 326.755 2227.19 326.755 L2219.69 326.755 M2219.69 312.542 L2219.69 322.958 L2226.61 322.958 Q2230.04 322.958 2231.7 321.685 Q2233.39 320.389 2233.39 317.75 Q2233.39 315.134 2231.7 313.838 Q2230.04 312.542 2226.61 312.542 L2219.69 312.542 M2215.01 308.699 L2226.96 308.699 Q2232.31 308.699 2235.2 310.921 Q2238.09 313.144 2238.09 317.241 Q2238.09 320.412 2236.61 322.287 Q2235.13 324.162 2232.26 324.625 Q2235.71 325.366 2237.61 327.727 Q2239.53 330.065 2239.53 333.583 Q2239.53 338.213 2236.38 340.736 Q2233.23 343.259 2227.42 343.259 L2215.01 343.259 L2215.01 308.699 Z" fill="#000000" fill-rule="nonzero" fill-opacity="1" /><path clip-path="url(#clip820)" d="M2246.68 307.287 L2250.38 307.287 Q2253.86 312.75 2255.57 317.982 Q2257.31 323.213 2257.31 328.375 Q2257.31 333.56 2255.57 338.815 Q2253.86 344.069 2250.38 349.509 L2246.68 349.509 Q2249.76 344.208 2251.26 338.977 Q2252.79 333.722 2252.79 328.375 Q2252.79 323.028 2251.26 317.82 Q2249.76 312.611 2246.68 307.287 Z" fill="#000000" fill-rule="nonzero" fill-opacity="1" /><polyline clip-path="url(#clip820)" style="stroke:#ff0000; stroke-linecap:round; stroke-linejoin:round; stroke-width:8; stroke-opacity:1; fill:none" points="1757.88,403.739 1901.06,403.739 "/>
<path clip-path="url(#clip820)" d="M1924.92 360.539 L1929.6 360.539 L1929.6 391.164 L1946.43 391.164 L1946.43 395.099 L1924.92 395.099 L1924.92 360.539 Z" fill="#000000" fill-rule="nonzero" fill-opacity="1" /><path clip-path="url(#clip820)" d="M1955.78 391.164 L1972.1 391.164 L1972.1 395.099 L1950.15 395.099 L1950.15 391.164 Q1952.82 388.409 1957.4 383.78 Q1962.01 379.127 1963.19 377.784 Q1965.43 375.261 1966.31 373.525 Q1967.21 371.766 1967.21 370.076 Q1967.21 367.322 1965.27 365.585 Q1963.35 363.849 1960.25 363.849 Q1958.05 363.849 1955.59 364.613 Q1953.16 365.377 1950.39 366.928 L1950.39 362.206 Q1953.21 361.072 1955.66 360.493 Q1958.12 359.914 1960.15 359.914 Q1965.52 359.914 1968.72 362.599 Q1971.91 365.285 1971.91 369.775 Q1971.91 371.905 1971.1 373.826 Q1970.32 375.724 1968.21 378.317 Q1967.63 378.988 1964.53 382.206 Q1961.43 385.4 1955.78 391.164 Z" fill="#000000" fill-rule="nonzero" fill-opacity="1" /><path clip-path="url(#clip820)" d="M1996.94 373.572 L2026.61 373.572 L2026.61 377.46 L1996.94 377.46 L1996.94 373.572 M1996.94 383.016 L2026.61 383.016 L2026.61 386.951 L1996.94 386.951 L1996.94 383.016 Z" fill="#000000" fill-rule="nonzero" fill-opacity="1" /><path clip-path="url(#clip820)" d="M1935.55 410.967 Q1932.45 416.291 1930.94 421.5 Q1929.44 426.708 1929.44 432.055 Q1929.44 437.402 1930.94 442.657 Q1932.47 447.888 1935.55 453.189 L1931.84 453.189 Q1928.37 447.749 1926.64 442.495 Q1924.92 437.24 1924.92 432.055 Q1924.92 426.893 1926.64 421.662 Q1928.35 416.43 1931.84 410.967 L1935.55 410.967 Z" fill="#000000" fill-rule="nonzero" fill-opacity="1" /><path clip-path="url(#clip820)" d="M1944 412.379 L1948.67 412.379 L1948.67 443.004 L1965.5 443.004 L1965.5 446.939 L1944 446.939 L1944 412.379 Z" fill="#000000" fill-rule="nonzero" fill-opacity="1" /><path clip-path="url(#clip820)" d="M1974.85 443.004 L1991.17 443.004 L1991.17 446.939 L1969.23 446.939 L1969.23 443.004 Q1971.89 440.249 1976.47 435.62 Q1981.08 430.967 1982.26 429.624 Q1984.51 427.101 1985.39 425.365 Q1986.29 423.606 1986.29 421.916 Q1986.29 419.162 1984.34 417.425 Q1982.42 415.689 1979.32 415.689 Q1977.12 415.689 1974.67 416.453 Q1972.24 417.217 1969.46 418.768 L1969.46 414.046 Q1972.28 412.912 1974.74 412.333 Q1977.19 411.754 1979.23 411.754 Q1984.6 411.754 1987.79 414.439 Q1990.99 417.125 1990.99 421.615 Q1990.99 423.745 1990.18 425.666 Q1989.39 427.564 1987.28 430.157 Q1986.71 430.828 1983.6 434.046 Q1980.5 437.24 1974.85 443.004 Z" fill="#000000" fill-rule="nonzero" fill-opacity="1" /><path clip-path="url(#clip820)" d="M2007.95 412.379 L2011.89 412.379 L1999.85 451.337 L1995.92 451.337 L2007.95 412.379 Z" fill="#000000" fill-rule="nonzero" fill-opacity="1" /><path clip-path="url(#clip820)" d="M2017.77 443.004 L2025.41 443.004 L2025.41 416.638 L2017.1 418.305 L2017.1 414.046 L2025.36 412.379 L2030.04 412.379 L2030.04 443.004 L2037.68 443.004 L2037.68 446.939 L2017.77 446.939 L2017.77 443.004 Z" fill="#000000" fill-rule="nonzero" fill-opacity="1" /><path clip-path="url(#clip820)" d="M2057.12 415.458 Q2053.51 415.458 2051.68 419.023 Q2049.88 422.564 2049.88 429.694 Q2049.88 436.8 2051.68 440.365 Q2053.51 443.907 2057.12 443.907 Q2060.76 443.907 2062.56 440.365 Q2064.39 436.8 2064.39 429.694 Q2064.39 422.564 2062.56 419.023 Q2060.76 415.458 2057.12 415.458 M2057.12 411.754 Q2062.93 411.754 2065.99 416.361 Q2069.07 420.944 2069.07 429.694 Q2069.07 438.421 2065.99 443.027 Q2062.93 447.61 2057.12 447.61 Q2051.31 447.61 2048.23 443.027 Q2045.18 438.421 2045.18 429.694 Q2045.18 420.944 2048.23 416.361 Q2051.31 411.754 2057.12 411.754 Z" fill="#000000" fill-rule="nonzero" fill-opacity="1" /><path clip-path="url(#clip820)" d="M2081.31 443.004 L2097.63 443.004 L2097.63 446.939 L2075.69 446.939 L2075.69 443.004 Q2078.35 440.249 2082.93 435.62 Q2087.54 430.967 2088.72 429.624 Q2090.96 427.101 2091.84 425.365 Q2092.75 423.606 2092.75 421.916 Q2092.75 419.162 2090.8 417.425 Q2088.88 415.689 2085.78 415.689 Q2083.58 415.689 2081.13 416.453 Q2078.7 417.217 2075.92 418.768 L2075.92 414.046 Q2078.74 412.912 2081.2 412.333 Q2083.65 411.754 2085.69 411.754 Q2091.06 411.754 2094.25 414.439 Q2097.45 417.125 2097.45 421.615 Q2097.45 423.745 2096.64 425.666 Q2095.85 427.564 2093.74 430.157 Q2093.16 430.828 2090.06 434.046 Q2086.96 437.24 2081.31 443.004 Z" fill="#000000" fill-rule="nonzero" fill-opacity="1" /><path clip-path="url(#clip820)" d="M2120.29 416.453 L2108.49 434.902 L2120.29 434.902 L2120.29 416.453 M2119.07 412.379 L2124.95 412.379 L2124.95 434.902 L2129.88 434.902 L2129.88 438.791 L2124.95 438.791 L2124.95 446.939 L2120.29 446.939 L2120.29 438.791 L2104.69 438.791 L2104.69 434.277 L2119.07 412.379 Z" fill="#000000" fill-rule="nonzero" fill-opacity="1" /><path clip-path="url(#clip820)" d="M2136.33 410.967 L2140.04 410.967 Q2143.51 416.43 2145.22 421.662 Q2146.96 426.893 2146.96 432.055 Q2146.96 437.24 2145.22 442.495 Q2143.51 447.749 2140.04 453.189 L2136.33 453.189 Q2139.41 447.888 2140.92 442.657 Q2142.44 437.402 2142.44 432.055 Q2142.44 426.708 2140.92 421.5 Q2139.41 416.291 2136.33 410.967 Z" fill="#000000" fill-rule="nonzero" fill-opacity="1" /><path clip-path="url(#clip820)" d="M2170.76 412.379 L2175.43 412.379 L2175.43 426.986 L2190.94 412.379 L2196.96 412.379 L2179.81 428.49 L2198.19 446.939 L2192.03 446.939 L2175.43 430.296 L2175.43 446.939 L2170.76 446.939 L2170.76 412.379 Z" fill="#000000" fill-rule="nonzero" fill-opacity="1" /><path clip-path="url(#clip820)" d="M2201.66 421.013 L2205.92 421.013 L2205.92 446.939 L2201.66 446.939 L2201.66 421.013 M2201.66 410.921 L2205.92 410.921 L2205.92 416.314 L2201.66 416.314 L2201.66 410.921 Z" fill="#000000" fill-rule="nonzero" fill-opacity="1" /><path clip-path="url(#clip820)" d="M2219.69 430.435 L2219.69 443.097 L2227.19 443.097 Q2230.96 443.097 2232.77 441.546 Q2234.6 439.972 2234.6 436.754 Q2234.6 433.513 2232.77 431.986 Q2230.96 430.435 2227.19 430.435 L2219.69 430.435 M2219.69 416.222 L2219.69 426.638 L2226.61 426.638 Q2230.04 426.638 2231.7 425.365 Q2233.39 424.069 2233.39 421.43 Q2233.39 418.814 2231.7 417.518 Q2230.04 416.222 2226.61 416.222 L2219.69 416.222 M2215.01 412.379 L2226.96 412.379 Q2232.31 412.379 2235.2 414.601 Q2238.09 416.824 2238.09 420.921 Q2238.09 424.092 2236.61 425.967 Q2235.13 427.842 2232.26 428.305 Q2235.71 429.046 2237.61 431.407 Q2239.53 433.745 2239.53 437.263 Q2239.53 441.893 2236.38 444.416 Q2233.23 446.939 2227.42 446.939 L2215.01 446.939 L2215.01 412.379 Z" fill="#000000" fill-rule="nonzero" fill-opacity="1" /><path clip-path="url(#clip820)" d="M2246.68 410.967 L2250.38 410.967 Q2253.86 416.43 2255.57 421.662 Q2257.31 426.893 2257.31 432.055 Q2257.31 437.24 2255.57 442.495 Q2253.86 447.749 2250.38 453.189 L2246.68 453.189 Q2249.76 447.888 2251.26 442.657 Q2252.79 437.402 2252.79 432.055 Q2252.79 426.708 2251.26 421.5 Q2249.76 416.291 2246.68 410.967 Z" fill="#000000" fill-rule="nonzero" fill-opacity="1" /><polyline clip-path="url(#clip820)" style="stroke:#800080; stroke-linecap:round; stroke-linejoin:round; stroke-width:8; stroke-opacity:1; fill:none" points="1757.88,507.419 1901.06,507.419 "/>
<path clip-path="url(#clip820)" d="M1924.92 464.219 L1929.6 464.219 L1929.6 494.844 L1946.43 494.844 L1946.43 498.779 L1924.92 498.779 L1924.92 464.219 Z" fill="#000000" fill-rule="nonzero" fill-opacity="1" /><path clip-path="url(#clip820)" d="M1965.92 480.145 Q1969.27 480.863 1971.15 483.131 Q1973.05 485.4 1973.05 488.733 Q1973.05 493.849 1969.53 496.65 Q1966.01 499.45 1959.53 499.45 Q1957.35 499.45 1955.04 499.011 Q1952.75 498.594 1950.29 497.738 L1950.29 493.224 Q1952.24 494.358 1954.55 494.937 Q1956.87 495.515 1959.39 495.515 Q1963.79 495.515 1966.08 493.779 Q1968.39 492.043 1968.39 488.733 Q1968.39 485.677 1966.24 483.964 Q1964.11 482.228 1960.29 482.228 L1956.27 482.228 L1956.27 478.386 L1960.48 478.386 Q1963.93 478.386 1965.76 477.02 Q1967.58 475.631 1967.58 473.039 Q1967.58 470.377 1965.69 468.965 Q1963.81 467.529 1960.29 467.529 Q1958.37 467.529 1956.17 467.946 Q1953.97 468.363 1951.33 469.242 L1951.33 465.076 Q1954 464.335 1956.31 463.965 Q1958.65 463.594 1960.71 463.594 Q1966.03 463.594 1969.14 466.025 Q1972.24 468.432 1972.24 472.552 Q1972.24 475.423 1970.59 477.414 Q1968.95 479.381 1965.92 480.145 Z" fill="#000000" fill-rule="nonzero" fill-opacity="1" /><path clip-path="url(#clip820)" d="M1996.94 477.252 L2026.61 477.252 L2026.61 481.14 L1996.94 481.14 L1996.94 477.252 M1996.94 486.696 L2026.61 486.696 L2026.61 490.631 L1996.94 490.631 L1996.94 486.696 Z" fill="#000000" fill-rule="nonzero" fill-opacity="1" /><path clip-path="url(#clip820)" d="M1935.55 514.647 Q1932.45 519.971 1930.94 525.18 Q1929.44 530.388 1929.44 535.735 Q1929.44 541.082 1930.94 546.337 Q1932.47 551.568 1935.55 556.869 L1931.84 556.869 Q1928.37 551.429 1926.64 546.175 Q1924.92 540.92 1924.92 535.735 Q1924.92 530.573 1926.64 525.342 Q1928.35 520.11 1931.84 514.647 L1935.55 514.647 Z" fill="#000000" fill-rule="nonzero" fill-opacity="1" /><path clip-path="url(#clip820)" d="M1944 516.059 L1948.67 516.059 L1948.67 546.684 L1965.5 546.684 L1965.5 550.619 L1944 550.619 L1944 516.059 Z" fill="#000000" fill-rule="nonzero" fill-opacity="1" /><path clip-path="url(#clip820)" d="M1984.99 531.985 Q1988.35 532.703 1990.22 534.971 Q1992.12 537.24 1992.12 540.573 Q1992.12 545.689 1988.6 548.49 Q1985.08 551.29 1978.6 551.29 Q1976.43 551.29 1974.11 550.851 Q1971.82 550.434 1969.37 549.578 L1969.37 545.064 Q1971.31 546.198 1973.63 546.777 Q1975.94 547.355 1978.46 547.355 Q1982.86 547.355 1985.15 545.619 Q1987.47 543.883 1987.47 540.573 Q1987.47 537.517 1985.32 535.804 Q1983.19 534.068 1979.37 534.068 L1975.34 534.068 L1975.34 530.226 L1979.55 530.226 Q1983 530.226 1984.83 528.86 Q1986.66 527.471 1986.66 524.879 Q1986.66 522.217 1984.76 520.805 Q1982.89 519.369 1979.37 519.369 Q1977.45 519.369 1975.25 519.786 Q1973.05 520.203 1970.41 521.082 L1970.41 516.916 Q1973.07 516.175 1975.39 515.805 Q1977.72 515.434 1979.78 515.434 Q1985.11 515.434 1988.21 517.865 Q1991.31 520.272 1991.31 524.392 Q1991.31 527.263 1989.67 529.254 Q1988.02 531.221 1984.99 531.985 Z" fill="#000000" fill-rule="nonzero" fill-opacity="1" /><path clip-path="url(#clip820)" d="M2007.95 516.059 L2011.89 516.059 L1999.85 555.017 L1995.92 555.017 L2007.95 516.059 Z" fill="#000000" fill-rule="nonzero" fill-opacity="1" /><path clip-path="url(#clip820)" d="M2017.77 546.684 L2025.41 546.684 L2025.41 520.318 L2017.1 521.985 L2017.1 517.726 L2025.36 516.059 L2030.04 516.059 L2030.04 546.684 L2037.68 546.684 L2037.68 550.619 L2017.77 550.619 L2017.77 546.684 Z" fill="#000000" fill-rule="nonzero" fill-opacity="1" /><path clip-path="url(#clip820)" d="M2057.12 519.138 Q2053.51 519.138 2051.68 522.703 Q2049.88 526.244 2049.88 533.374 Q2049.88 540.48 2051.68 544.045 Q2053.51 547.587 2057.12 547.587 Q2060.76 547.587 2062.56 544.045 Q2064.39 540.48 2064.39 533.374 Q2064.39 526.244 2062.56 522.703 Q2060.76 519.138 2057.12 519.138 M2057.12 515.434 Q2062.93 515.434 2065.99 520.041 Q2069.07 524.624 2069.07 533.374 Q2069.07 542.101 2065.99 546.707 Q2062.93 551.29 2057.12 551.29 Q2051.31 551.29 2048.23 546.707 Q2045.18 542.101 2045.18 533.374 Q2045.18 524.624 2048.23 520.041 Q2051.31 515.434 2057.12 515.434 Z" fill="#000000" fill-rule="nonzero" fill-opacity="1" /><path clip-path="url(#clip820)" d="M2081.31 546.684 L2097.63 546.684 L2097.63 550.619 L2075.69 550.619 L2075.69 546.684 Q2078.35 543.929 2082.93 539.3 Q2087.54 534.647 2088.72 533.304 Q2090.96 530.781 2091.84 529.045 Q2092.75 527.286 2092.75 525.596 Q2092.75 522.842 2090.8 521.105 Q2088.88 519.369 2085.78 519.369 Q2083.58 519.369 2081.13 520.133 Q2078.7 520.897 2075.92 522.448 L2075.92 517.726 Q2078.74 516.592 2081.2 516.013 Q2083.65 515.434 2085.69 515.434 Q2091.06 515.434 2094.25 518.119 Q2097.45 520.805 2097.45 525.295 Q2097.45 527.425 2096.64 529.346 Q2095.85 531.244 2093.74 533.837 Q2093.16 534.508 2090.06 537.726 Q2086.96 540.92 2081.31 546.684 Z" fill="#000000" fill-rule="nonzero" fill-opacity="1" /><path clip-path="url(#clip820)" d="M2120.29 520.133 L2108.49 538.582 L2120.29 538.582 L2120.29 520.133 M2119.07 516.059 L2124.95 516.059 L2124.95 538.582 L2129.88 538.582 L2129.88 542.471 L2124.95 542.471 L2124.95 550.619 L2120.29 550.619 L2120.29 542.471 L2104.69 542.471 L2104.69 537.957 L2119.07 516.059 Z" fill="#000000" fill-rule="nonzero" fill-opacity="1" /><path clip-path="url(#clip820)" d="M2136.33 514.647 L2140.04 514.647 Q2143.51 520.11 2145.22 525.342 Q2146.96 530.573 2146.96 535.735 Q2146.96 540.92 2145.22 546.175 Q2143.51 551.429 2140.04 556.869 L2136.33 556.869 Q2139.41 551.568 2140.92 546.337 Q2142.44 541.082 2142.44 535.735 Q2142.44 530.388 2140.92 525.18 Q2139.41 519.971 2136.33 514.647 Z" fill="#000000" fill-rule="nonzero" fill-opacity="1" /><path clip-path="url(#clip820)" d="M2170.76 516.059 L2175.43 516.059 L2175.43 530.666 L2190.94 516.059 L2196.96 516.059 L2179.81 532.17 L2198.19 550.619 L2192.03 550.619 L2175.43 533.976 L2175.43 550.619 L2170.76 550.619 L2170.76 516.059 Z" fill="#000000" fill-rule="nonzero" fill-opacity="1" /><path clip-path="url(#clip820)" d="M2201.66 524.693 L2205.92 524.693 L2205.92 550.619 L2201.66 550.619 L2201.66 524.693 M2201.66 514.601 L2205.92 514.601 L2205.92 519.994 L2201.66 519.994 L2201.66 514.601 Z" fill="#000000" fill-rule="nonzero" fill-opacity="1" /><path clip-path="url(#clip820)" d="M2219.69 534.115 L2219.69 546.777 L2227.19 546.777 Q2230.96 546.777 2232.77 545.226 Q2234.6 543.652 2234.6 540.434 Q2234.6 537.193 2232.77 535.666 Q2230.96 534.115 2227.19 534.115 L2219.69 534.115 M2219.69 519.902 L2219.69 530.318 L2226.61 530.318 Q2230.04 530.318 2231.7 529.045 Q2233.39 527.749 2233.39 525.11 Q2233.39 522.494 2231.7 521.198 Q2230.04 519.902 2226.61 519.902 L2219.69 519.902 M2215.01 516.059 L2226.96 516.059 Q2232.31 516.059 2235.2 518.281 Q2238.09 520.504 2238.09 524.601 Q2238.09 527.772 2236.61 529.647 Q2235.13 531.522 2232.26 531.985 Q2235.71 532.726 2237.61 535.087 Q2239.53 537.425 2239.53 540.943 Q2239.53 545.573 2236.38 548.096 Q2233.23 550.619 2227.42 550.619 L2215.01 550.619 L2215.01 516.059 Z" fill="#000000" fill-rule="nonzero" fill-opacity="1" /><path clip-path="url(#clip820)" d="M2246.68 514.647 L2250.38 514.647 Q2253.86 520.11 2255.57 525.342 Q2257.31 530.573 2257.31 535.735 Q2257.31 540.92 2255.57 546.175 Q2253.86 551.429 2250.38 556.869 L2246.68 556.869 Q2249.76 551.568 2251.26 546.337 Q2252.79 541.082 2252.79 535.735 Q2252.79 530.388 2251.26 525.18 Q2249.76 519.971 2246.68 514.647 Z" fill="#000000" fill-rule="nonzero" fill-opacity="1" /></svg>
