<?xml version="1.0" encoding="utf-8"?>
<svg xmlns="http://www.w3.org/2000/svg" xmlns:xlink="http://www.w3.org/1999/xlink" width="700" height="450" viewBox="0 0 2800 1800">
<defs>
  <clipPath id="clip800">
    <rect x="0" y="0" width="2800" height="1800"/>
  </clipPath>
</defs>
<path clip-path="url(#clip800)" d="M0 1800 L2800 1800 L2800 -2.27374e-13 L0 -2.27374e-13  Z" fill="#ffffff" fill-rule="evenodd" fill-opacity="1"/>
<defs>
  <clipPath id="clip801">
    <rect x="560" y="0" width="1961" height="1800"/>
  </clipPath>
</defs>
<path clip-path="url(#clip800)" d="M286.692 1599.12 L2752.76 1599.12 L2752.76 47.2441 L286.692 47.2441  Z" fill="#ffffff" fill-rule="evenodd" fill-opacity="1"/>
<defs>
  <clipPath id="clip802">
    <rect x="286" y="47" width="2467" height="1553"/>
  </clipPath>
</defs>
<polyline clip-path="url(#clip802)" style="stroke:#000000; stroke-linecap:round; stroke-linejoin:round; stroke-width:2; stroke-opacity:0.1; fill:none" points="337.02,1599.12 337.02,47.2441 "/>
<polyline clip-path="url(#clip802)" style="stroke:#000000; stroke-linecap:round; stroke-linejoin:round; stroke-width:2; stroke-opacity:0.1; fill:none" points="890.626,1599.12 890.626,47.2441 "/>
<polyline clip-path="url(#clip802)" style="stroke:#000000; stroke-linecap:round; stroke-linejoin:round; stroke-width:2; stroke-opacity:0.1; fill:none" points="1494.56,1599.12 1494.56,47.2441 "/>
<polyline clip-path="url(#clip802)" style="stroke:#000000; stroke-linecap:round; stroke-linejoin:round; stroke-width:2; stroke-opacity:0.1; fill:none" points="2702.43,1599.12 2702.43,47.2441 "/>
<polyline clip-path="url(#clip802)" style="stroke:#000000; stroke-linecap:round; stroke-linejoin:round; stroke-width:2; stroke-opacity:0.1; fill:none" points="337.02,1599.12 337.02,47.2441 "/>
<polyline clip-path="url(#clip802)" style="stroke:#000000; stroke-linecap:round; stroke-linejoin:round; stroke-width:2; stroke-opacity:0.1; fill:none" points="890.626,1599.12 890.626,47.2441 "/>
<polyline clip-path="url(#clip802)" style="stroke:#000000; stroke-linecap:round; stroke-linejoin:round; stroke-width:2; stroke-opacity:0.1; fill:none" points="1494.56,1599.12 1494.56,47.2441 "/>
<polyline clip-path="url(#clip802)" style="stroke:#000000; stroke-linecap:round; stroke-linejoin:round; stroke-width:2; stroke-opacity:0.1; fill:none" points="2702.43,1599.12 2702.43,47.2441 "/>
<polyline clip-path="url(#clip802)" style="stroke:#000000; stroke-linecap:round; stroke-linejoin:round; stroke-width:2; stroke-opacity:0.1; fill:none" points="286.692,1339.37 2752.76,1339.37 "/>
<polyline clip-path="url(#clip802)" style="stroke:#000000; stroke-linecap:round; stroke-linejoin:round; stroke-width:2; stroke-opacity:0.1; fill:none" points="286.692,964.013 2752.76,964.013 "/>
<polyline clip-path="url(#clip802)" style="stroke:#000000; stroke-linecap:round; stroke-linejoin:round; stroke-width:2; stroke-opacity:0.1; fill:none" points="286.692,588.659 2752.76,588.659 "/>
<polyline clip-path="url(#clip802)" style="stroke:#000000; stroke-linecap:round; stroke-linejoin:round; stroke-width:2; stroke-opacity:0.1; fill:none" points="286.692,213.305 2752.76,213.305 "/>
<polyline clip-path="url(#clip802)" style="stroke:#000000; stroke-linecap:round; stroke-linejoin:round; stroke-width:2; stroke-opacity:0.1; fill:none" points="286.692,1339.37 2752.76,1339.37 "/>
<polyline clip-path="url(#clip802)" style="stroke:#000000; stroke-linecap:round; stroke-linejoin:round; stroke-width:2; stroke-opacity:0.1; fill:none" points="286.692,964.013 2752.76,964.013 "/>
<polyline clip-path="url(#clip802)" style="stroke:#000000; stroke-linecap:round; stroke-linejoin:round; stroke-width:2; stroke-opacity:0.1; fill:none" points="286.692,588.659 2752.76,588.659 "/>
<polyline clip-path="url(#clip802)" style="stroke:#000000; stroke-linecap:round; stroke-linejoin:round; stroke-width:2; stroke-opacity:0.1; fill:none" points="286.692,213.305 2752.76,213.305 "/>
<polyline clip-path="url(#clip800)" style="stroke:#000000; stroke-linecap:round; stroke-linejoin:round; stroke-width:4; stroke-opacity:1; fill:none" points="286.692,1599.12 2752.76,1599.12 "/>
<polyline clip-path="url(#clip800)" style="stroke:#000000; stroke-linecap:round; stroke-linejoin:round; stroke-width:4; stroke-opacity:1; fill:none" points="286.692,47.2441 2752.76,47.2441 "/>
<polyline clip-path="url(#clip800)" style="stroke:#000000; stroke-linecap:round; stroke-linejoin:round; stroke-width:4; stroke-opacity:1; fill:none" points="337.02,1599.12 337.02,1580.22 "/>
<polyline clip-path="url(#clip800)" style="stroke:#000000; stroke-linecap:round; stroke-linejoin:round; stroke-width:4; stroke-opacity:1; fill:none" points="890.626,1599.12 890.626,1580.22 "/>
<polyline clip-path="url(#clip800)" style="stroke:#000000; stroke-linecap:round; stroke-linejoin:round; stroke-width:4; stroke-opacity:1; fill:none" points="1494.56,1599.12 1494.56,1580.22 "/>
<polyline clip-path="url(#clip800)" style="stroke:#000000; stroke-linecap:round; stroke-linejoin:round; stroke-width:4; stroke-opacity:1; fill:none" points="2702.43,1599.12 2702.43,1580.22 "/>
<polyline clip-path="url(#clip800)" style="stroke:#000000; stroke-linecap:round; stroke-linejoin:round; stroke-width:4; stroke-opacity:1; fill:none" points="337.02,47.2441 337.02,66.1417 "/>
<polyline clip-path="url(#clip800)" style="stroke:#000000; stroke-linecap:round; stroke-linejoin:round; stroke-width:4; stroke-opacity:1; fill:none" points="890.626,47.2441 890.626,66.1417 "/>
<polyline clip-path="url(#clip800)" style="stroke:#000000; stroke-linecap:round; stroke-linejoin:round; stroke-width:4; stroke-opacity:1; fill:none" points="1494.56,47.2441 1494.56,66.1417 "/>
<polyline clip-path="url(#clip800)" style="stroke:#000000; stroke-linecap:round; stroke-linejoin:round; stroke-width:4; stroke-opacity:1; fill:none" points="2702.43,47.2441 2702.43,66.1417 "/>
<path clip-path="url(#clip800)" d="M322.593 1680.41 L334.051 1680.41 L334.051 1640.87 L321.586 1643.37 L321.586 1636.98 L333.982 1634.48 L340.996 1634.48 L340.996 1680.41 L352.454 1680.41 L352.454 1686.32 L322.593 1686.32 L322.593 1680.41 Z" fill="#000000" fill-rule="nonzero" fill-opacity="1" /><path clip-path="url(#clip800)" d="M853.856 1680.41 L865.314 1680.41 L865.314 1640.87 L852.849 1643.37 L852.849 1636.98 L865.244 1634.48 L872.258 1634.48 L872.258 1680.41 L883.717 1680.41 L883.717 1686.32 L853.856 1686.32 L853.856 1680.41 Z" fill="#000000" fill-rule="nonzero" fill-opacity="1" /><path clip-path="url(#clip800)" d="M903.925 1680.41 L928.404 1680.41 L928.404 1686.32 L895.487 1686.32 L895.487 1680.41 Q899.48 1676.28 906.355 1669.34 Q913.265 1662.36 915.036 1660.34 Q918.404 1656.56 919.723 1653.96 Q921.078 1651.32 921.078 1648.78 Q921.078 1644.65 918.161 1642.05 Q915.279 1639.44 910.626 1639.44 Q907.328 1639.44 903.647 1640.59 Q900.001 1641.73 895.835 1644.06 L895.835 1636.98 Q900.071 1635.28 903.751 1634.41 Q907.432 1633.54 910.487 1633.54 Q918.543 1633.54 923.334 1637.57 Q928.126 1641.6 928.126 1648.33 Q928.126 1651.53 926.911 1654.41 Q925.73 1657.25 922.571 1661.14 Q921.703 1662.15 917.05 1666.98 Q912.397 1671.77 903.925 1680.41 Z" fill="#000000" fill-rule="nonzero" fill-opacity="1" /><path clip-path="url(#clip800)" d="M1462.36 1680.41 L1486.83 1680.41 L1486.83 1686.32 L1453.92 1686.32 L1453.92 1680.41 Q1457.91 1676.28 1464.79 1669.34 Q1471.7 1662.36 1473.47 1660.34 Q1476.83 1656.56 1478.15 1653.96 Q1479.51 1651.32 1479.51 1648.78 Q1479.51 1644.65 1476.59 1642.05 Q1473.71 1639.44 1469.06 1639.44 Q1465.76 1639.44 1462.08 1640.59 Q1458.43 1641.73 1454.27 1644.06 L1454.27 1636.98 Q1458.5 1635.28 1462.18 1634.41 Q1465.86 1633.54 1468.92 1633.54 Q1476.97 1633.54 1481.77 1637.57 Q1486.56 1641.6 1486.56 1648.33 Q1486.56 1651.53 1485.34 1654.41 Q1484.16 1657.25 1481 1661.14 Q1480.13 1662.15 1475.48 1666.98 Q1470.83 1671.77 1462.36 1680.41 Z" fill="#000000" fill-rule="nonzero" fill-opacity="1" /><path clip-path="url(#clip800)" d="M1520.83 1640.59 L1503.12 1668.26 L1520.83 1668.26 L1520.83 1640.59 M1518.99 1634.48 L1527.81 1634.48 L1527.81 1668.26 L1535.2 1668.26 L1535.2 1674.09 L1527.81 1674.09 L1527.81 1686.32 L1520.83 1686.32 L1520.83 1674.09 L1497.42 1674.09 L1497.42 1667.32 L1518.99 1634.48 Z" fill="#000000" fill-rule="nonzero" fill-opacity="1" /><path clip-path="url(#clip800)" d="M2684.75 1640.59 L2667.05 1668.26 L2684.75 1668.26 L2684.75 1640.59 M2682.91 1634.48 L2691.73 1634.48 L2691.73 1668.26 L2699.13 1668.26 L2699.13 1674.09 L2691.73 1674.09 L2691.73 1686.32 L2684.75 1686.32 L2684.75 1674.09 L2661.35 1674.09 L2661.35 1667.32 L2682.91 1634.48 Z" fill="#000000" fill-rule="nonzero" fill-opacity="1" /><path clip-path="url(#clip800)" d="M2725.73 1661.7 Q2720.73 1661.7 2717.84 1664.37 Q2715 1667.05 2715 1671.73 Q2715 1676.42 2717.84 1679.09 Q2720.73 1681.77 2725.73 1681.77 Q2730.73 1681.77 2733.61 1679.09 Q2736.49 1676.39 2736.49 1671.73 Q2736.49 1667.05 2733.61 1664.37 Q2730.76 1661.7 2725.73 1661.7 M2718.71 1658.71 Q2714.2 1657.6 2711.66 1654.51 Q2709.16 1651.42 2709.16 1646.98 Q2709.16 1640.76 2713.57 1637.15 Q2718.02 1633.54 2725.73 1633.54 Q2733.47 1633.54 2737.88 1637.15 Q2742.29 1640.76 2742.29 1646.98 Q2742.29 1651.42 2739.75 1654.51 Q2737.25 1657.6 2732.78 1658.71 Q2737.84 1659.89 2740.66 1663.33 Q2743.5 1666.77 2743.5 1671.73 Q2743.5 1679.27 2738.89 1683.3 Q2734.3 1687.32 2725.73 1687.32 Q2717.15 1687.32 2712.53 1683.3 Q2707.95 1679.27 2707.95 1671.73 Q2707.95 1666.77 2710.8 1663.33 Q2713.64 1659.89 2718.71 1658.71 M2716.14 1647.64 Q2716.14 1651.66 2718.64 1653.92 Q2721.18 1656.18 2725.73 1656.18 Q2730.24 1656.18 2732.78 1653.92 Q2735.34 1651.66 2735.34 1647.64 Q2735.34 1643.61 2732.78 1641.35 Q2730.24 1639.1 2725.73 1639.1 Q2721.18 1639.1 2718.64 1641.35 Q2716.14 1643.61 2716.14 1647.64 Z" fill="#000000" fill-rule="nonzero" fill-opacity="1" /><path clip-path="url(#clip800)" d="M1202.12 1760.84 L1202.12 1786.27 L1195.2 1786.27 L1195.2 1761.07 Q1195.2 1755.09 1192.86 1752.11 Q1190.53 1749.14 1185.87 1749.14 Q1180.26 1749.14 1177.03 1752.72 Q1173.79 1756.29 1173.79 1762.46 L1173.79 1786.27 L1166.83 1786.27 L1166.83 1744.14 L1173.79 1744.14 L1173.79 1750.68 Q1176.28 1746.89 1179.62 1745 Q1183.01 1743.12 1187.41 1743.12 Q1194.67 1743.12 1198.39 1747.64 Q1202.12 1752.11 1202.12 1760.84 Z" fill="#000000" fill-rule="nonzero" fill-opacity="1" /><path clip-path="url(#clip800)" d="M1215.21 1769.64 L1215.21 1744.14 L1222.13 1744.14 L1222.13 1769.38 Q1222.13 1775.36 1224.46 1778.37 Q1226.79 1781.34 1231.46 1781.34 Q1237.06 1781.34 1240.3 1777.77 Q1243.57 1774.19 1243.57 1768.03 L1243.57 1744.14 L1250.49 1744.14 L1250.49 1786.27 L1243.57 1786.27 L1243.57 1779.8 Q1241.05 1783.64 1237.7 1785.52 Q1234.39 1787.36 1229.99 1787.36 Q1222.73 1787.36 1218.97 1782.85 Q1215.21 1778.33 1215.21 1769.64 M1232.62 1743.12 L1232.62 1743.12 Z" fill="#000000" fill-rule="nonzero" fill-opacity="1" /><path clip-path="url(#clip800)" d="M1297.55 1752.23 Q1300.14 1747.56 1303.75 1745.34 Q1307.37 1743.12 1312.26 1743.12 Q1318.84 1743.12 1322.41 1747.75 Q1325.99 1752.34 1325.99 1760.84 L1325.99 1786.27 L1319.03 1786.27 L1319.03 1761.07 Q1319.03 1755.01 1316.88 1752.08 Q1314.74 1749.14 1310.34 1749.14 Q1304.96 1749.14 1301.84 1752.72 Q1298.71 1756.29 1298.71 1762.46 L1298.71 1786.27 L1291.76 1786.27 L1291.76 1761.07 Q1291.76 1754.97 1289.61 1752.08 Q1287.47 1749.14 1282.99 1749.14 Q1277.69 1749.14 1274.56 1752.75 Q1271.44 1756.33 1271.44 1762.46 L1271.44 1786.27 L1264.48 1786.27 L1264.48 1744.14 L1271.44 1744.14 L1271.44 1750.68 Q1273.81 1746.81 1277.12 1744.97 Q1280.43 1743.12 1284.98 1743.12 Q1289.57 1743.12 1292.77 1745.46 Q1296.01 1747.79 1297.55 1752.23 Z" fill="#000000" fill-rule="nonzero" fill-opacity="1" /><path clip-path="url(#clip800)" d="M1370.03 1765.24 Q1370.03 1757.61 1366.87 1753.28 Q1363.75 1748.92 1358.26 1748.92 Q1352.77 1748.92 1349.61 1753.28 Q1346.49 1757.61 1346.49 1765.24 Q1346.49 1772.88 1349.61 1777.24 Q1352.77 1781.57 1358.26 1781.57 Q1363.75 1781.57 1366.87 1777.24 Q1370.03 1772.88 1370.03 1765.24 M1346.49 1750.53 Q1348.67 1746.77 1351.98 1744.97 Q1355.33 1743.12 1359.95 1743.12 Q1367.63 1743.12 1372.4 1749.22 Q1377.22 1755.31 1377.22 1765.24 Q1377.22 1775.17 1372.4 1781.27 Q1367.63 1787.36 1359.95 1787.36 Q1355.33 1787.36 1351.98 1785.55 Q1348.67 1783.71 1346.49 1779.95 L1346.49 1786.27 L1339.53 1786.27 L1339.53 1727.74 L1346.49 1727.74 L1346.49 1750.53 Z" fill="#000000" fill-rule="nonzero" fill-opacity="1" /><path clip-path="url(#clip800)" d="M1424.73 1763.47 L1424.73 1766.86 L1392.9 1766.86 Q1393.35 1774.01 1397.19 1777.77 Q1401.07 1781.49 1407.95 1781.49 Q1411.94 1781.49 1415.66 1780.51 Q1419.42 1779.54 1423.11 1777.58 L1423.11 1784.12 Q1419.38 1785.7 1415.47 1786.53 Q1411.56 1787.36 1407.54 1787.36 Q1397.45 1787.36 1391.55 1781.49 Q1385.68 1775.62 1385.68 1765.62 Q1385.68 1755.27 1391.25 1749.22 Q1396.85 1743.12 1406.33 1743.12 Q1414.83 1743.12 1419.76 1748.62 Q1424.73 1754.07 1424.73 1763.47 M1417.8 1761.44 Q1417.73 1755.76 1414.61 1752.38 Q1411.52 1748.99 1406.41 1748.99 Q1400.61 1748.99 1397.12 1752.26 Q1393.66 1755.54 1393.13 1761.48 L1417.8 1761.44 Z" fill="#000000" fill-rule="nonzero" fill-opacity="1" /><path clip-path="url(#clip800)" d="M1460.5 1750.61 Q1459.33 1749.93 1457.94 1749.63 Q1456.59 1749.29 1454.93 1749.29 Q1449.06 1749.29 1445.9 1753.13 Q1442.78 1756.93 1442.78 1764.08 L1442.78 1786.27 L1435.82 1786.27 L1435.82 1744.14 L1442.78 1744.14 L1442.78 1750.68 Q1444.96 1746.85 1448.46 1745 Q1451.96 1743.12 1456.96 1743.12 Q1457.68 1743.12 1458.54 1743.24 Q1459.41 1743.31 1460.46 1743.5 L1460.5 1750.61 Z" fill="#000000" fill-rule="nonzero" fill-opacity="1" /><path clip-path="url(#clip800)" d="M1508.57 1748.99 Q1503 1748.99 1499.77 1753.36 Q1496.53 1757.68 1496.53 1765.24 Q1496.53 1772.8 1499.73 1777.17 Q1502.97 1781.49 1508.57 1781.49 Q1514.1 1781.49 1517.34 1777.13 Q1520.57 1772.77 1520.57 1765.24 Q1520.57 1757.76 1517.34 1753.39 Q1514.1 1748.99 1508.57 1748.99 M1508.57 1743.12 Q1517.6 1743.12 1522.75 1748.99 Q1527.91 1754.86 1527.91 1765.24 Q1527.91 1775.59 1522.75 1781.49 Q1517.6 1787.36 1508.57 1787.36 Q1499.51 1787.36 1494.35 1781.49 Q1489.24 1775.59 1489.24 1765.24 Q1489.24 1754.86 1494.35 1748.99 Q1499.51 1743.12 1508.57 1743.12 Z" fill="#000000" fill-rule="nonzero" fill-opacity="1" /><path clip-path="url(#clip800)" d="M1560.71 1727.74 L1560.71 1733.49 L1554.09 1733.49 Q1550.36 1733.49 1548.89 1735 Q1547.47 1736.5 1547.47 1740.42 L1547.47 1744.14 L1558.86 1744.14 L1558.86 1749.52 L1547.47 1749.52 L1547.47 1786.27 L1540.51 1786.27 L1540.51 1749.52 L1533.89 1749.52 L1533.89 1744.14 L1540.51 1744.14 L1540.51 1741.21 Q1540.51 1734.17 1543.78 1730.97 Q1547.05 1727.74 1554.16 1727.74 L1560.71 1727.74 Z" fill="#000000" fill-rule="nonzero" fill-opacity="1" /><path clip-path="url(#clip800)" d="M1597.83 1732.18 L1597.83 1744.14 L1612.09 1744.14 L1612.09 1749.52 L1597.83 1749.52 L1597.83 1772.39 Q1597.83 1777.54 1599.22 1779.01 Q1600.65 1780.48 1604.98 1780.48 L1612.09 1780.48 L1612.09 1786.27 L1604.98 1786.27 Q1596.97 1786.27 1593.92 1783.3 Q1590.87 1780.29 1590.87 1772.39 L1590.87 1749.52 L1585.8 1749.52 L1585.8 1744.14 L1590.87 1744.14 L1590.87 1732.18 L1597.83 1732.18 Z" fill="#000000" fill-rule="nonzero" fill-opacity="1" /><path clip-path="url(#clip800)" d="M1656.21 1760.84 L1656.21 1786.27 L1649.29 1786.27 L1649.29 1761.07 Q1649.29 1755.09 1646.96 1752.11 Q1644.63 1749.14 1639.96 1749.14 Q1634.36 1749.14 1631.12 1752.72 Q1627.89 1756.29 1627.89 1762.46 L1627.89 1786.27 L1620.93 1786.27 L1620.93 1727.74 L1627.89 1727.74 L1627.89 1750.68 Q1630.37 1746.89 1633.72 1745 Q1637.1 1743.12 1641.5 1743.12 Q1648.76 1743.12 1652.49 1747.64 Q1656.21 1752.11 1656.21 1760.84 Z" fill="#000000" fill-rule="nonzero" fill-opacity="1" /><path clip-path="url(#clip800)" d="M1694.43 1750.61 Q1693.26 1749.93 1691.87 1749.63 Q1690.52 1749.29 1688.86 1749.29 Q1682.99 1749.29 1679.83 1753.13 Q1676.71 1756.93 1676.71 1764.08 L1676.71 1786.27 L1669.75 1786.27 L1669.75 1744.14 L1676.71 1744.14 L1676.71 1750.68 Q1678.89 1746.85 1682.39 1745 Q1685.89 1743.12 1690.89 1743.12 Q1691.61 1743.12 1692.47 1743.24 Q1693.34 1743.31 1694.39 1743.5 L1694.43 1750.61 Z" fill="#000000" fill-rule="nonzero" fill-opacity="1" /><path clip-path="url(#clip800)" d="M1736.03 1763.47 L1736.03 1766.86 L1704.21 1766.86 Q1704.66 1774.01 1708.5 1777.77 Q1712.37 1781.49 1719.26 1781.49 Q1723.24 1781.49 1726.97 1780.51 Q1730.73 1779.54 1734.41 1777.58 L1734.41 1784.12 Q1730.69 1785.7 1726.78 1786.53 Q1722.87 1787.36 1718.84 1787.36 Q1708.76 1787.36 1702.86 1781.49 Q1696.99 1775.62 1696.99 1765.62 Q1696.99 1755.27 1702.55 1749.22 Q1708.16 1743.12 1717.64 1743.12 Q1726.14 1743.12 1731.07 1748.62 Q1736.03 1754.07 1736.03 1763.47 M1729.11 1761.44 Q1729.04 1755.76 1725.91 1752.38 Q1722.83 1748.99 1717.71 1748.99 Q1711.92 1748.99 1708.42 1752.26 Q1704.96 1755.54 1704.44 1761.48 L1729.11 1761.44 Z" fill="#000000" fill-rule="nonzero" fill-opacity="1" /><path clip-path="url(#clip800)" d="M1766.54 1765.09 Q1758.15 1765.09 1754.92 1767.01 Q1751.68 1768.93 1751.68 1773.55 Q1751.68 1777.24 1754.09 1779.42 Q1756.53 1781.57 1760.71 1781.57 Q1766.46 1781.57 1769.92 1777.5 Q1773.42 1773.4 1773.42 1766.63 L1773.42 1765.09 L1766.54 1765.09 M1780.34 1762.23 L1780.34 1786.27 L1773.42 1786.27 L1773.42 1779.87 Q1771.05 1783.71 1767.52 1785.55 Q1763.98 1787.36 1758.86 1787.36 Q1752.4 1787.36 1748.56 1783.75 Q1744.76 1780.1 1744.76 1774.01 Q1744.76 1766.9 1749.5 1763.29 Q1754.28 1759.67 1763.72 1759.67 L1773.42 1759.67 L1773.42 1759 Q1773.42 1754.22 1770.26 1751.63 Q1767.14 1748.99 1761.46 1748.99 Q1757.85 1748.99 1754.43 1749.86 Q1751 1750.72 1747.84 1752.45 L1747.84 1746.06 Q1751.64 1744.59 1755.22 1743.88 Q1758.79 1743.12 1762.18 1743.12 Q1771.32 1743.12 1775.83 1747.86 Q1780.34 1752.6 1780.34 1762.23 Z" fill="#000000" fill-rule="nonzero" fill-opacity="1" /><path clip-path="url(#clip800)" d="M1822.32 1750.53 L1822.32 1727.74 L1829.24 1727.74 L1829.24 1786.27 L1822.32 1786.27 L1822.32 1779.95 Q1820.14 1783.71 1816.79 1785.55 Q1813.48 1787.36 1808.82 1787.36 Q1801.18 1787.36 1796.37 1781.27 Q1791.59 1775.17 1791.59 1765.24 Q1791.59 1755.31 1796.37 1749.22 Q1801.18 1743.12 1808.82 1743.12 Q1813.48 1743.12 1816.79 1744.97 Q1820.14 1746.77 1822.32 1750.53 M1798.74 1765.24 Q1798.74 1772.88 1801.86 1777.24 Q1805.02 1781.57 1810.51 1781.57 Q1816 1781.57 1819.16 1777.24 Q1822.32 1772.88 1822.32 1765.24 Q1822.32 1757.61 1819.16 1753.28 Q1816 1748.92 1810.51 1748.92 Q1805.02 1748.92 1801.86 1753.28 Q1798.74 1757.61 1798.74 1765.24 Z" fill="#000000" fill-rule="nonzero" fill-opacity="1" /><path clip-path="url(#clip800)" d="M1870.36 1745.38 L1870.36 1751.93 Q1867.42 1750.42 1864.26 1749.67 Q1861.1 1748.92 1857.72 1748.92 Q1852.57 1748.92 1849.97 1750.5 Q1847.41 1752.08 1847.41 1755.24 Q1847.41 1757.64 1849.26 1759.04 Q1851.1 1760.39 1856.67 1761.63 L1859.04 1762.16 Q1866.41 1763.74 1869.49 1766.63 Q1872.61 1769.49 1872.61 1774.65 Q1872.61 1780.51 1867.95 1783.94 Q1863.32 1787.36 1855.2 1787.36 Q1851.81 1787.36 1848.13 1786.68 Q1844.48 1786.04 1840.42 1784.73 L1840.42 1777.58 Q1844.25 1779.57 1847.98 1780.59 Q1851.7 1781.57 1855.35 1781.57 Q1860.24 1781.57 1862.87 1779.91 Q1865.5 1778.22 1865.5 1775.17 Q1865.5 1772.35 1863.59 1770.85 Q1861.71 1769.34 1855.27 1767.95 L1852.87 1767.39 Q1846.43 1766.03 1843.58 1763.25 Q1840.72 1760.43 1840.72 1755.54 Q1840.72 1749.59 1844.93 1746.36 Q1849.14 1743.12 1856.89 1743.12 Q1860.73 1743.12 1864.11 1743.69 Q1867.5 1744.25 1870.36 1745.38 Z" fill="#000000" fill-rule="nonzero" fill-opacity="1" /><polyline clip-path="url(#clip800)" style="stroke:#000000; stroke-linecap:round; stroke-linejoin:round; stroke-width:4; stroke-opacity:1; fill:none" points="286.692,1599.12 286.692,47.2441 "/>
<polyline clip-path="url(#clip800)" style="stroke:#000000; stroke-linecap:round; stroke-linejoin:round; stroke-width:4; stroke-opacity:1; fill:none" points="2752.76,1599.12 2752.76,47.2441 "/>
<polyline clip-path="url(#clip800)" style="stroke:#000000; stroke-linecap:round; stroke-linejoin:round; stroke-width:4; stroke-opacity:1; fill:none" points="286.692,1339.37 305.59,1339.37 "/>
<polyline clip-path="url(#clip800)" style="stroke:#000000; stroke-linecap:round; stroke-linejoin:round; stroke-width:4; stroke-opacity:1; fill:none" points="286.692,964.013 305.59,964.013 "/>
<polyline clip-path="url(#clip800)" style="stroke:#000000; stroke-linecap:round; stroke-linejoin:round; stroke-width:4; stroke-opacity:1; fill:none" points="286.692,588.659 305.59,588.659 "/>
<polyline clip-path="url(#clip800)" style="stroke:#000000; stroke-linecap:round; stroke-linejoin:round; stroke-width:4; stroke-opacity:1; fill:none" points="286.692,213.305 305.59,213.305 "/>
<polyline clip-path="url(#clip800)" style="stroke:#000000; stroke-linecap:round; stroke-linejoin:round; stroke-width:4; stroke-opacity:1; fill:none" points="2752.76,1339.37 2733.86,1339.37 "/>
<polyline clip-path="url(#clip800)" style="stroke:#000000; stroke-linecap:round; stroke-linejoin:round; stroke-width:4; stroke-opacity:1; fill:none" points="2752.76,964.013 2733.86,964.013 "/>
<polyline clip-path="url(#clip800)" style="stroke:#000000; stroke-linecap:round; stroke-linejoin:round; stroke-width:4; stroke-opacity:1; fill:none" points="2752.76,588.659 2733.86,588.659 "/>
<polyline clip-path="url(#clip800)" style="stroke:#000000; stroke-linecap:round; stroke-linejoin:round; stroke-width:4; stroke-opacity:1; fill:none" points="2752.76,213.305 2733.86,213.305 "/>
<path clip-path="url(#clip800)" d="M166.603 1313.45 L194.137 1313.45 L194.137 1319.35 L173.026 1319.35 L173.026 1332.06 Q174.554 1331.54 176.082 1331.29 Q177.609 1331.02 179.137 1331.02 Q187.818 1331.02 192.887 1335.77 Q197.957 1340.53 197.957 1348.66 Q197.957 1357.02 192.748 1361.68 Q187.54 1366.29 178.061 1366.29 Q174.797 1366.29 171.394 1365.74 Q168.026 1365.18 164.415 1364.07 L164.415 1357.02 Q167.54 1358.72 170.873 1359.56 Q174.207 1360.39 177.922 1360.39 Q183.929 1360.39 187.436 1357.23 Q190.943 1354.07 190.943 1348.66 Q190.943 1343.24 187.436 1340.08 Q183.929 1336.92 177.922 1336.92 Q175.109 1336.92 172.297 1337.54 Q169.519 1338.17 166.603 1339.49 L166.603 1313.45 Z" fill="#000000" fill-rule="nonzero" fill-opacity="1" /><path clip-path="url(#clip800)" d="M226.776 1318.07 Q221.359 1318.07 218.616 1323.41 Q215.908 1328.73 215.908 1339.42 Q215.908 1350.08 218.616 1355.43 Q221.359 1360.74 226.776 1360.74 Q232.227 1360.74 234.935 1355.43 Q237.679 1350.08 237.679 1339.42 Q237.679 1328.73 234.935 1323.41 Q232.227 1318.07 226.776 1318.07 M226.776 1312.51 Q235.491 1312.51 240.074 1319.42 Q244.692 1326.29 244.692 1339.42 Q244.692 1352.51 240.074 1359.42 Q235.491 1366.29 226.776 1366.29 Q218.061 1366.29 213.443 1359.42 Q208.859 1352.51 208.859 1339.42 Q208.859 1326.29 213.443 1319.42 Q218.061 1312.51 226.776 1312.51 Z" fill="#000000" fill-rule="nonzero" fill-opacity="1" /><path clip-path="url(#clip800)" d="M122.506 984.031 L133.964 984.031 L133.964 944.482 L121.499 946.982 L121.499 940.593 L133.894 938.093 L140.908 938.093 L140.908 984.031 L152.366 984.031 L152.366 989.933 L122.506 989.933 L122.506 984.031 Z" fill="#000000" fill-rule="nonzero" fill-opacity="1" /><path clip-path="url(#clip800)" d="M181.533 942.711 Q176.116 942.711 173.373 948.059 Q170.665 953.371 170.665 964.065 Q170.665 974.725 173.373 980.072 Q176.116 985.385 181.533 985.385 Q186.984 985.385 189.693 980.072 Q192.436 974.725 192.436 964.065 Q192.436 953.371 189.693 948.059 Q186.984 942.711 181.533 942.711 M181.533 937.156 Q190.248 937.156 194.832 944.066 Q199.45 950.941 199.45 964.065 Q199.45 977.156 194.832 984.065 Q190.248 990.94 181.533 990.94 Q172.818 990.94 168.2 984.065 Q163.616 977.156 163.616 964.065 Q163.616 950.941 168.2 944.066 Q172.818 937.156 181.533 937.156 Z" fill="#000000" fill-rule="nonzero" fill-opacity="1" /><path clip-path="url(#clip800)" d="M226.776 942.711 Q221.359 942.711 218.616 948.059 Q215.908 953.371 215.908 964.065 Q215.908 974.725 218.616 980.072 Q221.359 985.385 226.776 985.385 Q232.227 985.385 234.935 980.072 Q237.679 974.725 237.679 964.065 Q237.679 953.371 234.935 948.059 Q232.227 942.711 226.776 942.711 M226.776 937.156 Q235.491 937.156 240.074 944.066 Q244.692 950.941 244.692 964.065 Q244.692 977.156 240.074 984.065 Q235.491 990.94 226.776 990.94 Q218.061 990.94 213.443 984.065 Q208.859 977.156 208.859 964.065 Q208.859 950.941 213.443 944.066 Q218.061 937.156 226.776 937.156 Z" fill="#000000" fill-rule="nonzero" fill-opacity="1" /><path clip-path="url(#clip800)" d="M122.506 608.677 L133.964 608.677 L133.964 569.128 L121.499 571.628 L121.499 565.239 L133.894 562.739 L140.908 562.739 L140.908 608.677 L152.366 608.677 L152.366 614.579 L122.506 614.579 L122.506 608.677 Z" fill="#000000" fill-rule="nonzero" fill-opacity="1" /><path clip-path="url(#clip800)" d="M166.603 562.739 L194.137 562.739 L194.137 568.642 L173.026 568.642 L173.026 581.35 Q174.554 580.829 176.082 580.586 Q177.609 580.309 179.137 580.309 Q187.818 580.309 192.887 585.066 Q197.957 589.823 197.957 597.947 Q197.957 606.315 192.748 610.968 Q187.54 615.586 178.061 615.586 Q174.797 615.586 171.394 615.031 Q168.026 614.475 164.415 613.364 L164.415 606.315 Q167.54 608.017 170.873 608.85 Q174.207 609.684 177.922 609.684 Q183.929 609.684 187.436 606.524 Q190.943 603.364 190.943 597.947 Q190.943 592.531 187.436 589.371 Q183.929 586.211 177.922 586.211 Q175.109 586.211 172.297 586.836 Q169.519 587.461 166.603 588.781 L166.603 562.739 Z" fill="#000000" fill-rule="nonzero" fill-opacity="1" /><path clip-path="url(#clip800)" d="M226.776 567.357 Q221.359 567.357 218.616 572.705 Q215.908 578.017 215.908 588.711 Q215.908 599.371 218.616 604.718 Q221.359 610.031 226.776 610.031 Q232.227 610.031 234.935 604.718 Q237.679 599.371 237.679 588.711 Q237.679 578.017 234.935 572.705 Q232.227 567.357 226.776 567.357 M226.776 561.802 Q235.491 561.802 240.074 568.712 Q244.692 575.586 244.692 588.711 Q244.692 601.802 240.074 608.711 Q235.491 615.586 226.776 615.586 Q218.061 615.586 213.443 608.711 Q208.859 601.802 208.859 588.711 Q208.859 575.586 213.443 568.712 Q218.061 561.802 226.776 561.802 Z" fill="#000000" fill-rule="nonzero" fill-opacity="1" /><path clip-path="url(#clip800)" d="M127.332 233.322 L151.811 233.322 L151.811 239.225 L118.894 239.225 L118.894 233.322 Q122.887 229.191 129.762 222.246 Q136.672 215.267 138.443 213.253 Q141.811 209.468 143.13 206.864 Q144.485 204.225 144.485 201.691 Q144.485 197.559 141.568 194.955 Q138.686 192.35 134.033 192.35 Q130.735 192.35 127.054 193.496 Q123.408 194.642 119.242 196.969 L119.242 189.885 Q123.478 188.184 127.158 187.316 Q130.839 186.448 133.894 186.448 Q141.95 186.448 146.742 190.476 Q151.533 194.503 151.533 201.239 Q151.533 204.434 150.318 207.316 Q149.137 210.163 145.978 214.052 Q145.11 215.059 140.457 219.885 Q135.804 224.677 127.332 233.322 Z" fill="#000000" fill-rule="nonzero" fill-opacity="1" /><path clip-path="url(#clip800)" d="M181.533 192.003 Q176.116 192.003 173.373 197.35 Q170.665 202.663 170.665 213.357 Q170.665 224.017 173.373 229.364 Q176.116 234.677 181.533 234.677 Q186.984 234.677 189.693 229.364 Q192.436 224.017 192.436 213.357 Q192.436 202.663 189.693 197.35 Q186.984 192.003 181.533 192.003 M181.533 186.448 Q190.248 186.448 194.832 193.357 Q199.45 200.232 199.45 213.357 Q199.45 226.448 194.832 233.357 Q190.248 240.232 181.533 240.232 Q172.818 240.232 168.2 233.357 Q163.616 226.448 163.616 213.357 Q163.616 200.232 168.2 193.357 Q172.818 186.448 181.533 186.448 Z" fill="#000000" fill-rule="nonzero" fill-opacity="1" /><path clip-path="url(#clip800)" d="M226.776 192.003 Q221.359 192.003 218.616 197.35 Q215.908 202.663 215.908 213.357 Q215.908 224.017 218.616 229.364 Q221.359 234.677 226.776 234.677 Q232.227 234.677 234.935 229.364 Q237.679 224.017 237.679 213.357 Q237.679 202.663 234.935 197.35 Q232.227 192.003 226.776 192.003 M226.776 186.448 Q235.491 186.448 240.074 193.357 Q244.692 200.232 244.692 213.357 Q244.692 226.448 240.074 233.357 Q235.491 240.232 226.776 240.232 Q218.061 240.232 213.443 233.357 Q208.859 226.448 208.859 213.357 Q208.859 200.232 213.443 193.357 Q218.061 186.448 226.776 186.448 Z" fill="#000000" fill-rule="nonzero" fill-opacity="1" /><path clip-path="url(#clip800)" d="M26.0044 1291.19 Q21.3401 1288.6 19.1207 1284.99 Q16.9014 1281.38 16.9014 1276.49 Q16.9014 1269.9 21.5281 1266.33 Q26.1172 1262.76 34.6183 1262.76 L60.0464 1262.76 L60.0464 1269.71 L34.844 1269.71 Q28.7879 1269.71 25.8539 1271.86 Q22.9199 1274 22.9199 1278.4 Q22.9199 1283.78 26.4934 1286.9 Q30.0669 1290.03 36.2358 1290.03 L60.0464 1290.03 L60.0464 1296.99 L34.844 1296.99 Q28.7503 1296.99 25.8539 1299.13 Q22.9199 1301.27 22.9199 1305.75 Q22.9199 1311.05 26.531 1314.18 Q30.1045 1317.3 36.2358 1317.3 L60.0464 1317.3 L60.0464 1324.26 L17.917 1324.26 L17.917 1317.3 L24.4621 1317.3 Q20.5877 1314.93 18.7446 1311.62 Q16.9014 1308.31 16.9014 1303.76 Q16.9014 1299.17 19.2336 1295.97 Q21.5657 1292.74 26.0044 1291.19 Z" fill="#000000" fill-rule="nonzero" fill-opacity="1" /><path clip-path="url(#clip800)" d="M37.2514 1212.92 L40.6368 1212.92 L40.6368 1244.74 Q47.7838 1244.29 51.5453 1240.45 Q55.2693 1236.58 55.2693 1229.69 Q55.2693 1225.7 54.2913 1221.98 Q53.3133 1218.22 51.3573 1214.53 L57.9024 1214.53 Q59.4822 1218.26 60.3098 1222.17 Q61.1373 1226.08 61.1373 1230.11 Q61.1373 1240.19 55.2693 1246.09 Q49.4012 1251.96 39.3955 1251.96 Q29.0512 1251.96 22.9951 1246.39 Q16.9014 1240.79 16.9014 1231.31 Q16.9014 1222.81 22.3933 1217.88 Q27.8475 1212.92 37.2514 1212.92 M35.2202 1219.84 Q29.5402 1219.91 26.1548 1223.03 Q22.7694 1226.12 22.7694 1231.23 Q22.7694 1237.03 26.042 1240.52 Q29.3145 1243.99 35.2578 1244.51 L35.2202 1219.84 Z" fill="#000000" fill-rule="nonzero" fill-opacity="1" /><path clip-path="url(#clip800)" d="M26.0044 1168.75 Q21.3401 1166.16 19.1207 1162.55 Q16.9014 1158.94 16.9014 1154.05 Q16.9014 1147.46 21.5281 1143.89 Q26.1172 1140.32 34.6183 1140.32 L60.0464 1140.32 L60.0464 1147.28 L34.844 1147.28 Q28.7879 1147.28 25.8539 1149.42 Q22.9199 1151.56 22.9199 1155.97 Q22.9199 1161.34 26.4934 1164.47 Q30.0669 1167.59 36.2358 1167.59 L60.0464 1167.59 L60.0464 1174.55 L34.844 1174.55 Q28.7503 1174.55 25.8539 1176.69 Q22.9199 1178.84 22.9199 1183.31 Q22.9199 1188.62 26.531 1191.74 Q30.1045 1194.86 36.2358 1194.86 L60.0464 1194.86 L60.0464 1201.82 L17.917 1201.82 L17.917 1194.86 L24.4621 1194.86 Q20.5877 1192.49 18.7446 1189.18 Q16.9014 1185.87 16.9014 1181.32 Q16.9014 1176.73 19.2336 1173.53 Q21.5657 1170.3 26.0044 1168.75 Z" fill="#000000" fill-rule="nonzero" fill-opacity="1" /><path clip-path="url(#clip800)" d="M22.7694 1110.19 Q22.7694 1115.75 27.1328 1118.99 Q31.4586 1122.22 39.0194 1122.22 Q46.5801 1122.22 50.9435 1119.03 Q55.2693 1115.79 55.2693 1110.19 Q55.2693 1104.66 50.9059 1101.42 Q46.5425 1098.19 39.0194 1098.19 Q31.5339 1098.19 27.1705 1101.42 Q22.7694 1104.66 22.7694 1110.19 M16.9014 1110.19 Q16.9014 1101.16 22.7694 1096.01 Q28.6375 1090.85 39.0194 1090.85 Q49.3636 1090.85 55.2693 1096.01 Q61.1373 1101.16 61.1373 1110.19 Q61.1373 1119.25 55.2693 1124.41 Q49.3636 1129.52 39.0194 1129.52 Q28.6375 1129.52 22.7694 1124.41 Q16.9014 1119.25 16.9014 1110.19 Z" fill="#000000" fill-rule="nonzero" fill-opacity="1" /><path clip-path="url(#clip800)" d="M24.3869 1054.97 Q23.7098 1056.13 23.4089 1057.53 Q23.0704 1058.88 23.0704 1060.53 Q23.0704 1066.4 26.9072 1069.56 Q30.7063 1072.68 37.8533 1072.68 L60.0464 1072.68 L60.0464 1079.64 L17.917 1079.64 L17.917 1072.68 L24.4621 1072.68 Q20.6254 1070.5 18.7822 1067 Q16.9014 1063.51 16.9014 1058.5 Q16.9014 1057.79 17.0143 1056.92 Q17.0895 1056.06 17.2776 1055.01 L24.3869 1054.97 Z" fill="#000000" fill-rule="nonzero" fill-opacity="1" /><path clip-path="url(#clip800)" d="M63.9585 1030.18 Q71.4816 1033.11 73.7761 1035.9 Q76.0707 1038.68 76.0707 1043.34 L76.0707 1048.87 L70.2779 1048.87 L70.2779 1044.81 Q70.2779 1041.95 68.9237 1040.37 Q67.5696 1038.79 62.5291 1036.87 L59.3694 1035.63 L17.917 1052.67 L17.917 1045.34 L50.8683 1032.17 L17.917 1019.01 L17.917 1011.67 L63.9585 1030.18 Z" fill="#000000" fill-rule="nonzero" fill-opacity="1" /><path clip-path="url(#clip800)" d="M39.0194 947.387 Q31.3834 947.387 27.0576 950.547 Q22.6942 953.669 22.6942 959.161 Q22.6942 964.653 27.0576 967.812 Q31.3834 970.934 39.0194 970.934 Q46.6553 970.934 51.0187 967.812 Q55.3445 964.653 55.3445 959.161 Q55.3445 953.669 51.0187 950.547 Q46.6553 947.387 39.0194 947.387 M24.3117 970.934 Q20.5501 968.753 18.7446 965.443 Q16.9014 962.095 16.9014 957.468 Q16.9014 949.794 22.9951 945.017 Q29.0889 940.202 39.0194 940.202 Q48.9499 940.202 55.0436 945.017 Q61.1373 949.794 61.1373 957.468 Q61.1373 962.095 59.3317 965.443 Q57.4886 968.753 53.727 970.934 L60.0464 970.934 L60.0464 977.893 L1.51666 977.893 L1.51666 970.934 L24.3117 970.934 Z" fill="#000000" fill-rule="nonzero" fill-opacity="1" /><path clip-path="url(#clip800)" d="M38.8689 909.583 Q38.8689 917.972 40.7873 921.207 Q42.7057 924.442 47.3324 924.442 Q51.0187 924.442 53.2004 922.034 Q55.3445 919.589 55.3445 915.414 Q55.3445 909.659 51.282 906.198 Q47.1819 902.7 40.4111 902.7 L38.8689 902.7 L38.8689 909.583 M36.0101 895.779 L60.0464 895.779 L60.0464 902.7 L53.6518 902.7 Q57.4886 905.07 59.3317 908.605 Q61.1373 912.141 61.1373 917.257 Q61.1373 923.727 57.5262 927.564 Q53.8775 931.363 47.7838 931.363 Q40.6744 931.363 37.0633 926.623 Q33.4523 921.846 33.4523 912.405 L33.4523 902.7 L32.7752 902.7 Q27.998 902.7 25.4025 905.859 Q22.7694 908.982 22.7694 914.662 Q22.7694 918.273 23.6346 921.696 Q24.4998 925.119 26.2301 928.278 L19.8354 928.278 Q18.3684 924.479 17.6537 920.906 Q16.9014 917.332 16.9014 913.947 Q16.9014 904.806 21.641 900.292 Q26.3805 895.779 36.0101 895.779 Z" fill="#000000" fill-rule="nonzero" fill-opacity="1" /><path clip-path="url(#clip800)" d="M34.6183 846.502 L60.0464 846.502 L60.0464 853.423 L34.844 853.423 Q28.8632 853.423 25.8915 855.756 Q22.9199 858.088 22.9199 862.752 Q22.9199 868.357 26.4934 871.592 Q30.0669 874.827 36.2358 874.827 L60.0464 874.827 L60.0464 881.786 L17.917 881.786 L17.917 874.827 L24.4621 874.827 Q20.663 872.344 18.7822 868.996 Q16.9014 865.611 16.9014 861.21 Q16.9014 853.95 21.4153 850.226 Q25.8915 846.502 34.6183 846.502 Z" fill="#000000" fill-rule="nonzero" fill-opacity="1" /><path clip-path="url(#clip800)" d="M24.3117 804.975 L1.51666 804.975 L1.51666 798.053 L60.0464 798.053 L60.0464 804.975 L53.727 804.975 Q57.4886 807.156 59.3317 810.504 Q61.1373 813.814 61.1373 818.479 Q61.1373 826.115 55.0436 830.929 Q48.9499 835.707 39.0194 835.707 Q29.0889 835.707 22.9951 830.929 Q16.9014 826.115 16.9014 818.479 Q16.9014 813.814 18.7446 810.504 Q20.5501 807.156 24.3117 804.975 M39.0194 828.56 Q46.6553 828.56 51.0187 825.437 Q55.3445 822.278 55.3445 816.786 Q55.3445 811.294 51.0187 808.134 Q46.6553 804.975 39.0194 804.975 Q31.3834 804.975 27.0576 808.134 Q22.6942 811.294 22.6942 816.786 Q22.6942 822.278 27.0576 825.437 Q31.3834 828.56 39.0194 828.56 Z" fill="#000000" fill-rule="nonzero" fill-opacity="1" /><path clip-path="url(#clip800)" d="M17.917 787.822 L17.917 780.901 L50.793 772.249 L17.917 763.635 L17.917 755.473 L50.793 746.821 L17.917 738.207 L17.917 731.286 L60.0464 742.307 L60.0464 750.47 L25.5154 759.535 L60.0464 768.638 L60.0464 776.801 L17.917 787.822 Z" fill="#000000" fill-rule="nonzero" fill-opacity="1" /><path clip-path="url(#clip800)" d="M17.917 720.791 L17.917 713.87 L60.0464 713.87 L60.0464 720.791 L17.917 720.791 M1.51666 720.791 L1.51666 713.87 L10.2811 713.87 L10.2811 720.791 L1.51666 720.791 Z" fill="#000000" fill-rule="nonzero" fill-opacity="1" /><path clip-path="url(#clip800)" d="M24.3117 671.665 L1.51666 671.665 L1.51666 664.744 L60.0464 664.744 L60.0464 671.665 L53.727 671.665 Q57.4886 673.847 59.3317 677.195 Q61.1373 680.505 61.1373 685.169 Q61.1373 692.805 55.0436 697.62 Q48.9499 702.397 39.0194 702.397 Q29.0889 702.397 22.9951 697.62 Q16.9014 692.805 16.9014 685.169 Q16.9014 680.505 18.7446 677.195 Q20.5501 673.847 24.3117 671.665 M39.0194 695.25 Q46.6553 695.25 51.0187 692.128 Q55.3445 688.968 55.3445 683.476 Q55.3445 677.985 51.0187 674.825 Q46.6553 671.665 39.0194 671.665 Q31.3834 671.665 27.0576 674.825 Q22.6942 677.985 22.6942 683.476 Q22.6942 688.968 27.0576 692.128 Q31.3834 695.25 39.0194 695.25 Z" fill="#000000" fill-rule="nonzero" fill-opacity="1" /><path clip-path="url(#clip800)" d="M5.9553 643.642 L17.917 643.642 L17.917 629.385 L23.2961 629.385 L23.2961 643.642 L46.1663 643.642 Q51.3196 643.642 52.7866 642.25 Q54.2537 640.82 54.2537 636.495 L54.2537 629.385 L60.0464 629.385 L60.0464 636.495 Q60.0464 644.507 57.0748 647.554 Q54.0656 650.6 46.1663 650.6 L23.2961 650.6 L23.2961 655.679 L17.917 655.679 L17.917 650.6 L5.9553 650.6 L5.9553 643.642 Z" fill="#000000" fill-rule="nonzero" fill-opacity="1" /><path clip-path="url(#clip800)" d="M34.6183 585.262 L60.0464 585.262 L60.0464 592.184 L34.844 592.184 Q28.8632 592.184 25.8915 594.516 Q22.9199 596.848 22.9199 601.512 Q22.9199 607.117 26.4934 610.352 Q30.0669 613.587 36.2358 613.587 L60.0464 613.587 L60.0464 620.546 L1.51666 620.546 L1.51666 613.587 L24.4621 613.587 Q20.663 611.104 18.7822 607.756 Q16.9014 604.371 16.9014 599.97 Q16.9014 592.71 21.4153 588.986 Q25.8915 585.262 34.6183 585.262 Z" fill="#000000" fill-rule="nonzero" fill-opacity="1" /><path clip-path="url(#clip800)" d="M1.51666 547.609 L1.51666 531.66 L6.89569 531.66 L6.89569 540.688 L64.8236 540.688 L64.8236 531.66 L70.2026 531.66 L70.2026 547.609 L1.51666 547.609 Z" fill="#000000" fill-rule="nonzero" fill-opacity="1" /><path clip-path="url(#clip800)" d="M52.0343 478.321 L36.9505 478.321 L36.9505 490.734 L30.7063 490.734 L30.7063 470.798 L54.8179 470.798 Q57.94 475.199 59.5574 480.503 Q61.1373 485.807 61.1373 491.825 Q61.1373 504.991 53.4637 512.439 Q45.7525 519.849 32.0229 519.849 Q18.2556 519.849 10.582 512.439 Q2.87082 504.991 2.87082 491.825 Q2.87082 486.333 4.22498 481.406 Q5.57914 476.44 8.21223 472.265 L16.2996 472.265 Q12.7261 476.478 10.9205 481.218 Q9.115 485.957 9.115 491.186 Q9.115 501.492 14.8702 506.683 Q20.6254 511.837 32.0229 511.837 Q43.3828 511.837 49.1379 506.683 Q54.8931 501.492 54.8931 491.186 Q54.8931 487.161 54.216 484.001 Q53.5013 480.842 52.0343 478.321 Z" fill="#000000" fill-rule="nonzero" fill-opacity="1" /><path clip-path="url(#clip800)" d="M33.2266 449.32 L53.8023 449.32 L53.8023 437.132 Q53.8023 431.001 51.282 428.067 Q48.7242 425.095 43.4956 425.095 Q38.2294 425.095 35.7468 428.067 Q33.2266 431.001 33.2266 437.132 L33.2266 449.32 M10.1306 449.32 L27.0576 449.32 L27.0576 438.073 Q27.0576 432.506 24.9888 429.797 Q22.8823 427.051 18.5941 427.051 Q14.3436 427.051 12.2371 429.797 Q10.1306 432.506 10.1306 438.073 L10.1306 449.32 M3.88644 456.918 L3.88644 437.508 Q3.88644 428.819 7.49753 424.117 Q11.1086 419.415 17.7666 419.415 Q22.9199 419.415 25.9668 421.823 Q29.0136 424.23 29.7659 428.894 Q30.9696 423.29 34.8064 420.205 Q38.6056 417.083 44.3231 417.083 Q51.8463 417.083 55.9463 422.199 Q60.0464 427.315 60.0464 436.756 L60.0464 456.918 L3.88644 456.918 Z" fill="#000000" fill-rule="nonzero" fill-opacity="1" /><path clip-path="url(#clip800)" d="M3.88644 392.069 L3.88644 385.674 L67.1934 405.234 L67.1934 411.629 L3.88644 392.069 Z" fill="#000000" fill-rule="nonzero" fill-opacity="1" /><path clip-path="url(#clip800)" d="M19.1584 351.557 L25.7035 351.557 Q24.1988 354.491 23.4465 357.651 Q22.6942 360.81 22.6942 364.196 Q22.6942 369.349 24.2741 371.945 Q25.8539 374.502 29.0136 374.502 Q31.421 374.502 32.8128 372.659 Q34.167 370.816 35.4083 365.249 L35.9349 362.879 Q37.5147 355.507 40.4111 352.422 Q43.2699 349.3 48.4232 349.3 Q54.2913 349.3 57.7143 353.964 Q61.1373 358.591 61.1373 366.716 Q61.1373 370.101 60.4602 373.788 Q59.8207 377.436 58.5042 381.499 L51.3573 381.499 Q53.3509 377.662 54.3665 373.938 Q55.3445 370.214 55.3445 366.566 Q55.3445 361.675 53.6894 359.042 Q51.9967 356.409 48.9499 356.409 Q46.1287 356.409 44.6241 358.328 Q43.1195 360.208 41.7277 366.641 L41.1634 369.048 Q39.8093 375.48 37.0257 378.339 Q34.2046 381.198 29.3145 381.198 Q23.3713 381.198 20.1364 376.985 Q16.9014 372.772 16.9014 365.023 Q16.9014 361.186 17.4657 357.801 Q18.0299 354.416 19.1584 351.557 Z" fill="#000000" fill-rule="nonzero" fill-opacity="1" /><path clip-path="url(#clip800)" d="M1.51666 322.104 L70.2026 322.104 L70.2026 338.053 L64.8236 338.053 L64.8236 329.063 L6.89569 329.063 L6.89569 338.053 L1.51666 338.053 L1.51666 322.104 Z" fill="#000000" fill-rule="nonzero" fill-opacity="1" /><polyline clip-path="url(#clip802)" style="stroke:#009af9; stroke-linecap:round; stroke-linejoin:round; stroke-width:6; stroke-opacity:1; fill:none" points="337.02,1551.14 588.659,878.658 890.626,405.862 1192.59,307.519 1494.56,138.91 1796.53,247.913 2098.49,151.672 2400.46,182.601 2702.43,91.165 "/>
<circle clip-path="url(#clip802)" cx="337.02" cy="1551.14" r="18" fill="#009af9" fill-rule="evenodd" fill-opacity="1" stroke="#000000" stroke-opacity="1" stroke-width="3.6"/>
<circle clip-path="url(#clip802)" cx="588.659" cy="878.658" r="18" fill="#009af9" fill-rule="evenodd" fill-opacity="1" stroke="#000000" stroke-opacity="1" stroke-width="3.6"/>
<circle clip-path="url(#clip802)" cx="890.626" cy="405.862" r="18" fill="#009af9" fill-rule="evenodd" fill-opacity="1" stroke="#000000" stroke-opacity="1" stroke-width="3.6"/>
<circle clip-path="url(#clip802)" cx="1192.59" cy="307.519" r="18" fill="#009af9" fill-rule="evenodd" fill-opacity="1" stroke="#000000" stroke-opacity="1" stroke-width="3.6"/>
<circle clip-path="url(#clip802)" cx="1494.56" cy="138.91" r="18" fill="#009af9" fill-rule="evenodd" fill-opacity="1" stroke="#000000" stroke-opacity="1" stroke-width="3.6"/>
<circle clip-path="url(#clip802)" cx="1796.53" cy="247.913" r="18" fill="#009af9" fill-rule="evenodd" fill-opacity="1" stroke="#000000" stroke-opacity="1" stroke-width="3.6"/>
<circle clip-path="url(#clip802)" cx="2098.49" cy="151.672" r="18" fill="#009af9" fill-rule="evenodd" fill-opacity="1" stroke="#000000" stroke-opacity="1" stroke-width="3.6"/>
<circle clip-path="url(#clip802)" cx="2400.46" cy="182.601" r="18" fill="#009af9" fill-rule="evenodd" fill-opacity="1" stroke="#000000" stroke-opacity="1" stroke-width="3.6"/>
<circle clip-path="url(#clip802)" cx="2702.43" cy="91.165" r="18" fill="#009af9" fill-rule="evenodd" fill-opacity="1" stroke="#000000" stroke-opacity="1" stroke-width="3.6"/>
<polyline clip-path="url(#clip802)" style="stroke:#e26f46; stroke-linecap:round; stroke-linejoin:round; stroke-width:6; stroke-opacity:1; fill:none" points="337.02,1555.2 588.659,1091.71 890.626,929.631 1192.59,929.706 1494.56,905.308 1796.53,708.097 2098.49,500.826 2400.46,294.307 2702.43,95.369 "/>
<circle clip-path="url(#clip802)" cx="337.02" cy="1555.2" r="18" fill="#e26f46" fill-rule="evenodd" fill-opacity="1" stroke="#000000" stroke-opacity="1" stroke-width="3.6"/>
<circle clip-path="url(#clip802)" cx="588.659" cy="1091.71" r="18" fill="#e26f46" fill-rule="evenodd" fill-opacity="1" stroke="#000000" stroke-opacity="1" stroke-width="3.6"/>
<circle clip-path="url(#clip802)" cx="890.626" cy="929.631" r="18" fill="#e26f46" fill-rule="evenodd" fill-opacity="1" stroke="#000000" stroke-opacity="1" stroke-width="3.6"/>
<circle clip-path="url(#clip802)" cx="1192.59" cy="929.706" r="18" fill="#e26f46" fill-rule="evenodd" fill-opacity="1" stroke="#000000" stroke-opacity="1" stroke-width="3.6"/>
<circle clip-path="url(#clip802)" cx="1494.56" cy="905.308" r="18" fill="#e26f46" fill-rule="evenodd" fill-opacity="1" stroke="#000000" stroke-opacity="1" stroke-width="3.6"/>
<circle clip-path="url(#clip802)" cx="1796.53" cy="708.097" r="18" fill="#e26f46" fill-rule="evenodd" fill-opacity="1" stroke="#000000" stroke-opacity="1" stroke-width="3.6"/>
<circle clip-path="url(#clip802)" cx="2098.49" cy="500.826" r="18" fill="#e26f46" fill-rule="evenodd" fill-opacity="1" stroke="#000000" stroke-opacity="1" stroke-width="3.6"/>
<circle clip-path="url(#clip802)" cx="2400.46" cy="294.307" r="18" fill="#e26f46" fill-rule="evenodd" fill-opacity="1" stroke="#000000" stroke-opacity="1" stroke-width="3.6"/>
<circle clip-path="url(#clip802)" cx="2702.43" cy="95.369" r="18" fill="#e26f46" fill-rule="evenodd" fill-opacity="1" stroke="#000000" stroke-opacity="1" stroke-width="3.6"/>
<polyline clip-path="url(#clip802)" style="stroke:#3da44d; stroke-linecap:round; stroke-linejoin:round; stroke-width:6; stroke-opacity:1; fill:none" points="337.02,1551.74 588.659,1319.25 890.626,1306.19 1192.59,1106.87 1494.56,900.804 1796.53,700.365 2098.49,498.274 2400.46,301.363 2702.43,96.2698 "/>
<circle clip-path="url(#clip802)" cx="337.02" cy="1551.74" r="18" fill="#3da44d" fill-rule="evenodd" fill-opacity="1" stroke="#000000" stroke-opacity="1" stroke-width="3.6"/>
<circle clip-path="url(#clip802)" cx="588.659" cy="1319.25" r="18" fill="#3da44d" fill-rule="evenodd" fill-opacity="1" stroke="#000000" stroke-opacity="1" stroke-width="3.6"/>
<circle clip-path="url(#clip802)" cx="890.626" cy="1306.19" r="18" fill="#3da44d" fill-rule="evenodd" fill-opacity="1" stroke="#000000" stroke-opacity="1" stroke-width="3.6"/>
<circle clip-path="url(#clip802)" cx="1192.59" cy="1106.87" r="18" fill="#3da44d" fill-rule="evenodd" fill-opacity="1" stroke="#000000" stroke-opacity="1" stroke-width="3.6"/>
<circle clip-path="url(#clip802)" cx="1494.56" cy="900.804" r="18" fill="#3da44d" fill-rule="evenodd" fill-opacity="1" stroke="#000000" stroke-opacity="1" stroke-width="3.6"/>
<circle clip-path="url(#clip802)" cx="1796.53" cy="700.365" r="18" fill="#3da44d" fill-rule="evenodd" fill-opacity="1" stroke="#000000" stroke-opacity="1" stroke-width="3.6"/>
<circle clip-path="url(#clip802)" cx="2098.49" cy="498.274" r="18" fill="#3da44d" fill-rule="evenodd" fill-opacity="1" stroke="#000000" stroke-opacity="1" stroke-width="3.6"/>
<circle clip-path="url(#clip802)" cx="2400.46" cy="301.363" r="18" fill="#3da44d" fill-rule="evenodd" fill-opacity="1" stroke="#000000" stroke-opacity="1" stroke-width="3.6"/>
<circle clip-path="url(#clip802)" cx="2702.43" cy="96.2698" r="18" fill="#3da44d" fill-rule="evenodd" fill-opacity="1" stroke="#000000" stroke-opacity="1" stroke-width="3.6"/>
<polyline clip-path="url(#clip802)" style="stroke:#808080; stroke-linecap:round; stroke-linejoin:round; stroke-width:6; stroke-opacity:1; fill:none" stroke-dasharray="24, 15" points="1494.56,3150.99 1494.56,-1504.63 "/>
<path clip-path="url(#clip800)" d="M2144.82 1547.39 L2670.55 1547.39 L2670.55 1236.35 L2144.82 1236.35  Z" fill="#ffffff" fill-rule="evenodd" fill-opacity="1"/>
<polyline clip-path="url(#clip800)" style="stroke:#000000; stroke-linecap:round; stroke-linejoin:round; stroke-width:4; stroke-opacity:1; fill:none" points="2144.82,1547.39 2670.55,1547.39 2670.55,1236.35 2144.82,1236.35 2144.82,1547.39 "/>
<polyline clip-path="url(#clip800)" style="stroke:#009af9; stroke-linecap:round; stroke-linejoin:round; stroke-width:9; stroke-opacity:1; fill:none" points="2172.22,1314.11 2336.62,1314.11 "/>
<circle clip-path="url(#clip800)" cx="2254.42" cy="1314.11" r="15.2226" fill="#009af9" fill-rule="evenodd" fill-opacity="1" stroke="#000000" stroke-opacity="1" stroke-width="6.28364"/>
<path clip-path="url(#clip800)" d="M2364.02 1331.21 L2371.35 1331.21 L2371.35 1340.03 L2364.02 1340.03 L2364.02 1331.21 M2364.02 1303.26 L2371.35 1303.26 L2371.35 1312.08 L2364.02 1312.08 L2364.02 1303.26 Z" fill="#000000" fill-rule="nonzero" fill-opacity="1" /><path clip-path="url(#clip800)" d="M2418.68 1316.56 L2418.68 1340.03 L2412.29 1340.03 L2412.29 1316.76 Q2412.29 1311.24 2410.13 1308.5 Q2407.98 1305.76 2403.68 1305.76 Q2398.5 1305.76 2395.52 1309.06 Q2392.53 1312.35 2392.53 1318.05 L2392.53 1340.03 L2386.11 1340.03 L2386.11 1301.14 L2392.53 1301.14 L2392.53 1307.18 Q2394.82 1303.67 2397.91 1301.94 Q2401.04 1300.2 2405.1 1300.2 Q2411.8 1300.2 2415.24 1304.37 Q2418.68 1308.5 2418.68 1316.56 Z" fill="#000000" fill-rule="nonzero" fill-opacity="1" /><path clip-path="url(#clip800)" d="M2430.76 1324.68 L2430.76 1301.14 L2437.15 1301.14 L2437.15 1324.44 Q2437.15 1329.96 2439.3 1332.74 Q2441.45 1335.48 2445.76 1335.48 Q2450.93 1335.48 2453.92 1332.18 Q2456.94 1328.88 2456.94 1323.19 L2456.94 1301.14 L2463.33 1301.14 L2463.33 1340.03 L2456.94 1340.03 L2456.94 1334.06 Q2454.61 1337.6 2451.52 1339.33 Q2448.47 1341.03 2444.4 1341.03 Q2437.7 1341.03 2434.23 1336.87 Q2430.76 1332.7 2430.76 1324.68 M2446.83 1300.2 L2446.83 1300.2 Z" fill="#000000" fill-rule="nonzero" fill-opacity="1" /><path clip-path="url(#clip800)" d="M2506.76 1308.6 Q2509.16 1304.3 2512.49 1302.25 Q2515.83 1300.2 2520.34 1300.2 Q2526.42 1300.2 2529.72 1304.47 Q2533.01 1308.71 2533.01 1316.56 L2533.01 1340.03 L2526.59 1340.03 L2526.59 1316.76 Q2526.59 1311.17 2524.61 1308.47 Q2522.63 1305.76 2518.57 1305.76 Q2513.61 1305.76 2510.72 1309.06 Q2507.84 1312.35 2507.84 1318.05 L2507.84 1340.03 L2501.42 1340.03 L2501.42 1316.76 Q2501.42 1311.14 2499.44 1308.47 Q2497.46 1305.76 2493.33 1305.76 Q2488.43 1305.76 2485.55 1309.09 Q2482.67 1312.39 2482.67 1318.05 L2482.67 1340.03 L2476.24 1340.03 L2476.24 1301.14 L2482.67 1301.14 L2482.67 1307.18 Q2484.86 1303.6 2487.91 1301.9 Q2490.97 1300.2 2495.17 1300.2 Q2499.4 1300.2 2502.36 1302.35 Q2505.34 1304.51 2506.76 1308.6 Z" fill="#000000" fill-rule="nonzero" fill-opacity="1" /><path clip-path="url(#clip800)" d="M2563.43 1320.48 Q2555.69 1320.48 2552.7 1322.25 Q2549.72 1324.02 2549.72 1328.29 Q2549.72 1331.69 2551.94 1333.71 Q2554.2 1335.69 2558.05 1335.69 Q2563.36 1335.69 2566.56 1331.94 Q2569.79 1328.15 2569.79 1321.9 L2569.79 1320.48 L2563.43 1320.48 M2576.17 1317.84 L2576.17 1340.03 L2569.79 1340.03 L2569.79 1334.13 Q2567.6 1337.67 2564.33 1339.37 Q2561.07 1341.03 2556.35 1341.03 Q2550.38 1341.03 2546.83 1337.7 Q2543.33 1334.33 2543.33 1328.71 Q2543.33 1322.15 2547.7 1318.81 Q2552.11 1315.48 2560.83 1315.48 L2569.79 1315.48 L2569.79 1314.85 Q2569.79 1310.44 2566.87 1308.05 Q2563.99 1305.62 2558.74 1305.62 Q2555.41 1305.62 2552.25 1306.42 Q2549.09 1307.22 2546.17 1308.81 L2546.17 1302.91 Q2549.68 1301.56 2552.98 1300.9 Q2556.28 1300.2 2559.4 1300.2 Q2567.84 1300.2 2572.01 1304.58 Q2576.17 1308.95 2576.17 1317.84 Z" fill="#000000" fill-rule="nonzero" fill-opacity="1" /><polyline clip-path="url(#clip800)" style="stroke:#e26f46; stroke-linecap:round; stroke-linejoin:round; stroke-width:9; stroke-opacity:1; fill:none" points="2172.22,1391.87 2336.62,1391.87 "/>
<circle clip-path="url(#clip800)" cx="2254.42" cy="1391.87" r="15.2226" fill="#e26f46" fill-rule="evenodd" fill-opacity="1" stroke="#000000" stroke-opacity="1" stroke-width="6.28364"/>
<path clip-path="url(#clip800)" d="M2364.02 1408.97 L2371.35 1408.97 L2371.35 1417.79 L2364.02 1417.79 L2364.02 1408.97 M2364.02 1381.02 L2371.35 1381.02 L2371.35 1389.84 L2364.02 1389.84 L2364.02 1381.02 Z" fill="#000000" fill-rule="nonzero" fill-opacity="1" /><path clip-path="url(#clip800)" d="M2411.14 1380.05 L2411.14 1386.09 Q2408.43 1384.7 2405.52 1384 Q2402.6 1383.31 2399.47 1383.31 Q2394.72 1383.31 2392.32 1384.77 Q2389.96 1386.23 2389.96 1389.14 Q2389.96 1391.36 2391.66 1392.65 Q2393.36 1393.9 2398.5 1395.04 L2400.69 1395.53 Q2407.49 1396.99 2410.34 1399.66 Q2413.22 1402.3 2413.22 1407.06 Q2413.22 1412.48 2408.92 1415.64 Q2404.65 1418.79 2397.15 1418.79 Q2394.02 1418.79 2390.62 1418.17 Q2387.25 1417.58 2383.5 1416.36 L2383.5 1409.77 Q2387.04 1411.61 2390.48 1412.54 Q2393.92 1413.45 2397.29 1413.45 Q2401.8 1413.45 2404.23 1411.92 Q2406.66 1410.36 2406.66 1407.54 Q2406.66 1404.94 2404.89 1403.55 Q2403.15 1402.16 2397.22 1400.88 L2394.99 1400.36 Q2389.06 1399.11 2386.42 1396.54 Q2383.78 1393.93 2383.78 1389.42 Q2383.78 1383.93 2387.67 1380.95 Q2391.56 1377.96 2398.71 1377.96 Q2402.25 1377.96 2405.38 1378.48 Q2408.5 1379 2411.14 1380.05 Z" fill="#000000" fill-rule="nonzero" fill-opacity="1" /><path clip-path="url(#clip800)" d="M2438.47 1383.38 Q2433.33 1383.38 2430.34 1387.41 Q2427.36 1391.4 2427.36 1398.38 Q2427.36 1405.36 2430.31 1409.39 Q2433.29 1413.38 2438.47 1413.38 Q2443.57 1413.38 2446.56 1409.35 Q2449.54 1405.32 2449.54 1398.38 Q2449.54 1391.47 2446.56 1387.44 Q2443.57 1383.38 2438.47 1383.38 M2438.47 1377.96 Q2446.8 1377.96 2451.56 1383.38 Q2456.31 1388.79 2456.31 1398.38 Q2456.31 1407.93 2451.56 1413.38 Q2446.8 1418.79 2438.47 1418.79 Q2430.1 1418.79 2425.34 1413.38 Q2420.62 1407.93 2420.62 1398.38 Q2420.62 1388.79 2425.34 1383.38 Q2430.1 1377.96 2438.47 1377.96 Z" fill="#000000" fill-rule="nonzero" fill-opacity="1" /><path clip-path="url(#clip800)" d="M2494.89 1380.39 L2494.89 1386.36 Q2492.18 1384.87 2489.44 1384.14 Q2486.73 1383.38 2483.95 1383.38 Q2477.74 1383.38 2474.3 1387.34 Q2470.86 1391.26 2470.86 1398.38 Q2470.86 1405.5 2474.3 1409.45 Q2477.74 1413.38 2483.95 1413.38 Q2486.73 1413.38 2489.44 1412.65 Q2492.18 1411.89 2494.89 1410.39 L2494.89 1416.29 Q2492.22 1417.54 2489.33 1418.17 Q2486.49 1418.79 2483.26 1418.79 Q2474.47 1418.79 2469.3 1413.27 Q2464.13 1407.75 2464.13 1398.38 Q2464.13 1388.86 2469.33 1383.41 Q2474.58 1377.96 2483.67 1377.96 Q2486.63 1377.96 2489.44 1378.59 Q2492.25 1379.18 2494.89 1380.39 Z" fill="#000000" fill-rule="nonzero" fill-opacity="1" /><path clip-path="url(#clip800)" d="M2505.76 1363.76 L2512.18 1363.76 L2512.18 1395.67 L2531.24 1378.9 L2539.4 1378.9 L2518.78 1397.09 L2540.27 1417.79 L2531.94 1417.79 L2512.18 1398.79 L2512.18 1417.79 L2505.76 1417.79 L2505.76 1363.76 Z" fill="#000000" fill-rule="nonzero" fill-opacity="1" /><path clip-path="url(#clip800)" d="M2577.91 1396.75 L2577.91 1399.87 L2548.54 1399.87 Q2548.95 1406.47 2552.49 1409.94 Q2556.07 1413.38 2562.42 1413.38 Q2566.1 1413.38 2569.54 1412.48 Q2573.01 1411.57 2576.42 1409.77 L2576.42 1415.81 Q2572.98 1417.27 2569.37 1418.03 Q2565.76 1418.79 2562.04 1418.79 Q2552.74 1418.79 2547.29 1413.38 Q2541.87 1407.96 2541.87 1398.73 Q2541.87 1389.18 2547.01 1383.59 Q2552.18 1377.96 2560.93 1377.96 Q2568.78 1377.96 2573.33 1383.03 Q2577.91 1388.07 2577.91 1396.75 M2571.52 1394.87 Q2571.45 1389.63 2568.57 1386.5 Q2565.72 1383.38 2561 1383.38 Q2555.65 1383.38 2552.42 1386.4 Q2549.23 1389.42 2548.74 1394.91 L2571.52 1394.87 Z" fill="#000000" fill-rule="nonzero" fill-opacity="1" /><path clip-path="url(#clip800)" d="M2594.72 1367.86 L2594.72 1378.9 L2607.88 1378.9 L2607.88 1383.86 L2594.72 1383.86 L2594.72 1404.98 Q2594.72 1409.73 2596 1411.09 Q2597.32 1412.44 2601.31 1412.44 L2607.88 1412.44 L2607.88 1417.79 L2601.31 1417.79 Q2593.92 1417.79 2591.1 1415.04 Q2588.29 1412.27 2588.29 1404.98 L2588.29 1383.86 L2583.6 1383.86 L2583.6 1378.9 L2588.29 1378.9 L2588.29 1367.86 L2594.72 1367.86 Z" fill="#000000" fill-rule="nonzero" fill-opacity="1" /><path clip-path="url(#clip800)" d="M2641.07 1380.05 L2641.07 1386.09 Q2638.36 1384.7 2635.44 1384 Q2632.53 1383.31 2629.4 1383.31 Q2624.65 1383.31 2622.25 1384.77 Q2619.89 1386.23 2619.89 1389.14 Q2619.89 1391.36 2621.59 1392.65 Q2623.29 1393.9 2628.43 1395.04 L2630.62 1395.53 Q2637.42 1396.99 2640.27 1399.66 Q2643.15 1402.3 2643.15 1407.06 Q2643.15 1412.48 2638.85 1415.64 Q2634.58 1418.79 2627.08 1418.79 Q2623.95 1418.79 2620.55 1418.17 Q2617.18 1417.58 2613.43 1416.36 L2613.43 1409.77 Q2616.97 1411.61 2620.41 1412.54 Q2623.85 1413.45 2627.22 1413.45 Q2631.73 1413.45 2634.16 1411.92 Q2636.59 1410.36 2636.59 1407.54 Q2636.59 1404.94 2634.82 1403.55 Q2633.08 1402.16 2627.15 1400.88 L2624.92 1400.36 Q2618.99 1399.11 2616.35 1396.54 Q2613.71 1393.93 2613.71 1389.42 Q2613.71 1383.93 2617.6 1380.95 Q2621.49 1377.96 2628.64 1377.96 Q2632.18 1377.96 2635.31 1378.48 Q2638.43 1379 2641.07 1380.05 Z" fill="#000000" fill-rule="nonzero" fill-opacity="1" /><polyline clip-path="url(#clip800)" style="stroke:#3da44d; stroke-linecap:round; stroke-linejoin:round; stroke-width:9; stroke-opacity:1; fill:none" points="2172.22,1469.63 2336.62,1469.63 "/>
<circle clip-path="url(#clip800)" cx="2254.42" cy="1469.63" r="15.2226" fill="#3da44d" fill-rule="evenodd" fill-opacity="1" stroke="#000000" stroke-opacity="1" stroke-width="6.28364"/>
<path clip-path="url(#clip800)" d="M2364.02 1486.73 L2371.35 1486.73 L2371.35 1495.55 L2364.02 1495.55 L2364.02 1486.73 M2364.02 1458.78 L2371.35 1458.78 L2371.35 1467.6 L2364.02 1467.6 L2364.02 1458.78 Z" fill="#000000" fill-rule="nonzero" fill-opacity="1" /><path clip-path="url(#clip800)" d="M2414.33 1458.15 L2414.33 1464.12 Q2411.63 1462.63 2408.88 1461.9 Q2406.18 1461.14 2403.4 1461.14 Q2397.18 1461.14 2393.74 1465.1 Q2390.31 1469.02 2390.31 1476.14 Q2390.31 1483.26 2393.74 1487.21 Q2397.18 1491.14 2403.4 1491.14 Q2406.18 1491.14 2408.88 1490.41 Q2411.63 1489.65 2414.33 1488.15 L2414.33 1494.05 Q2411.66 1495.3 2408.78 1495.93 Q2405.93 1496.55 2402.7 1496.55 Q2393.92 1496.55 2388.74 1491.03 Q2383.57 1485.51 2383.57 1476.14 Q2383.57 1466.62 2388.78 1461.17 Q2394.02 1455.72 2403.12 1455.72 Q2406.07 1455.72 2408.88 1456.35 Q2411.7 1456.94 2414.33 1458.15 Z" fill="#000000" fill-rule="nonzero" fill-opacity="1" /><path clip-path="url(#clip800)" d="M2440.52 1461.14 Q2435.38 1461.14 2432.39 1465.17 Q2429.4 1469.16 2429.4 1476.14 Q2429.4 1483.12 2432.36 1487.15 Q2435.34 1491.14 2440.52 1491.14 Q2445.62 1491.14 2448.61 1487.11 Q2451.59 1483.08 2451.59 1476.14 Q2451.59 1469.23 2448.61 1465.2 Q2445.62 1461.14 2440.52 1461.14 M2440.52 1455.72 Q2448.85 1455.72 2453.61 1461.14 Q2458.36 1466.55 2458.36 1476.14 Q2458.36 1485.69 2453.61 1491.14 Q2448.85 1496.55 2440.52 1496.55 Q2432.15 1496.55 2427.39 1491.14 Q2422.67 1485.69 2422.67 1476.14 Q2422.67 1466.55 2427.39 1461.14 Q2432.15 1455.72 2440.52 1455.72 Z" fill="#000000" fill-rule="nonzero" fill-opacity="1" /><path clip-path="url(#clip800)" d="M2491.49 1462.63 Q2490.41 1462.01 2489.13 1461.73 Q2487.88 1461.42 2486.35 1461.42 Q2480.93 1461.42 2478.02 1464.96 Q2475.13 1468.46 2475.13 1475.06 L2475.13 1495.55 L2468.71 1495.55 L2468.71 1456.66 L2475.13 1456.66 L2475.13 1462.7 Q2477.15 1459.16 2480.38 1457.46 Q2483.61 1455.72 2488.22 1455.72 Q2488.88 1455.72 2489.68 1455.83 Q2490.48 1455.9 2491.45 1456.07 L2491.49 1462.63 Z" fill="#000000" fill-rule="nonzero" fill-opacity="1" /><path clip-path="url(#clip800)" d="M2529.89 1474.51 L2529.89 1477.63 L2500.51 1477.63 Q2500.93 1484.23 2504.47 1487.7 Q2508.05 1491.14 2514.4 1491.14 Q2518.08 1491.14 2521.52 1490.24 Q2524.99 1489.33 2528.4 1487.53 L2528.4 1493.57 Q2524.96 1495.03 2521.35 1495.79 Q2517.74 1496.55 2514.02 1496.55 Q2504.72 1496.55 2499.26 1491.14 Q2493.85 1485.72 2493.85 1476.49 Q2493.85 1466.94 2498.99 1461.35 Q2504.16 1455.72 2512.91 1455.72 Q2520.76 1455.72 2525.31 1460.79 Q2529.89 1465.83 2529.89 1474.51 M2523.5 1472.63 Q2523.43 1467.39 2520.55 1464.26 Q2517.7 1461.14 2512.98 1461.14 Q2507.63 1461.14 2504.4 1464.16 Q2501.21 1467.18 2500.72 1472.67 L2523.5 1472.63 Z" fill="#000000" fill-rule="nonzero" fill-opacity="1" /><path clip-path="url(#clip800)" d="M2565.17 1457.81 L2565.17 1463.85 Q2562.46 1462.46 2559.54 1461.76 Q2556.63 1461.07 2553.5 1461.07 Q2548.74 1461.07 2546.35 1462.53 Q2543.99 1463.99 2543.99 1466.9 Q2543.99 1469.12 2545.69 1470.41 Q2547.39 1471.66 2552.53 1472.8 L2554.72 1473.29 Q2561.52 1474.75 2564.37 1477.42 Q2567.25 1480.06 2567.25 1484.82 Q2567.25 1490.24 2562.95 1493.4 Q2558.67 1496.55 2551.17 1496.55 Q2548.05 1496.55 2544.65 1495.93 Q2541.28 1495.34 2537.53 1494.12 L2537.53 1487.53 Q2541.07 1489.37 2544.51 1490.3 Q2547.95 1491.21 2551.31 1491.21 Q2555.83 1491.21 2558.26 1489.68 Q2560.69 1488.12 2560.69 1485.3 Q2560.69 1482.7 2558.92 1481.31 Q2557.18 1479.92 2551.24 1478.64 L2549.02 1478.12 Q2543.08 1476.87 2540.45 1474.3 Q2537.81 1471.69 2537.81 1467.18 Q2537.81 1461.69 2541.7 1458.71 Q2545.58 1455.72 2552.74 1455.72 Q2556.28 1455.72 2559.4 1456.24 Q2562.53 1456.76 2565.17 1457.81 Z" fill="#000000" fill-rule="nonzero" fill-opacity="1" /></svg>
