<?xml version="1.0" encoding="utf-8"?>
<svg xmlns="http://www.w3.org/2000/svg" xmlns:xlink="http://www.w3.org/1999/xlink" width="700" height="450" viewBox="0 0 2800 1800">
<defs>
  <clipPath id="clip800">
    <rect x="0" y="0" width="2800" height="1800"/>
  </clipPath>
</defs>
<path clip-path="url(#clip800)" d="M0 1800 L2800 1800 L2800 -2.27374e-13 L0 -2.27374e-13  Z" fill="#ffffff" fill-rule="evenodd" fill-opacity="1"/>
<defs>
  <clipPath id="clip801">
    <rect x="560" y="0" width="1961" height="1800"/>
  </clipPath>
</defs>
<path clip-path="url(#clip800)" d="M286.692 1599.12 L2752.76 1599.12 L2752.76 47.2441 L286.692 47.2441  Z" fill="#ffffff" fill-rule="evenodd" fill-opacity="1"/>
<defs>
  <clipPath id="clip802">
    <rect x="286" y="47" width="2467" height="1553"/>
  </clipPath>
</defs>
<polyline clip-path="url(#clip802)" style="stroke:#000000; stroke-linecap:round; stroke-linejoin:round; stroke-width:2; stroke-opacity:0.1; fill:none" points="324.632,1599.12 324.632,47.2441 "/>
<polyline clip-path="url(#clip802)" style="stroke:#000000; stroke-linecap:round; stroke-linejoin:round; stroke-width:2; stroke-opacity:0.1; fill:none" points="893.723,1599.12 893.723,47.2441 "/>
<polyline clip-path="url(#clip802)" style="stroke:#000000; stroke-linecap:round; stroke-linejoin:round; stroke-width:2; stroke-opacity:0.1; fill:none" points="1500.75,1599.12 1500.75,47.2441 "/>
<polyline clip-path="url(#clip802)" style="stroke:#000000; stroke-linecap:round; stroke-linejoin:round; stroke-width:2; stroke-opacity:0.1; fill:none" points="2714.82,1599.12 2714.82,47.2441 "/>
<polyline clip-path="url(#clip802)" style="stroke:#000000; stroke-linecap:round; stroke-linejoin:round; stroke-width:2; stroke-opacity:0.1; fill:none" points="324.632,1599.12 324.632,47.2441 "/>
<polyline clip-path="url(#clip802)" style="stroke:#000000; stroke-linecap:round; stroke-linejoin:round; stroke-width:2; stroke-opacity:0.1; fill:none" points="893.723,1599.12 893.723,47.2441 "/>
<polyline clip-path="url(#clip802)" style="stroke:#000000; stroke-linecap:round; stroke-linejoin:round; stroke-width:2; stroke-opacity:0.1; fill:none" points="1500.75,1599.12 1500.75,47.2441 "/>
<polyline clip-path="url(#clip802)" style="stroke:#000000; stroke-linecap:round; stroke-linejoin:round; stroke-width:2; stroke-opacity:0.1; fill:none" points="2714.82,1599.12 2714.82,47.2441 "/>
<polyline clip-path="url(#clip802)" style="stroke:#000000; stroke-linecap:round; stroke-linejoin:round; stroke-width:2; stroke-opacity:0.1; fill:none" points="286.692,1373.49 2752.76,1373.49 "/>
<polyline clip-path="url(#clip802)" style="stroke:#000000; stroke-linecap:round; stroke-linejoin:round; stroke-width:2; stroke-opacity:0.1; fill:none" points="286.692,1114.36 2752.76,1114.36 "/>
<polyline clip-path="url(#clip802)" style="stroke:#000000; stroke-linecap:round; stroke-linejoin:round; stroke-width:2; stroke-opacity:0.1; fill:none" points="286.692,855.235 2752.76,855.235 "/>
<polyline clip-path="url(#clip802)" style="stroke:#000000; stroke-linecap:round; stroke-linejoin:round; stroke-width:2; stroke-opacity:0.1; fill:none" points="286.692,596.105 2752.76,596.105 "/>
<polyline clip-path="url(#clip802)" style="stroke:#000000; stroke-linecap:round; stroke-linejoin:round; stroke-width:2; stroke-opacity:0.1; fill:none" points="286.692,336.975 2752.76,336.975 "/>
<polyline clip-path="url(#clip802)" style="stroke:#000000; stroke-linecap:round; stroke-linejoin:round; stroke-width:2; stroke-opacity:0.1; fill:none" points="286.692,77.8458 2752.76,77.8458 "/>
<polyline clip-path="url(#clip802)" style="stroke:#000000; stroke-linecap:round; stroke-linejoin:round; stroke-width:2; stroke-opacity:0.1; fill:none" points="286.692,1373.49 2752.76,1373.49 "/>
<polyline clip-path="url(#clip802)" style="stroke:#000000; stroke-linecap:round; stroke-linejoin:round; stroke-width:2; stroke-opacity:0.1; fill:none" points="286.692,1114.36 2752.76,1114.36 "/>
<polyline clip-path="url(#clip802)" style="stroke:#000000; stroke-linecap:round; stroke-linejoin:round; stroke-width:2; stroke-opacity:0.1; fill:none" points="286.692,855.235 2752.76,855.235 "/>
<polyline clip-path="url(#clip802)" style="stroke:#000000; stroke-linecap:round; stroke-linejoin:round; stroke-width:2; stroke-opacity:0.1; fill:none" points="286.692,596.105 2752.76,596.105 "/>
<polyline clip-path="url(#clip802)" style="stroke:#000000; stroke-linecap:round; stroke-linejoin:round; stroke-width:2; stroke-opacity:0.1; fill:none" points="286.692,336.975 2752.76,336.975 "/>
<polyline clip-path="url(#clip802)" style="stroke:#000000; stroke-linecap:round; stroke-linejoin:round; stroke-width:2; stroke-opacity:0.1; fill:none" points="286.692,77.8458 2752.76,77.8458 "/>
<polyline clip-path="url(#clip800)" style="stroke:#000000; stroke-linecap:round; stroke-linejoin:round; stroke-width:4; stroke-opacity:1; fill:none" points="286.692,1599.12 2752.76,1599.12 "/>
<polyline clip-path="url(#clip800)" style="stroke:#000000; stroke-linecap:round; stroke-linejoin:round; stroke-width:4; stroke-opacity:1; fill:none" points="286.692,47.2441 2752.76,47.2441 "/>
<polyline clip-path="url(#clip800)" style="stroke:#000000; stroke-linecap:round; stroke-linejoin:round; stroke-width:4; stroke-opacity:1; fill:none" points="324.632,1599.12 324.632,1580.22 "/>
<polyline clip-path="url(#clip800)" style="stroke:#000000; stroke-linecap:round; stroke-linejoin:round; stroke-width:4; stroke-opacity:1; fill:none" points="893.723,1599.12 893.723,1580.22 "/>
<polyline clip-path="url(#clip800)" style="stroke:#000000; stroke-linecap:round; stroke-linejoin:round; stroke-width:4; stroke-opacity:1; fill:none" points="1500.75,1599.12 1500.75,1580.22 "/>
<polyline clip-path="url(#clip800)" style="stroke:#000000; stroke-linecap:round; stroke-linejoin:round; stroke-width:4; stroke-opacity:1; fill:none" points="2714.82,1599.12 2714.82,1580.22 "/>
<polyline clip-path="url(#clip800)" style="stroke:#000000; stroke-linecap:round; stroke-linejoin:round; stroke-width:4; stroke-opacity:1; fill:none" points="324.632,47.2441 324.632,66.1417 "/>
<polyline clip-path="url(#clip800)" style="stroke:#000000; stroke-linecap:round; stroke-linejoin:round; stroke-width:4; stroke-opacity:1; fill:none" points="893.723,47.2441 893.723,66.1417 "/>
<polyline clip-path="url(#clip800)" style="stroke:#000000; stroke-linecap:round; stroke-linejoin:round; stroke-width:4; stroke-opacity:1; fill:none" points="1500.75,47.2441 1500.75,66.1417 "/>
<polyline clip-path="url(#clip800)" style="stroke:#000000; stroke-linecap:round; stroke-linejoin:round; stroke-width:4; stroke-opacity:1; fill:none" points="2714.82,47.2441 2714.82,66.1417 "/>
<path clip-path="url(#clip800)" d="M310.205 1680.41 L321.663 1680.41 L321.663 1640.87 L309.198 1643.37 L309.198 1636.98 L321.594 1634.48 L328.607 1634.48 L328.607 1680.41 L340.066 1680.41 L340.066 1686.32 L310.205 1686.32 L310.205 1680.41 Z" fill="#000000" fill-rule="nonzero" fill-opacity="1" /><path clip-path="url(#clip800)" d="M855.633 1680.41 L867.092 1680.41 L867.092 1640.87 L854.626 1643.37 L854.626 1636.98 L867.022 1634.48 L874.036 1634.48 L874.036 1680.41 L885.494 1680.41 L885.494 1686.32 L855.633 1686.32 L855.633 1680.41 Z" fill="#000000" fill-rule="nonzero" fill-opacity="1" /><path clip-path="url(#clip800)" d="M915.529 1657.6 Q910.807 1657.6 908.029 1660.83 Q905.286 1664.06 905.286 1669.69 Q905.286 1675.28 908.029 1678.54 Q910.807 1681.77 915.529 1681.77 Q920.251 1681.77 922.994 1678.54 Q925.772 1675.28 925.772 1669.69 Q925.772 1664.06 922.994 1660.83 Q920.251 1657.6 915.529 1657.6 M929.452 1635.62 L929.452 1642.01 Q926.814 1640.76 924.105 1640.1 Q921.432 1639.44 918.793 1639.44 Q911.848 1639.44 908.168 1644.13 Q904.522 1648.82 904.001 1658.3 Q906.05 1655.28 909.14 1653.68 Q912.23 1652.05 915.946 1652.05 Q923.758 1652.05 928.272 1656.8 Q932.82 1661.53 932.82 1669.69 Q932.82 1677.67 928.098 1682.5 Q923.376 1687.32 915.529 1687.32 Q906.536 1687.32 901.779 1680.45 Q897.022 1673.54 897.022 1660.45 Q897.022 1648.16 902.855 1640.87 Q908.689 1633.54 918.515 1633.54 Q921.154 1633.54 923.827 1634.06 Q926.536 1634.58 929.452 1635.62 Z" fill="#000000" fill-rule="nonzero" fill-opacity="1" /><path clip-path="url(#clip800)" d="M1485.22 1658.37 Q1490.25 1659.44 1493.06 1662.84 Q1495.91 1666.25 1495.91 1671.25 Q1495.91 1678.92 1490.63 1683.12 Q1485.36 1687.32 1475.63 1687.32 Q1472.37 1687.32 1468.9 1686.66 Q1465.46 1686.04 1461.78 1684.75 L1461.78 1677.98 Q1464.7 1679.69 1468.17 1680.55 Q1471.64 1681.42 1475.42 1681.42 Q1482.02 1681.42 1485.46 1678.82 Q1488.93 1676.21 1488.93 1671.25 Q1488.93 1666.66 1485.7 1664.09 Q1482.51 1661.49 1476.78 1661.49 L1470.74 1661.49 L1470.74 1655.73 L1477.06 1655.73 Q1482.23 1655.73 1484.97 1653.68 Q1487.72 1651.59 1487.72 1647.71 Q1487.72 1643.71 1484.87 1641.6 Q1482.06 1639.44 1476.78 1639.44 Q1473.9 1639.44 1470.6 1640.07 Q1467.3 1640.69 1463.34 1642.01 L1463.34 1635.76 Q1467.33 1634.65 1470.81 1634.1 Q1474.31 1633.54 1477.4 1633.54 Q1485.39 1633.54 1490.04 1637.19 Q1494.7 1640.8 1494.7 1646.98 Q1494.7 1651.28 1492.23 1654.27 Q1489.76 1657.22 1485.22 1658.37 Z" fill="#000000" fill-rule="nonzero" fill-opacity="1" /><path clip-path="url(#clip800)" d="M1515.25 1680.41 L1539.73 1680.41 L1539.73 1686.32 L1506.81 1686.32 L1506.81 1680.41 Q1510.81 1676.28 1517.68 1669.34 Q1524.59 1662.36 1526.36 1660.34 Q1529.73 1656.56 1531.05 1653.96 Q1532.4 1651.32 1532.4 1648.78 Q1532.4 1644.65 1529.49 1642.05 Q1526.6 1639.44 1521.95 1639.44 Q1518.65 1639.44 1514.97 1640.59 Q1511.33 1641.73 1507.16 1644.06 L1507.16 1636.98 Q1511.4 1635.28 1515.08 1634.41 Q1518.76 1633.54 1521.81 1633.54 Q1529.87 1633.54 1534.66 1637.57 Q1539.45 1641.6 1539.45 1648.33 Q1539.45 1651.53 1538.24 1654.41 Q1537.06 1657.25 1533.9 1661.14 Q1533.03 1662.15 1528.38 1666.98 Q1523.72 1671.77 1515.25 1680.41 Z" fill="#000000" fill-rule="nonzero" fill-opacity="1" /><path clip-path="url(#clip800)" d="M2692.56 1657.6 Q2687.84 1657.6 2685.06 1660.83 Q2682.32 1664.06 2682.32 1669.69 Q2682.32 1675.28 2685.06 1678.54 Q2687.84 1681.77 2692.56 1681.77 Q2697.28 1681.77 2700.02 1678.54 Q2702.8 1675.28 2702.8 1669.69 Q2702.8 1664.06 2700.02 1660.83 Q2697.28 1657.6 2692.56 1657.6 M2706.48 1635.62 L2706.48 1642.01 Q2703.84 1640.76 2701.14 1640.1 Q2698.46 1639.44 2695.82 1639.44 Q2688.88 1639.44 2685.2 1644.13 Q2681.55 1648.82 2681.03 1658.3 Q2683.08 1655.28 2686.17 1653.68 Q2689.26 1652.05 2692.98 1652.05 Q2700.79 1652.05 2705.3 1656.8 Q2709.85 1661.53 2709.85 1669.69 Q2709.85 1677.67 2705.13 1682.5 Q2700.41 1687.32 2692.56 1687.32 Q2683.57 1687.32 2678.81 1680.45 Q2674.05 1673.54 2674.05 1660.45 Q2674.05 1648.16 2679.89 1640.87 Q2685.72 1633.54 2695.55 1633.54 Q2698.18 1633.54 2700.86 1634.06 Q2703.57 1634.58 2706.48 1635.62 Z" fill="#000000" fill-rule="nonzero" fill-opacity="1" /><path clip-path="url(#clip800)" d="M2741.21 1640.59 L2723.5 1668.26 L2741.21 1668.26 L2741.21 1640.59 M2739.36 1634.48 L2748.18 1634.48 L2748.18 1668.26 L2755.58 1668.26 L2755.58 1674.09 L2748.18 1674.09 L2748.18 1686.32 L2741.21 1686.32 L2741.21 1674.09 L2717.8 1674.09 L2717.8 1667.32 L2739.36 1634.48 Z" fill="#000000" fill-rule="nonzero" fill-opacity="1" /><path clip-path="url(#clip800)" d="M1202.12 1760.84 L1202.12 1786.27 L1195.2 1786.27 L1195.2 1761.07 Q1195.2 1755.09 1192.86 1752.11 Q1190.53 1749.14 1185.87 1749.14 Q1180.26 1749.14 1177.03 1752.72 Q1173.79 1756.29 1173.79 1762.46 L1173.79 1786.27 L1166.83 1786.27 L1166.83 1744.14 L1173.79 1744.14 L1173.79 1750.68 Q1176.28 1746.89 1179.62 1745 Q1183.01 1743.12 1187.41 1743.12 Q1194.67 1743.12 1198.39 1747.64 Q1202.12 1752.11 1202.12 1760.84 Z" fill="#000000" fill-rule="nonzero" fill-opacity="1" /><path clip-path="url(#clip800)" d="M1215.21 1769.64 L1215.21 1744.14 L1222.13 1744.14 L1222.13 1769.38 Q1222.13 1775.36 1224.46 1778.37 Q1226.79 1781.34 1231.46 1781.34 Q1237.06 1781.34 1240.3 1777.77 Q1243.57 1774.19 1243.57 1768.03 L1243.57 1744.14 L1250.49 1744.14 L1250.49 1786.27 L1243.57 1786.27 L1243.57 1779.8 Q1241.05 1783.64 1237.7 1785.52 Q1234.39 1787.36 1229.99 1787.36 Q1222.73 1787.36 1218.97 1782.85 Q1215.21 1778.33 1215.21 1769.64 M1232.62 1743.12 L1232.62 1743.12 Z" fill="#000000" fill-rule="nonzero" fill-opacity="1" /><path clip-path="url(#clip800)" d="M1297.55 1752.23 Q1300.14 1747.56 1303.75 1745.34 Q1307.37 1743.12 1312.26 1743.12 Q1318.84 1743.12 1322.41 1747.75 Q1325.99 1752.34 1325.99 1760.84 L1325.99 1786.27 L1319.03 1786.27 L1319.03 1761.07 Q1319.03 1755.01 1316.88 1752.08 Q1314.74 1749.14 1310.34 1749.14 Q1304.96 1749.14 1301.84 1752.72 Q1298.71 1756.29 1298.71 1762.46 L1298.71 1786.27 L1291.76 1786.27 L1291.76 1761.07 Q1291.76 1754.97 1289.61 1752.08 Q1287.47 1749.14 1282.99 1749.14 Q1277.69 1749.14 1274.56 1752.75 Q1271.44 1756.33 1271.44 1762.46 L1271.44 1786.27 L1264.48 1786.27 L1264.48 1744.14 L1271.44 1744.14 L1271.44 1750.68 Q1273.81 1746.81 1277.12 1744.97 Q1280.43 1743.12 1284.98 1743.12 Q1289.57 1743.12 1292.77 1745.46 Q1296.01 1747.79 1297.55 1752.23 Z" fill="#000000" fill-rule="nonzero" fill-opacity="1" /><path clip-path="url(#clip800)" d="M1370.03 1765.24 Q1370.03 1757.61 1366.87 1753.28 Q1363.75 1748.92 1358.26 1748.92 Q1352.77 1748.92 1349.61 1753.28 Q1346.49 1757.61 1346.49 1765.24 Q1346.49 1772.88 1349.61 1777.24 Q1352.77 1781.57 1358.26 1781.57 Q1363.75 1781.57 1366.87 1777.24 Q1370.03 1772.88 1370.03 1765.24 M1346.49 1750.53 Q1348.67 1746.77 1351.98 1744.97 Q1355.33 1743.12 1359.95 1743.12 Q1367.63 1743.12 1372.4 1749.22 Q1377.22 1755.31 1377.22 1765.24 Q1377.22 1775.17 1372.4 1781.27 Q1367.63 1787.36 1359.95 1787.36 Q1355.33 1787.36 1351.98 1785.55 Q1348.67 1783.71 1346.49 1779.95 L1346.49 1786.27 L1339.53 1786.27 L1339.53 1727.74 L1346.49 1727.74 L1346.49 1750.53 Z" fill="#000000" fill-rule="nonzero" fill-opacity="1" /><path clip-path="url(#clip800)" d="M1424.73 1763.47 L1424.73 1766.86 L1392.9 1766.86 Q1393.35 1774.01 1397.19 1777.77 Q1401.07 1781.49 1407.95 1781.49 Q1411.94 1781.49 1415.66 1780.51 Q1419.42 1779.54 1423.11 1777.58 L1423.11 1784.12 Q1419.38 1785.7 1415.47 1786.53 Q1411.56 1787.36 1407.54 1787.36 Q1397.45 1787.36 1391.55 1781.49 Q1385.68 1775.62 1385.68 1765.62 Q1385.68 1755.27 1391.25 1749.22 Q1396.85 1743.12 1406.33 1743.12 Q1414.83 1743.12 1419.76 1748.62 Q1424.73 1754.07 1424.73 1763.47 M1417.8 1761.44 Q1417.73 1755.76 1414.61 1752.38 Q1411.52 1748.99 1406.41 1748.99 Q1400.61 1748.99 1397.12 1752.26 Q1393.66 1755.54 1393.13 1761.48 L1417.8 1761.44 Z" fill="#000000" fill-rule="nonzero" fill-opacity="1" /><path clip-path="url(#clip800)" d="M1460.5 1750.61 Q1459.33 1749.93 1457.94 1749.63 Q1456.59 1749.29 1454.93 1749.29 Q1449.06 1749.29 1445.9 1753.13 Q1442.78 1756.93 1442.78 1764.08 L1442.78 1786.27 L1435.82 1786.27 L1435.82 1744.14 L1442.78 1744.14 L1442.78 1750.68 Q1444.96 1746.85 1448.46 1745 Q1451.96 1743.12 1456.96 1743.12 Q1457.68 1743.12 1458.54 1743.24 Q1459.41 1743.31 1460.46 1743.5 L1460.5 1750.61 Z" fill="#000000" fill-rule="nonzero" fill-opacity="1" /><path clip-path="url(#clip800)" d="M1508.57 1748.99 Q1503 1748.99 1499.77 1753.36 Q1496.53 1757.68 1496.53 1765.24 Q1496.53 1772.8 1499.73 1777.17 Q1502.97 1781.49 1508.57 1781.49 Q1514.1 1781.49 1517.34 1777.13 Q1520.57 1772.77 1520.57 1765.24 Q1520.57 1757.76 1517.34 1753.39 Q1514.1 1748.99 1508.57 1748.99 M1508.57 1743.12 Q1517.6 1743.12 1522.75 1748.99 Q1527.91 1754.86 1527.91 1765.24 Q1527.91 1775.59 1522.75 1781.49 Q1517.6 1787.36 1508.57 1787.36 Q1499.51 1787.36 1494.35 1781.49 Q1489.24 1775.59 1489.24 1765.24 Q1489.24 1754.86 1494.35 1748.99 Q1499.51 1743.12 1508.57 1743.12 Z" fill="#000000" fill-rule="nonzero" fill-opacity="1" /><path clip-path="url(#clip800)" d="M1560.71 1727.74 L1560.71 1733.49 L1554.09 1733.49 Q1550.36 1733.49 1548.89 1735 Q1547.47 1736.5 1547.47 1740.42 L1547.47 1744.14 L1558.86 1744.14 L1558.86 1749.52 L1547.47 1749.52 L1547.47 1786.27 L1540.51 1786.27 L1540.51 1749.52 L1533.89 1749.52 L1533.89 1744.14 L1540.51 1744.14 L1540.51 1741.21 Q1540.51 1734.17 1543.78 1730.97 Q1547.05 1727.74 1554.16 1727.74 L1560.71 1727.74 Z" fill="#000000" fill-rule="nonzero" fill-opacity="1" /><path clip-path="url(#clip800)" d="M1597.83 1732.18 L1597.83 1744.14 L1612.09 1744.14 L1612.09 1749.52 L1597.83 1749.52 L1597.83 1772.39 Q1597.83 1777.54 1599.22 1779.01 Q1600.65 1780.48 1604.98 1780.48 L1612.09 1780.48 L1612.09 1786.27 L1604.98 1786.27 Q1596.97 1786.27 1593.92 1783.3 Q1590.87 1780.29 1590.87 1772.39 L1590.87 1749.52 L1585.8 1749.52 L1585.8 1744.14 L1590.87 1744.14 L1590.87 1732.18 L1597.83 1732.18 Z" fill="#000000" fill-rule="nonzero" fill-opacity="1" /><path clip-path="url(#clip800)" d="M1656.21 1760.84 L1656.21 1786.27 L1649.29 1786.27 L1649.29 1761.07 Q1649.29 1755.09 1646.96 1752.11 Q1644.63 1749.14 1639.96 1749.14 Q1634.36 1749.14 1631.12 1752.72 Q1627.89 1756.29 1627.89 1762.46 L1627.89 1786.27 L1620.93 1786.27 L1620.93 1727.74 L1627.89 1727.74 L1627.89 1750.68 Q1630.37 1746.89 1633.72 1745 Q1637.1 1743.12 1641.5 1743.12 Q1648.76 1743.12 1652.49 1747.64 Q1656.21 1752.11 1656.21 1760.84 Z" fill="#000000" fill-rule="nonzero" fill-opacity="1" /><path clip-path="url(#clip800)" d="M1694.43 1750.61 Q1693.26 1749.93 1691.87 1749.63 Q1690.52 1749.29 1688.86 1749.29 Q1682.99 1749.29 1679.83 1753.13 Q1676.71 1756.93 1676.71 1764.08 L1676.71 1786.27 L1669.75 1786.27 L1669.75 1744.14 L1676.71 1744.14 L1676.71 1750.68 Q1678.89 1746.85 1682.39 1745 Q1685.89 1743.12 1690.89 1743.12 Q1691.61 1743.12 1692.47 1743.24 Q1693.34 1743.31 1694.39 1743.5 L1694.43 1750.61 Z" fill="#000000" fill-rule="nonzero" fill-opacity="1" /><path clip-path="url(#clip800)" d="M1736.03 1763.47 L1736.03 1766.86 L1704.21 1766.86 Q1704.66 1774.01 1708.5 1777.77 Q1712.37 1781.49 1719.26 1781.49 Q1723.24 1781.49 1726.97 1780.51 Q1730.73 1779.54 1734.41 1777.58 L1734.41 1784.12 Q1730.69 1785.7 1726.78 1786.53 Q1722.87 1787.36 1718.84 1787.36 Q1708.76 1787.36 1702.86 1781.49 Q1696.99 1775.62 1696.99 1765.62 Q1696.99 1755.27 1702.55 1749.22 Q1708.16 1743.12 1717.64 1743.12 Q1726.14 1743.12 1731.07 1748.62 Q1736.03 1754.07 1736.03 1763.47 M1729.11 1761.44 Q1729.04 1755.76 1725.91 1752.38 Q1722.83 1748.99 1717.71 1748.99 Q1711.92 1748.99 1708.42 1752.26 Q1704.96 1755.54 1704.44 1761.48 L1729.11 1761.44 Z" fill="#000000" fill-rule="nonzero" fill-opacity="1" /><path clip-path="url(#clip800)" d="M1766.54 1765.09 Q1758.15 1765.09 1754.92 1767.01 Q1751.68 1768.93 1751.68 1773.55 Q1751.68 1777.24 1754.09 1779.42 Q1756.53 1781.57 1760.71 1781.57 Q1766.46 1781.57 1769.92 1777.5 Q1773.42 1773.4 1773.42 1766.63 L1773.42 1765.09 L1766.54 1765.09 M1780.34 1762.23 L1780.34 1786.27 L1773.42 1786.27 L1773.42 1779.87 Q1771.05 1783.71 1767.52 1785.55 Q1763.98 1787.36 1758.86 1787.36 Q1752.4 1787.36 1748.56 1783.75 Q1744.76 1780.1 1744.76 1774.01 Q1744.76 1766.9 1749.5 1763.29 Q1754.28 1759.67 1763.72 1759.67 L1773.42 1759.67 L1773.42 1759 Q1773.42 1754.22 1770.26 1751.63 Q1767.14 1748.99 1761.46 1748.99 Q1757.85 1748.99 1754.43 1749.86 Q1751 1750.72 1747.84 1752.45 L1747.84 1746.06 Q1751.64 1744.59 1755.22 1743.88 Q1758.79 1743.12 1762.18 1743.12 Q1771.32 1743.12 1775.83 1747.86 Q1780.34 1752.6 1780.34 1762.23 Z" fill="#000000" fill-rule="nonzero" fill-opacity="1" /><path clip-path="url(#clip800)" d="M1822.32 1750.53 L1822.32 1727.74 L1829.24 1727.74 L1829.24 1786.27 L1822.32 1786.27 L1822.32 1779.95 Q1820.14 1783.71 1816.79 1785.55 Q1813.48 1787.36 1808.82 1787.36 Q1801.18 1787.36 1796.37 1781.27 Q1791.59 1775.17 1791.59 1765.24 Q1791.59 1755.31 1796.37 1749.22 Q1801.18 1743.12 1808.82 1743.12 Q1813.48 1743.12 1816.79 1744.97 Q1820.14 1746.77 1822.32 1750.53 M1798.74 1765.24 Q1798.74 1772.88 1801.86 1777.24 Q1805.02 1781.57 1810.51 1781.57 Q1816 1781.57 1819.16 1777.24 Q1822.32 1772.88 1822.32 1765.24 Q1822.32 1757.61 1819.16 1753.28 Q1816 1748.92 1810.51 1748.92 Q1805.02 1748.92 1801.86 1753.28 Q1798.74 1757.61 1798.74 1765.24 Z" fill="#000000" fill-rule="nonzero" fill-opacity="1" /><path clip-path="url(#clip800)" d="M1870.36 1745.38 L1870.36 1751.93 Q1867.42 1750.42 1864.26 1749.67 Q1861.1 1748.92 1857.72 1748.92 Q1852.57 1748.92 1849.97 1750.5 Q1847.41 1752.08 1847.41 1755.24 Q1847.41 1757.64 1849.26 1759.04 Q1851.1 1760.39 1856.67 1761.63 L1859.04 1762.16 Q1866.41 1763.74 1869.49 1766.63 Q1872.61 1769.49 1872.61 1774.65 Q1872.61 1780.51 1867.95 1783.94 Q1863.32 1787.36 1855.2 1787.36 Q1851.81 1787.36 1848.13 1786.68 Q1844.48 1786.04 1840.42 1784.73 L1840.42 1777.58 Q1844.25 1779.57 1847.98 1780.59 Q1851.7 1781.57 1855.35 1781.57 Q1860.24 1781.57 1862.87 1779.91 Q1865.5 1778.22 1865.5 1775.17 Q1865.5 1772.35 1863.59 1770.85 Q1861.71 1769.34 1855.27 1767.95 L1852.87 1767.39 Q1846.43 1766.03 1843.58 1763.25 Q1840.72 1760.43 1840.72 1755.54 Q1840.72 1749.59 1844.93 1746.36 Q1849.14 1743.12 1856.89 1743.12 Q1860.73 1743.12 1864.11 1743.69 Q1867.5 1744.25 1870.36 1745.38 Z" fill="#000000" fill-rule="nonzero" fill-opacity="1" /><polyline clip-path="url(#clip800)" style="stroke:#000000; stroke-linecap:round; stroke-linejoin:round; stroke-width:4; stroke-opacity:1; fill:none" points="286.692,1599.12 286.692,47.2441 "/>
<polyline clip-path="url(#clip800)" style="stroke:#000000; stroke-linecap:round; stroke-linejoin:round; stroke-width:4; stroke-opacity:1; fill:none" points="2752.76,1599.12 2752.76,47.2441 "/>
<polyline clip-path="url(#clip800)" style="stroke:#000000; stroke-linecap:round; stroke-linejoin:round; stroke-width:4; stroke-opacity:1; fill:none" points="286.692,1373.49 305.59,1373.49 "/>
<polyline clip-path="url(#clip800)" style="stroke:#000000; stroke-linecap:round; stroke-linejoin:round; stroke-width:4; stroke-opacity:1; fill:none" points="286.692,1114.36 305.59,1114.36 "/>
<polyline clip-path="url(#clip800)" style="stroke:#000000; stroke-linecap:round; stroke-linejoin:round; stroke-width:4; stroke-opacity:1; fill:none" points="286.692,855.235 305.59,855.235 "/>
<polyline clip-path="url(#clip800)" style="stroke:#000000; stroke-linecap:round; stroke-linejoin:round; stroke-width:4; stroke-opacity:1; fill:none" points="286.692,596.105 305.59,596.105 "/>
<polyline clip-path="url(#clip800)" style="stroke:#000000; stroke-linecap:round; stroke-linejoin:round; stroke-width:4; stroke-opacity:1; fill:none" points="286.692,336.975 305.59,336.975 "/>
<polyline clip-path="url(#clip800)" style="stroke:#000000; stroke-linecap:round; stroke-linejoin:round; stroke-width:4; stroke-opacity:1; fill:none" points="286.692,77.8458 305.59,77.8458 "/>
<polyline clip-path="url(#clip800)" style="stroke:#000000; stroke-linecap:round; stroke-linejoin:round; stroke-width:4; stroke-opacity:1; fill:none" points="2752.76,1373.49 2733.86,1373.49 "/>
<polyline clip-path="url(#clip800)" style="stroke:#000000; stroke-linecap:round; stroke-linejoin:round; stroke-width:4; stroke-opacity:1; fill:none" points="2752.76,1114.36 2733.86,1114.36 "/>
<polyline clip-path="url(#clip800)" style="stroke:#000000; stroke-linecap:round; stroke-linejoin:round; stroke-width:4; stroke-opacity:1; fill:none" points="2752.76,855.235 2733.86,855.235 "/>
<polyline clip-path="url(#clip800)" style="stroke:#000000; stroke-linecap:round; stroke-linejoin:round; stroke-width:4; stroke-opacity:1; fill:none" points="2752.76,596.105 2733.86,596.105 "/>
<polyline clip-path="url(#clip800)" style="stroke:#000000; stroke-linecap:round; stroke-linejoin:round; stroke-width:4; stroke-opacity:1; fill:none" points="2752.76,336.975 2733.86,336.975 "/>
<polyline clip-path="url(#clip800)" style="stroke:#000000; stroke-linecap:round; stroke-linejoin:round; stroke-width:4; stroke-opacity:1; fill:none" points="2752.76,77.8458 2733.86,77.8458 "/>
<path clip-path="url(#clip800)" d="M166.603 1347.57 L194.137 1347.57 L194.137 1353.48 L173.026 1353.48 L173.026 1366.19 Q174.554 1365.66 176.082 1365.42 Q177.609 1365.14 179.137 1365.14 Q187.818 1365.14 192.887 1369.9 Q197.957 1374.66 197.957 1382.78 Q197.957 1391.15 192.748 1395.8 Q187.54 1400.42 178.061 1400.42 Q174.797 1400.42 171.394 1399.87 Q168.026 1399.31 164.415 1398.2 L164.415 1391.15 Q167.54 1392.85 170.873 1393.69 Q174.207 1394.52 177.922 1394.52 Q183.929 1394.52 187.436 1391.36 Q190.943 1388.2 190.943 1382.78 Q190.943 1377.37 187.436 1374.21 Q183.929 1371.05 177.922 1371.05 Q175.109 1371.05 172.297 1371.67 Q169.519 1372.3 166.603 1373.62 L166.603 1347.57 Z" fill="#000000" fill-rule="nonzero" fill-opacity="1" /><path clip-path="url(#clip800)" d="M226.776 1352.19 Q221.359 1352.19 218.616 1357.54 Q215.908 1362.85 215.908 1373.55 Q215.908 1384.21 218.616 1389.55 Q221.359 1394.87 226.776 1394.87 Q232.227 1394.87 234.935 1389.55 Q237.679 1384.21 237.679 1373.55 Q237.679 1362.85 234.935 1357.54 Q232.227 1352.19 226.776 1352.19 M226.776 1346.64 Q235.491 1346.64 240.074 1353.55 Q244.692 1360.42 244.692 1373.55 Q244.692 1386.64 240.074 1393.55 Q235.491 1400.42 226.776 1400.42 Q218.061 1400.42 213.443 1393.55 Q208.859 1386.64 208.859 1373.55 Q208.859 1360.42 213.443 1353.55 Q218.061 1346.64 226.776 1346.64 Z" fill="#000000" fill-rule="nonzero" fill-opacity="1" /><path clip-path="url(#clip800)" d="M122.506 1134.38 L133.964 1134.38 L133.964 1094.83 L121.499 1097.33 L121.499 1090.94 L133.894 1088.44 L140.908 1088.44 L140.908 1134.38 L152.366 1134.38 L152.366 1140.28 L122.506 1140.28 L122.506 1134.38 Z" fill="#000000" fill-rule="nonzero" fill-opacity="1" /><path clip-path="url(#clip800)" d="M181.533 1093.06 Q176.116 1093.06 173.373 1098.41 Q170.665 1103.72 170.665 1114.42 Q170.665 1125.08 173.373 1130.42 Q176.116 1135.74 181.533 1135.74 Q186.984 1135.74 189.693 1130.42 Q192.436 1125.08 192.436 1114.42 Q192.436 1103.72 189.693 1098.41 Q186.984 1093.06 181.533 1093.06 M181.533 1087.51 Q190.248 1087.51 194.832 1094.42 Q199.45 1101.29 199.45 1114.42 Q199.45 1127.51 194.832 1134.42 Q190.248 1141.29 181.533 1141.29 Q172.818 1141.29 168.2 1134.42 Q163.616 1127.51 163.616 1114.42 Q163.616 1101.29 168.2 1094.42 Q172.818 1087.51 181.533 1087.51 Z" fill="#000000" fill-rule="nonzero" fill-opacity="1" /><path clip-path="url(#clip800)" d="M226.776 1093.06 Q221.359 1093.06 218.616 1098.41 Q215.908 1103.72 215.908 1114.42 Q215.908 1125.08 218.616 1130.42 Q221.359 1135.74 226.776 1135.74 Q232.227 1135.74 234.935 1130.42 Q237.679 1125.08 237.679 1114.42 Q237.679 1103.72 234.935 1098.41 Q232.227 1093.06 226.776 1093.06 M226.776 1087.51 Q235.491 1087.51 240.074 1094.42 Q244.692 1101.29 244.692 1114.42 Q244.692 1127.51 240.074 1134.42 Q235.491 1141.29 226.776 1141.29 Q218.061 1141.29 213.443 1134.42 Q208.859 1127.51 208.859 1114.42 Q208.859 1101.29 213.443 1094.42 Q218.061 1087.51 226.776 1087.51 Z" fill="#000000" fill-rule="nonzero" fill-opacity="1" /><path clip-path="url(#clip800)" d="M122.506 875.252 L133.964 875.252 L133.964 835.704 L121.499 838.204 L121.499 831.815 L133.894 829.315 L140.908 829.315 L140.908 875.252 L152.366 875.252 L152.366 881.155 L122.506 881.155 L122.506 875.252 Z" fill="#000000" fill-rule="nonzero" fill-opacity="1" /><path clip-path="url(#clip800)" d="M166.603 829.315 L194.137 829.315 L194.137 835.218 L173.026 835.218 L173.026 847.926 Q174.554 847.405 176.082 847.162 Q177.609 846.884 179.137 846.884 Q187.818 846.884 192.887 851.641 Q197.957 856.398 197.957 864.523 Q197.957 872.891 192.748 877.544 Q187.54 882.162 178.061 882.162 Q174.797 882.162 171.394 881.606 Q168.026 881.051 164.415 879.94 L164.415 872.891 Q167.54 874.592 170.873 875.426 Q174.207 876.259 177.922 876.259 Q183.929 876.259 187.436 873.099 Q190.943 869.94 190.943 864.523 Q190.943 859.106 187.436 855.947 Q183.929 852.787 177.922 852.787 Q175.109 852.787 172.297 853.412 Q169.519 854.037 166.603 855.356 L166.603 829.315 Z" fill="#000000" fill-rule="nonzero" fill-opacity="1" /><path clip-path="url(#clip800)" d="M226.776 833.933 Q221.359 833.933 218.616 839.28 Q215.908 844.593 215.908 855.287 Q215.908 865.947 218.616 871.294 Q221.359 876.606 226.776 876.606 Q232.227 876.606 234.935 871.294 Q237.679 865.947 237.679 855.287 Q237.679 844.593 234.935 839.28 Q232.227 833.933 226.776 833.933 M226.776 828.377 Q235.491 828.377 240.074 835.287 Q244.692 842.162 244.692 855.287 Q244.692 868.377 240.074 875.287 Q235.491 882.162 226.776 882.162 Q218.061 882.162 213.443 875.287 Q208.859 868.377 208.859 855.287 Q208.859 842.162 213.443 835.287 Q218.061 828.377 226.776 828.377 Z" fill="#000000" fill-rule="nonzero" fill-opacity="1" /><path clip-path="url(#clip800)" d="M127.332 616.122 L151.811 616.122 L151.811 622.025 L118.894 622.025 L118.894 616.122 Q122.887 611.991 129.762 605.046 Q136.672 598.067 138.443 596.053 Q141.811 592.268 143.13 589.664 Q144.485 587.025 144.485 584.491 Q144.485 580.359 141.568 577.755 Q138.686 575.15 134.033 575.15 Q130.735 575.15 127.054 576.296 Q123.408 577.442 119.242 579.768 L119.242 572.685 Q123.478 570.984 127.158 570.116 Q130.839 569.248 133.894 569.248 Q141.95 569.248 146.742 573.275 Q151.533 577.303 151.533 584.039 Q151.533 587.234 150.318 590.116 Q149.137 592.963 145.978 596.852 Q145.11 597.859 140.457 602.685 Q135.804 607.477 127.332 616.122 Z" fill="#000000" fill-rule="nonzero" fill-opacity="1" /><path clip-path="url(#clip800)" d="M181.533 574.803 Q176.116 574.803 173.373 580.15 Q170.665 585.463 170.665 596.157 Q170.665 606.817 173.373 612.164 Q176.116 617.477 181.533 617.477 Q186.984 617.477 189.693 612.164 Q192.436 606.817 192.436 596.157 Q192.436 585.463 189.693 580.15 Q186.984 574.803 181.533 574.803 M181.533 569.248 Q190.248 569.248 194.832 576.157 Q199.45 583.032 199.45 596.157 Q199.45 609.247 194.832 616.157 Q190.248 623.032 181.533 623.032 Q172.818 623.032 168.2 616.157 Q163.616 609.247 163.616 596.157 Q163.616 583.032 168.2 576.157 Q172.818 569.248 181.533 569.248 Z" fill="#000000" fill-rule="nonzero" fill-opacity="1" /><path clip-path="url(#clip800)" d="M226.776 574.803 Q221.359 574.803 218.616 580.15 Q215.908 585.463 215.908 596.157 Q215.908 606.817 218.616 612.164 Q221.359 617.477 226.776 617.477 Q232.227 617.477 234.935 612.164 Q237.679 606.817 237.679 596.157 Q237.679 585.463 234.935 580.15 Q232.227 574.803 226.776 574.803 M226.776 569.248 Q235.491 569.248 240.074 576.157 Q244.692 583.032 244.692 596.157 Q244.692 609.247 240.074 616.157 Q235.491 623.032 226.776 623.032 Q218.061 623.032 213.443 616.157 Q208.859 609.247 208.859 596.157 Q208.859 583.032 213.443 576.157 Q218.061 569.248 226.776 569.248 Z" fill="#000000" fill-rule="nonzero" fill-opacity="1" /><path clip-path="url(#clip800)" d="M127.332 356.993 L151.811 356.993 L151.811 362.895 L118.894 362.895 L118.894 356.993 Q122.887 352.861 129.762 345.916 Q136.672 338.937 138.443 336.923 Q141.811 333.139 143.13 330.535 Q144.485 327.896 144.485 325.361 Q144.485 321.229 141.568 318.625 Q138.686 316.021 134.033 316.021 Q130.735 316.021 127.054 317.167 Q123.408 318.312 119.242 320.639 L119.242 313.555 Q123.478 311.854 127.158 310.986 Q130.839 310.118 133.894 310.118 Q141.95 310.118 146.742 314.146 Q151.533 318.173 151.533 324.91 Q151.533 328.104 150.318 330.986 Q149.137 333.833 145.978 337.722 Q145.11 338.729 140.457 343.555 Q135.804 348.347 127.332 356.993 Z" fill="#000000" fill-rule="nonzero" fill-opacity="1" /><path clip-path="url(#clip800)" d="M166.603 311.055 L194.137 311.055 L194.137 316.958 L173.026 316.958 L173.026 329.666 Q174.554 329.146 176.082 328.903 Q177.609 328.625 179.137 328.625 Q187.818 328.625 192.887 333.382 Q197.957 338.139 197.957 346.264 Q197.957 354.632 192.748 359.284 Q187.54 363.902 178.061 363.902 Q174.797 363.902 171.394 363.347 Q168.026 362.791 164.415 361.68 L164.415 354.632 Q167.54 356.333 170.873 357.166 Q174.207 358 177.922 358 Q183.929 358 187.436 354.84 Q190.943 351.68 190.943 346.264 Q190.943 340.847 187.436 337.687 Q183.929 334.528 177.922 334.528 Q175.109 334.528 172.297 335.153 Q169.519 335.778 166.603 337.097 L166.603 311.055 Z" fill="#000000" fill-rule="nonzero" fill-opacity="1" /><path clip-path="url(#clip800)" d="M226.776 315.673 Q221.359 315.673 218.616 321.021 Q215.908 326.333 215.908 337.028 Q215.908 347.687 218.616 353.034 Q221.359 358.347 226.776 358.347 Q232.227 358.347 234.935 353.034 Q237.679 347.687 237.679 337.028 Q237.679 326.333 234.935 321.021 Q232.227 315.673 226.776 315.673 M226.776 310.118 Q235.491 310.118 240.074 317.028 Q244.692 323.903 244.692 337.028 Q244.692 350.118 240.074 357.027 Q235.491 363.902 226.776 363.902 Q218.061 363.902 213.443 357.027 Q208.859 350.118 208.859 337.028 Q208.859 323.903 213.443 317.028 Q218.061 310.118 226.776 310.118 Z" fill="#000000" fill-rule="nonzero" fill-opacity="1" /><path clip-path="url(#clip800)" d="M142.54 75.8145 Q147.575 76.8909 150.387 80.2937 Q153.235 83.6964 153.235 88.6964 Q153.235 96.37 147.957 100.571 Q142.679 104.773 132.957 104.773 Q129.693 104.773 126.221 104.113 Q122.783 103.488 119.103 102.203 L119.103 95.4325 Q122.019 97.1338 125.492 98.0019 Q128.964 98.87 132.749 98.87 Q139.346 98.87 142.783 96.2658 Q146.255 93.6616 146.255 88.6964 Q146.255 84.1131 143.026 81.5437 Q139.832 78.9395 134.103 78.9395 L128.061 78.9395 L128.061 73.1756 L134.38 73.1756 Q139.554 73.1756 142.297 71.127 Q145.04 69.0437 145.04 65.1549 Q145.04 61.1618 142.193 59.0438 Q139.38 56.891 134.103 56.891 Q131.221 56.891 127.922 57.516 Q124.624 58.141 120.665 59.4604 L120.665 53.2105 Q124.658 52.0994 128.131 51.5438 Q131.637 50.9883 134.728 50.9883 Q142.714 50.9883 147.367 54.6341 Q152.019 58.2452 152.019 64.4257 Q152.019 68.7312 149.554 71.7173 Q147.089 74.6687 142.54 75.8145 Z" fill="#000000" fill-rule="nonzero" fill-opacity="1" /><path clip-path="url(#clip800)" d="M181.533 56.5438 Q176.116 56.5438 173.373 61.891 Q170.665 67.2035 170.665 77.8978 Q170.665 88.5575 173.373 93.9047 Q176.116 99.2172 181.533 99.2172 Q186.984 99.2172 189.693 93.9047 Q192.436 88.5575 192.436 77.8978 Q192.436 67.2035 189.693 61.891 Q186.984 56.5438 181.533 56.5438 M181.533 50.9883 Q190.248 50.9883 194.832 57.8979 Q199.45 64.7729 199.45 77.8978 Q199.45 90.988 194.832 97.8977 Q190.248 104.773 181.533 104.773 Q172.818 104.773 168.2 97.8977 Q163.616 90.988 163.616 77.8978 Q163.616 64.7729 168.2 57.8979 Q172.818 50.9883 181.533 50.9883 Z" fill="#000000" fill-rule="nonzero" fill-opacity="1" /><path clip-path="url(#clip800)" d="M226.776 56.5438 Q221.359 56.5438 218.616 61.891 Q215.908 67.2035 215.908 77.8978 Q215.908 88.5575 218.616 93.9047 Q221.359 99.2172 226.776 99.2172 Q232.227 99.2172 234.935 93.9047 Q237.679 88.5575 237.679 77.8978 Q237.679 67.2035 234.935 61.891 Q232.227 56.5438 226.776 56.5438 M226.776 50.9883 Q235.491 50.9883 240.074 57.8979 Q244.692 64.7729 244.692 77.8978 Q244.692 90.988 240.074 97.8977 Q235.491 104.773 226.776 104.773 Q218.061 104.773 213.443 97.8977 Q208.859 90.988 208.859 77.8978 Q208.859 64.7729 213.443 57.8979 Q218.061 50.9883 226.776 50.9883 Z" fill="#000000" fill-rule="nonzero" fill-opacity="1" /><path clip-path="url(#clip800)" d="M26.0044 1291.19 Q21.3401 1288.6 19.1207 1284.99 Q16.9014 1281.38 16.9014 1276.49 Q16.9014 1269.9 21.5281 1266.33 Q26.1172 1262.76 34.6183 1262.76 L60.0464 1262.76 L60.0464 1269.71 L34.844 1269.71 Q28.7879 1269.71 25.8539 1271.86 Q22.9199 1274 22.9199 1278.4 Q22.9199 1283.78 26.4934 1286.9 Q30.0669 1290.03 36.2358 1290.03 L60.0464 1290.03 L60.0464 1296.99 L34.844 1296.99 Q28.7503 1296.99 25.8539 1299.13 Q22.9199 1301.27 22.9199 1305.75 Q22.9199 1311.05 26.531 1314.18 Q30.1045 1317.3 36.2358 1317.3 L60.0464 1317.3 L60.0464 1324.26 L17.917 1324.26 L17.917 1317.3 L24.4621 1317.3 Q20.5877 1314.93 18.7446 1311.62 Q16.9014 1308.31 16.9014 1303.76 Q16.9014 1299.17 19.2336 1295.97 Q21.5657 1292.74 26.0044 1291.19 Z" fill="#000000" fill-rule="nonzero" fill-opacity="1" /><path clip-path="url(#clip800)" d="M37.2514 1212.92 L40.6368 1212.92 L40.6368 1244.74 Q47.7838 1244.29 51.5453 1240.45 Q55.2693 1236.58 55.2693 1229.69 Q55.2693 1225.7 54.2913 1221.98 Q53.3133 1218.22 51.3573 1214.53 L57.9024 1214.53 Q59.4822 1218.26 60.3098 1222.17 Q61.1373 1226.08 61.1373 1230.11 Q61.1373 1240.19 55.2693 1246.09 Q49.4012 1251.96 39.3955 1251.96 Q29.0512 1251.96 22.9951 1246.39 Q16.9014 1240.79 16.9014 1231.31 Q16.9014 1222.81 22.3933 1217.88 Q27.8475 1212.92 37.2514 1212.92 M35.2202 1219.84 Q29.5402 1219.91 26.1548 1223.03 Q22.7694 1226.12 22.7694 1231.23 Q22.7694 1237.03 26.042 1240.52 Q29.3145 1243.99 35.2578 1244.51 L35.2202 1219.84 Z" fill="#000000" fill-rule="nonzero" fill-opacity="1" /><path clip-path="url(#clip800)" d="M26.0044 1168.75 Q21.3401 1166.16 19.1207 1162.55 Q16.9014 1158.94 16.9014 1154.05 Q16.9014 1147.46 21.5281 1143.89 Q26.1172 1140.32 34.6183 1140.32 L60.0464 1140.32 L60.0464 1147.28 L34.844 1147.28 Q28.7879 1147.28 25.8539 1149.42 Q22.9199 1151.56 22.9199 1155.97 Q22.9199 1161.34 26.4934 1164.47 Q30.0669 1167.59 36.2358 1167.59 L60.0464 1167.59 L60.0464 1174.55 L34.844 1174.55 Q28.7503 1174.55 25.8539 1176.69 Q22.9199 1178.84 22.9199 1183.31 Q22.9199 1188.62 26.531 1191.74 Q30.1045 1194.86 36.2358 1194.86 L60.0464 1194.86 L60.0464 1201.82 L17.917 1201.82 L17.917 1194.86 L24.4621 1194.86 Q20.5877 1192.49 18.7446 1189.18 Q16.9014 1185.87 16.9014 1181.32 Q16.9014 1176.73 19.2336 1173.53 Q21.5657 1170.3 26.0044 1168.75 Z" fill="#000000" fill-rule="nonzero" fill-opacity="1" /><path clip-path="url(#clip800)" d="M22.7694 1110.19 Q22.7694 1115.75 27.1328 1118.99 Q31.4586 1122.22 39.0194 1122.22 Q46.5801 1122.22 50.9435 1119.03 Q55.2693 1115.79 55.2693 1110.19 Q55.2693 1104.66 50.9059 1101.42 Q46.5425 1098.19 39.0194 1098.19 Q31.5339 1098.19 27.1705 1101.42 Q22.7694 1104.66 22.7694 1110.19 M16.9014 1110.19 Q16.9014 1101.16 22.7694 1096.01 Q28.6375 1090.85 39.0194 1090.85 Q49.3636 1090.85 55.2693 1096.01 Q61.1373 1101.16 61.1373 1110.19 Q61.1373 1119.25 55.2693 1124.41 Q49.3636 1129.52 39.0194 1129.52 Q28.6375 1129.52 22.7694 1124.41 Q16.9014 1119.25 16.9014 1110.19 Z" fill="#000000" fill-rule="nonzero" fill-opacity="1" /><path clip-path="url(#clip800)" d="M24.3869 1054.97 Q23.7098 1056.13 23.4089 1057.53 Q23.0704 1058.88 23.0704 1060.53 Q23.0704 1066.4 26.9072 1069.56 Q30.7063 1072.68 37.8533 1072.68 L60.0464 1072.68 L60.0464 1079.64 L17.917 1079.64 L17.917 1072.68 L24.4621 1072.68 Q20.6254 1070.5 18.7822 1067 Q16.9014 1063.51 16.9014 1058.5 Q16.9014 1057.79 17.0143 1056.92 Q17.0895 1056.06 17.2776 1055.01 L24.3869 1054.97 Z" fill="#000000" fill-rule="nonzero" fill-opacity="1" /><path clip-path="url(#clip800)" d="M63.9585 1030.18 Q71.4816 1033.11 73.7761 1035.9 Q76.0707 1038.68 76.0707 1043.34 L76.0707 1048.87 L70.2779 1048.87 L70.2779 1044.81 Q70.2779 1041.95 68.9237 1040.37 Q67.5696 1038.79 62.5291 1036.87 L59.3694 1035.63 L17.917 1052.67 L17.917 1045.34 L50.8683 1032.17 L17.917 1019.01 L17.917 1011.67 L63.9585 1030.18 Z" fill="#000000" fill-rule="nonzero" fill-opacity="1" /><path clip-path="url(#clip800)" d="M39.0194 947.387 Q31.3834 947.387 27.0576 950.547 Q22.6942 953.669 22.6942 959.161 Q22.6942 964.653 27.0576 967.812 Q31.3834 970.934 39.0194 970.934 Q46.6553 970.934 51.0187 967.812 Q55.3445 964.653 55.3445 959.161 Q55.3445 953.669 51.0187 950.547 Q46.6553 947.387 39.0194 947.387 M24.3117 970.934 Q20.5501 968.753 18.7446 965.443 Q16.9014 962.095 16.9014 957.468 Q16.9014 949.794 22.9951 945.017 Q29.0889 940.202 39.0194 940.202 Q48.9499 940.202 55.0436 945.017 Q61.1373 949.794 61.1373 957.468 Q61.1373 962.095 59.3317 965.443 Q57.4886 968.753 53.727 970.934 L60.0464 970.934 L60.0464 977.893 L1.51666 977.893 L1.51666 970.934 L24.3117 970.934 Z" fill="#000000" fill-rule="nonzero" fill-opacity="1" /><path clip-path="url(#clip800)" d="M38.8689 909.583 Q38.8689 917.972 40.7873 921.207 Q42.7057 924.442 47.3324 924.442 Q51.0187 924.442 53.2004 922.034 Q55.3445 919.589 55.3445 915.414 Q55.3445 909.659 51.282 906.198 Q47.1819 902.7 40.4111 902.7 L38.8689 902.7 L38.8689 909.583 M36.0101 895.779 L60.0464 895.779 L60.0464 902.7 L53.6518 902.7 Q57.4886 905.07 59.3317 908.605 Q61.1373 912.141 61.1373 917.257 Q61.1373 923.727 57.5262 927.564 Q53.8775 931.363 47.7838 931.363 Q40.6744 931.363 37.0633 926.623 Q33.4523 921.846 33.4523 912.405 L33.4523 902.7 L32.7752 902.7 Q27.998 902.7 25.4025 905.859 Q22.7694 908.982 22.7694 914.662 Q22.7694 918.273 23.6346 921.696 Q24.4998 925.119 26.2301 928.278 L19.8354 928.278 Q18.3684 924.479 17.6537 920.906 Q16.9014 917.332 16.9014 913.947 Q16.9014 904.806 21.641 900.292 Q26.3805 895.779 36.0101 895.779 Z" fill="#000000" fill-rule="nonzero" fill-opacity="1" /><path clip-path="url(#clip800)" d="M34.6183 846.502 L60.0464 846.502 L60.0464 853.423 L34.844 853.423 Q28.8632 853.423 25.8915 855.756 Q22.9199 858.088 22.9199 862.752 Q22.9199 868.357 26.4934 871.592 Q30.0669 874.827 36.2358 874.827 L60.0464 874.827 L60.0464 881.786 L17.917 881.786 L17.917 874.827 L24.4621 874.827 Q20.663 872.344 18.7822 868.996 Q16.9014 865.611 16.9014 861.21 Q16.9014 853.95 21.4153 850.226 Q25.8915 846.502 34.6183 846.502 Z" fill="#000000" fill-rule="nonzero" fill-opacity="1" /><path clip-path="url(#clip800)" d="M24.3117 804.975 L1.51666 804.975 L1.51666 798.053 L60.0464 798.053 L60.0464 804.975 L53.727 804.975 Q57.4886 807.156 59.3317 810.504 Q61.1373 813.814 61.1373 818.479 Q61.1373 826.115 55.0436 830.929 Q48.9499 835.707 39.0194 835.707 Q29.0889 835.707 22.9951 830.929 Q16.9014 826.115 16.9014 818.479 Q16.9014 813.814 18.7446 810.504 Q20.5501 807.156 24.3117 804.975 M39.0194 828.56 Q46.6553 828.56 51.0187 825.437 Q55.3445 822.278 55.3445 816.786 Q55.3445 811.294 51.0187 808.134 Q46.6553 804.975 39.0194 804.975 Q31.3834 804.975 27.0576 808.134 Q22.6942 811.294 22.6942 816.786 Q22.6942 822.278 27.0576 825.437 Q31.3834 828.56 39.0194 828.56 Z" fill="#000000" fill-rule="nonzero" fill-opacity="1" /><path clip-path="url(#clip800)" d="M17.917 787.822 L17.917 780.901 L50.793 772.249 L17.917 763.635 L17.917 755.473 L50.793 746.821 L17.917 738.207 L17.917 731.286 L60.0464 742.307 L60.0464 750.47 L25.5154 759.535 L60.0464 768.638 L60.0464 776.801 L17.917 787.822 Z" fill="#000000" fill-rule="nonzero" fill-opacity="1" /><path clip-path="url(#clip800)" d="M17.917 720.791 L17.917 713.87 L60.0464 713.87 L60.0464 720.791 L17.917 720.791 M1.51666 720.791 L1.51666 713.87 L10.2811 713.87 L10.2811 720.791 L1.51666 720.791 Z" fill="#000000" fill-rule="nonzero" fill-opacity="1" /><path clip-path="url(#clip800)" d="M24.3117 671.665 L1.51666 671.665 L1.51666 664.744 L60.0464 664.744 L60.0464 671.665 L53.727 671.665 Q57.4886 673.847 59.3317 677.195 Q61.1373 680.505 61.1373 685.169 Q61.1373 692.805 55.0436 697.62 Q48.9499 702.397 39.0194 702.397 Q29.0889 702.397 22.9951 697.62 Q16.9014 692.805 16.9014 685.169 Q16.9014 680.505 18.7446 677.195 Q20.5501 673.847 24.3117 671.665 M39.0194 695.25 Q46.6553 695.25 51.0187 692.128 Q55.3445 688.968 55.3445 683.476 Q55.3445 677.985 51.0187 674.825 Q46.6553 671.665 39.0194 671.665 Q31.3834 671.665 27.0576 674.825 Q22.6942 677.985 22.6942 683.476 Q22.6942 688.968 27.0576 692.128 Q31.3834 695.25 39.0194 695.25 Z" fill="#000000" fill-rule="nonzero" fill-opacity="1" /><path clip-path="url(#clip800)" d="M5.9553 643.642 L17.917 643.642 L17.917 629.385 L23.2961 629.385 L23.2961 643.642 L46.1663 643.642 Q51.3196 643.642 52.7866 642.25 Q54.2537 640.82 54.2537 636.495 L54.2537 629.385 L60.0464 629.385 L60.0464 636.495 Q60.0464 644.507 57.0748 647.554 Q54.0656 650.6 46.1663 650.6 L23.2961 650.6 L23.2961 655.679 L17.917 655.679 L17.917 650.6 L5.9553 650.6 L5.9553 643.642 Z" fill="#000000" fill-rule="nonzero" fill-opacity="1" /><path clip-path="url(#clip800)" d="M34.6183 585.262 L60.0464 585.262 L60.0464 592.184 L34.844 592.184 Q28.8632 592.184 25.8915 594.516 Q22.9199 596.848 22.9199 601.512 Q22.9199 607.117 26.4934 610.352 Q30.0669 613.587 36.2358 613.587 L60.0464 613.587 L60.0464 620.546 L1.51666 620.546 L1.51666 613.587 L24.4621 613.587 Q20.663 611.104 18.7822 607.756 Q16.9014 604.371 16.9014 599.97 Q16.9014 592.71 21.4153 588.986 Q25.8915 585.262 34.6183 585.262 Z" fill="#000000" fill-rule="nonzero" fill-opacity="1" /><path clip-path="url(#clip800)" d="M1.51666 547.609 L1.51666 531.66 L6.89569 531.66 L6.89569 540.688 L64.8236 540.688 L64.8236 531.66 L70.2026 531.66 L70.2026 547.609 L1.51666 547.609 Z" fill="#000000" fill-rule="nonzero" fill-opacity="1" /><path clip-path="url(#clip800)" d="M52.0343 478.321 L36.9505 478.321 L36.9505 490.734 L30.7063 490.734 L30.7063 470.798 L54.8179 470.798 Q57.94 475.199 59.5574 480.503 Q61.1373 485.807 61.1373 491.825 Q61.1373 504.991 53.4637 512.439 Q45.7525 519.849 32.0229 519.849 Q18.2556 519.849 10.582 512.439 Q2.87082 504.991 2.87082 491.825 Q2.87082 486.333 4.22498 481.406 Q5.57914 476.44 8.21223 472.265 L16.2996 472.265 Q12.7261 476.478 10.9205 481.218 Q9.115 485.957 9.115 491.186 Q9.115 501.492 14.8702 506.683 Q20.6254 511.837 32.0229 511.837 Q43.3828 511.837 49.1379 506.683 Q54.8931 501.492 54.8931 491.186 Q54.8931 487.161 54.216 484.001 Q53.5013 480.842 52.0343 478.321 Z" fill="#000000" fill-rule="nonzero" fill-opacity="1" /><path clip-path="url(#clip800)" d="M33.2266 449.32 L53.8023 449.32 L53.8023 437.132 Q53.8023 431.001 51.282 428.067 Q48.7242 425.095 43.4956 425.095 Q38.2294 425.095 35.7468 428.067 Q33.2266 431.001 33.2266 437.132 L33.2266 449.32 M10.1306 449.32 L27.0576 449.32 L27.0576 438.073 Q27.0576 432.506 24.9888 429.797 Q22.8823 427.051 18.5941 427.051 Q14.3436 427.051 12.2371 429.797 Q10.1306 432.506 10.1306 438.073 L10.1306 449.32 M3.88644 456.918 L3.88644 437.508 Q3.88644 428.819 7.49753 424.117 Q11.1086 419.415 17.7666 419.415 Q22.9199 419.415 25.9668 421.823 Q29.0136 424.23 29.7659 428.894 Q30.9696 423.29 34.8064 420.205 Q38.6056 417.083 44.3231 417.083 Q51.8463 417.083 55.9463 422.199 Q60.0464 427.315 60.0464 436.756 L60.0464 456.918 L3.88644 456.918 Z" fill="#000000" fill-rule="nonzero" fill-opacity="1" /><path clip-path="url(#clip800)" d="M3.88644 392.069 L3.88644 385.674 L67.1934 405.234 L67.1934 411.629 L3.88644 392.069 Z" fill="#000000" fill-rule="nonzero" fill-opacity="1" /><path clip-path="url(#clip800)" d="M19.1584 351.557 L25.7035 351.557 Q24.1988 354.491 23.4465 357.651 Q22.6942 360.81 22.6942 364.196 Q22.6942 369.349 24.2741 371.945 Q25.8539 374.502 29.0136 374.502 Q31.421 374.502 32.8128 372.659 Q34.167 370.816 35.4083 365.249 L35.9349 362.879 Q37.5147 355.507 40.4111 352.422 Q43.2699 349.3 48.4232 349.3 Q54.2913 349.3 57.7143 353.964 Q61.1373 358.591 61.1373 366.716 Q61.1373 370.101 60.4602 373.788 Q59.8207 377.436 58.5042 381.499 L51.3573 381.499 Q53.3509 377.662 54.3665 373.938 Q55.3445 370.214 55.3445 366.566 Q55.3445 361.675 53.6894 359.042 Q51.9967 356.409 48.9499 356.409 Q46.1287 356.409 44.6241 358.328 Q43.1195 360.208 41.7277 366.641 L41.1634 369.048 Q39.8093 375.48 37.0257 378.339 Q34.2046 381.198 29.3145 381.198 Q23.3713 381.198 20.1364 376.985 Q16.9014 372.772 16.9014 365.023 Q16.9014 361.186 17.4657 357.801 Q18.0299 354.416 19.1584 351.557 Z" fill="#000000" fill-rule="nonzero" fill-opacity="1" /><path clip-path="url(#clip800)" d="M1.51666 322.104 L70.2026 322.104 L70.2026 338.053 L64.8236 338.053 L64.8236 329.063 L6.89569 329.063 L6.89569 338.053 L1.51666 338.053 L1.51666 322.104 Z" fill="#000000" fill-rule="nonzero" fill-opacity="1" /><polyline clip-path="url(#clip802)" style="stroke:#009af9; stroke-linecap:round; stroke-linejoin:round; stroke-width:6; stroke-opacity:1; fill:none" points="324.632,1530.06 590.208,846.114 893.723,448.09 1197.24,283.854 1500.75,188.442 1804.27,125.422 2107.79,92.6162 2411.3,102.981 2714.82,104.432 "/>
<circle clip-path="url(#clip802)" cx="324.632" cy="1530.06" r="18" fill="#009af9" fill-rule="evenodd" fill-opacity="1" stroke="#000000" stroke-opacity="1" stroke-width="3.6"/>
<circle clip-path="url(#clip802)" cx="590.208" cy="846.114" r="18" fill="#009af9" fill-rule="evenodd" fill-opacity="1" stroke="#000000" stroke-opacity="1" stroke-width="3.6"/>
<circle clip-path="url(#clip802)" cx="893.723" cy="448.09" r="18" fill="#009af9" fill-rule="evenodd" fill-opacity="1" stroke="#000000" stroke-opacity="1" stroke-width="3.6"/>
<circle clip-path="url(#clip802)" cx="1197.24" cy="283.854" r="18" fill="#009af9" fill-rule="evenodd" fill-opacity="1" stroke="#000000" stroke-opacity="1" stroke-width="3.6"/>
<circle clip-path="url(#clip802)" cx="1500.75" cy="188.442" r="18" fill="#009af9" fill-rule="evenodd" fill-opacity="1" stroke="#000000" stroke-opacity="1" stroke-width="3.6"/>
<circle clip-path="url(#clip802)" cx="1804.27" cy="125.422" r="18" fill="#009af9" fill-rule="evenodd" fill-opacity="1" stroke="#000000" stroke-opacity="1" stroke-width="3.6"/>
<circle clip-path="url(#clip802)" cx="2107.79" cy="92.6162" r="18" fill="#009af9" fill-rule="evenodd" fill-opacity="1" stroke="#000000" stroke-opacity="1" stroke-width="3.6"/>
<circle clip-path="url(#clip802)" cx="2411.3" cy="102.981" r="18" fill="#009af9" fill-rule="evenodd" fill-opacity="1" stroke="#000000" stroke-opacity="1" stroke-width="3.6"/>
<circle clip-path="url(#clip802)" cx="2714.82" cy="104.432" r="18" fill="#009af9" fill-rule="evenodd" fill-opacity="1" stroke="#000000" stroke-opacity="1" stroke-width="3.6"/>
<polyline clip-path="url(#clip802)" style="stroke:#e26f46; stroke-linecap:round; stroke-linejoin:round; stroke-width:6; stroke-opacity:1; fill:none" points="324.632,1555.2 590.208,1035.64 893.723,905.04 1197.24,856.738 1500.75,854.302 1804.27,661.095 2107.79,487.633 2411.3,282.921 2714.82,91.165 "/>
<circle clip-path="url(#clip802)" cx="324.632" cy="1555.2" r="18" fill="#e26f46" fill-rule="evenodd" fill-opacity="1" stroke="#000000" stroke-opacity="1" stroke-width="3.6"/>
<circle clip-path="url(#clip802)" cx="590.208" cy="1035.64" r="18" fill="#e26f46" fill-rule="evenodd" fill-opacity="1" stroke="#000000" stroke-opacity="1" stroke-width="3.6"/>
<circle clip-path="url(#clip802)" cx="893.723" cy="905.04" r="18" fill="#e26f46" fill-rule="evenodd" fill-opacity="1" stroke="#000000" stroke-opacity="1" stroke-width="3.6"/>
<circle clip-path="url(#clip802)" cx="1197.24" cy="856.738" r="18" fill="#e26f46" fill-rule="evenodd" fill-opacity="1" stroke="#000000" stroke-opacity="1" stroke-width="3.6"/>
<circle clip-path="url(#clip802)" cx="1500.75" cy="854.302" r="18" fill="#e26f46" fill-rule="evenodd" fill-opacity="1" stroke="#000000" stroke-opacity="1" stroke-width="3.6"/>
<circle clip-path="url(#clip802)" cx="1804.27" cy="661.095" r="18" fill="#e26f46" fill-rule="evenodd" fill-opacity="1" stroke="#000000" stroke-opacity="1" stroke-width="3.6"/>
<circle clip-path="url(#clip802)" cx="2107.79" cy="487.633" r="18" fill="#e26f46" fill-rule="evenodd" fill-opacity="1" stroke="#000000" stroke-opacity="1" stroke-width="3.6"/>
<circle clip-path="url(#clip802)" cx="2411.3" cy="282.921" r="18" fill="#e26f46" fill-rule="evenodd" fill-opacity="1" stroke="#000000" stroke-opacity="1" stroke-width="3.6"/>
<circle clip-path="url(#clip802)" cx="2714.82" cy="91.165" r="18" fill="#e26f46" fill-rule="evenodd" fill-opacity="1" stroke="#000000" stroke-opacity="1" stroke-width="3.6"/>
<polyline clip-path="url(#clip802)" style="stroke:#3da44d; stroke-linecap:round; stroke-linejoin:round; stroke-width:6; stroke-opacity:1; fill:none" points="324.632,1531.05 590.208,1265.44 893.723,1249.42 1197.24,1058.96 1500.75,868.917 1804.27,675.192 2107.79,474.159 2411.3,298.469 2714.82,107.542 "/>
<circle clip-path="url(#clip802)" cx="324.632" cy="1531.05" r="18" fill="#3da44d" fill-rule="evenodd" fill-opacity="1" stroke="#000000" stroke-opacity="1" stroke-width="3.6"/>
<circle clip-path="url(#clip802)" cx="590.208" cy="1265.44" r="18" fill="#3da44d" fill-rule="evenodd" fill-opacity="1" stroke="#000000" stroke-opacity="1" stroke-width="3.6"/>
<circle clip-path="url(#clip802)" cx="893.723" cy="1249.42" r="18" fill="#3da44d" fill-rule="evenodd" fill-opacity="1" stroke="#000000" stroke-opacity="1" stroke-width="3.6"/>
<circle clip-path="url(#clip802)" cx="1197.24" cy="1058.96" r="18" fill="#3da44d" fill-rule="evenodd" fill-opacity="1" stroke="#000000" stroke-opacity="1" stroke-width="3.6"/>
<circle clip-path="url(#clip802)" cx="1500.75" cy="868.917" r="18" fill="#3da44d" fill-rule="evenodd" fill-opacity="1" stroke="#000000" stroke-opacity="1" stroke-width="3.6"/>
<circle clip-path="url(#clip802)" cx="1804.27" cy="675.192" r="18" fill="#3da44d" fill-rule="evenodd" fill-opacity="1" stroke="#000000" stroke-opacity="1" stroke-width="3.6"/>
<circle clip-path="url(#clip802)" cx="2107.79" cy="474.159" r="18" fill="#3da44d" fill-rule="evenodd" fill-opacity="1" stroke="#000000" stroke-opacity="1" stroke-width="3.6"/>
<circle clip-path="url(#clip802)" cx="2411.3" cy="298.469" r="18" fill="#3da44d" fill-rule="evenodd" fill-opacity="1" stroke="#000000" stroke-opacity="1" stroke-width="3.6"/>
<circle clip-path="url(#clip802)" cx="2714.82" cy="107.542" r="18" fill="#3da44d" fill-rule="evenodd" fill-opacity="1" stroke="#000000" stroke-opacity="1" stroke-width="3.6"/>
<polyline clip-path="url(#clip802)" style="stroke:#808080; stroke-linecap:round; stroke-linejoin:round; stroke-width:6; stroke-opacity:1; fill:none" stroke-dasharray="24, 15" points="1500.75,3150.99 1500.75,-1504.63 "/>
<path clip-path="url(#clip800)" d="M368.894 410.013 L894.631 410.013 L894.631 98.9732 L368.894 98.9732  Z" fill="#ffffff" fill-rule="evenodd" fill-opacity="1"/>
<polyline clip-path="url(#clip800)" style="stroke:#000000; stroke-linecap:round; stroke-linejoin:round; stroke-width:4; stroke-opacity:1; fill:none" points="368.894,410.013 894.631,410.013 894.631,98.9732 368.894,98.9732 368.894,410.013 "/>
<polyline clip-path="url(#clip800)" style="stroke:#009af9; stroke-linecap:round; stroke-linejoin:round; stroke-width:9; stroke-opacity:1; fill:none" points="396.295,176.733 560.699,176.733 "/>
<circle clip-path="url(#clip800)" cx="478.497" cy="176.733" r="15.2226" fill="#009af9" fill-rule="evenodd" fill-opacity="1" stroke="#000000" stroke-opacity="1" stroke-width="6.28364"/>
<path clip-path="url(#clip800)" d="M588.1 193.834 L595.426 193.834 L595.426 202.653 L588.1 202.653 L588.1 193.834 M588.1 165.883 L595.426 165.883 L595.426 174.702 L588.1 174.702 L588.1 165.883 Z" fill="#000000" fill-rule="nonzero" fill-opacity="1" /><path clip-path="url(#clip800)" d="M642.753 179.181 L642.753 202.653 L636.364 202.653 L636.364 179.389 Q636.364 173.869 634.211 171.126 Q632.058 168.383 627.753 168.383 Q622.579 168.383 619.593 171.681 Q616.607 174.98 616.607 180.674 L616.607 202.653 L610.183 202.653 L610.183 163.765 L616.607 163.765 L616.607 169.806 Q618.899 166.299 621.989 164.563 Q625.114 162.827 629.176 162.827 Q635.878 162.827 639.315 166.994 Q642.753 171.126 642.753 179.181 Z" fill="#000000" fill-rule="nonzero" fill-opacity="1" /><path clip-path="url(#clip800)" d="M654.836 187.306 L654.836 163.765 L661.225 163.765 L661.225 187.063 Q661.225 192.584 663.378 195.362 Q665.53 198.105 669.836 198.105 Q675.009 198.105 677.995 194.806 Q681.016 191.507 681.016 185.813 L681.016 163.765 L687.405 163.765 L687.405 202.653 L681.016 202.653 L681.016 196.681 Q678.69 200.223 675.6 201.959 Q672.544 203.66 668.482 203.66 Q661.78 203.66 658.308 199.493 Q654.836 195.327 654.836 187.306 M670.912 162.827 L670.912 162.827 Z" fill="#000000" fill-rule="nonzero" fill-opacity="1" /><path clip-path="url(#clip800)" d="M730.842 171.23 Q733.238 166.924 736.572 164.876 Q739.905 162.827 744.419 162.827 Q750.495 162.827 753.794 167.098 Q757.092 171.334 757.092 179.181 L757.092 202.653 L750.669 202.653 L750.669 179.389 Q750.669 173.799 748.69 171.091 Q746.71 168.383 742.648 168.383 Q737.683 168.383 734.801 171.681 Q731.919 174.98 731.919 180.674 L731.919 202.653 L725.495 202.653 L725.495 179.389 Q725.495 173.764 723.516 171.091 Q721.537 168.383 717.405 168.383 Q712.509 168.383 709.627 171.716 Q706.745 175.014 706.745 180.674 L706.745 202.653 L700.322 202.653 L700.322 163.765 L706.745 163.765 L706.745 169.806 Q708.933 166.23 711.988 164.528 Q715.044 162.827 719.245 162.827 Q723.481 162.827 726.433 164.98 Q729.419 167.133 730.842 171.23 Z" fill="#000000" fill-rule="nonzero" fill-opacity="1" /><path clip-path="url(#clip800)" d="M787.509 183.105 Q779.766 183.105 776.78 184.876 Q773.794 186.646 773.794 190.917 Q773.794 194.32 776.016 196.334 Q778.273 198.313 782.127 198.313 Q787.439 198.313 790.634 194.563 Q793.863 190.778 793.863 184.528 L793.863 183.105 L787.509 183.105 M800.252 180.466 L800.252 202.653 L793.863 202.653 L793.863 196.75 Q791.675 200.292 788.412 201.993 Q785.148 203.66 780.426 203.66 Q774.453 203.66 770.912 200.327 Q767.405 196.959 767.405 191.334 Q767.405 184.771 771.78 181.438 Q776.189 178.105 784.905 178.105 L793.863 178.105 L793.863 177.48 Q793.863 173.07 790.946 170.674 Q788.064 168.244 782.821 168.244 Q779.488 168.244 776.328 169.042 Q773.169 169.841 770.252 171.438 L770.252 165.535 Q773.759 164.181 777.057 163.521 Q780.356 162.827 783.481 162.827 Q791.918 162.827 796.085 167.202 Q800.252 171.577 800.252 180.466 Z" fill="#000000" fill-rule="nonzero" fill-opacity="1" /><polyline clip-path="url(#clip800)" style="stroke:#e26f46; stroke-linecap:round; stroke-linejoin:round; stroke-width:9; stroke-opacity:1; fill:none" points="396.295,254.493 560.699,254.493 "/>
<circle clip-path="url(#clip800)" cx="478.497" cy="254.493" r="15.2226" fill="#e26f46" fill-rule="evenodd" fill-opacity="1" stroke="#000000" stroke-opacity="1" stroke-width="6.28364"/>
<path clip-path="url(#clip800)" d="M588.1 271.594 L595.426 271.594 L595.426 280.413 L588.1 280.413 L588.1 271.594 M588.1 243.643 L595.426 243.643 L595.426 252.462 L588.1 252.462 L588.1 243.643 Z" fill="#000000" fill-rule="nonzero" fill-opacity="1" /><path clip-path="url(#clip800)" d="M635.218 242.67 L635.218 248.712 Q632.51 247.323 629.593 246.629 Q626.676 245.934 623.551 245.934 Q618.794 245.934 616.399 247.393 Q614.038 248.851 614.038 251.768 Q614.038 253.99 615.739 255.274 Q617.44 256.524 622.579 257.67 L624.767 258.156 Q631.572 259.615 634.419 262.288 Q637.301 264.927 637.301 269.684 Q637.301 275.101 632.996 278.26 Q628.725 281.42 621.225 281.42 Q618.1 281.42 614.697 280.795 Q611.329 280.205 607.579 278.99 L607.579 272.392 Q611.121 274.233 614.558 275.17 Q617.996 276.073 621.364 276.073 Q625.878 276.073 628.308 274.545 Q630.739 272.983 630.739 270.17 Q630.739 267.566 628.968 266.177 Q627.232 264.788 621.294 263.504 L619.072 262.983 Q613.135 261.733 610.496 259.163 Q607.857 256.559 607.857 252.045 Q607.857 246.559 611.746 243.573 Q615.635 240.587 622.787 240.587 Q626.329 240.587 629.454 241.108 Q632.579 241.629 635.218 242.67 Z" fill="#000000" fill-rule="nonzero" fill-opacity="1" /><path clip-path="url(#clip800)" d="M662.544 246.004 Q657.405 246.004 654.419 250.031 Q651.433 254.024 651.433 261.004 Q651.433 267.983 654.385 272.01 Q657.371 276.003 662.544 276.003 Q667.648 276.003 670.634 271.976 Q673.621 267.948 673.621 261.004 Q673.621 254.094 670.634 250.066 Q667.648 246.004 662.544 246.004 M662.544 240.587 Q670.877 240.587 675.634 246.004 Q680.391 251.42 680.391 261.004 Q680.391 270.552 675.634 276.003 Q670.877 281.42 662.544 281.42 Q654.176 281.42 649.419 276.003 Q644.697 270.552 644.697 261.004 Q644.697 251.42 649.419 246.004 Q654.176 240.587 662.544 240.587 Z" fill="#000000" fill-rule="nonzero" fill-opacity="1" /><path clip-path="url(#clip800)" d="M718.967 243.018 L718.967 248.99 Q716.259 247.497 713.516 246.768 Q710.808 246.004 708.03 246.004 Q701.815 246.004 698.377 249.962 Q694.94 253.886 694.94 261.004 Q694.94 268.122 698.377 272.08 Q701.815 276.003 708.03 276.003 Q710.808 276.003 713.516 275.274 Q716.259 274.51 718.967 273.017 L718.967 278.92 Q716.294 280.17 713.412 280.795 Q710.565 281.42 707.336 281.42 Q698.551 281.42 693.377 275.899 Q688.204 270.379 688.204 261.004 Q688.204 251.49 693.412 246.038 Q698.655 240.587 707.752 240.587 Q710.704 240.587 713.516 241.212 Q716.329 241.802 718.967 243.018 Z" fill="#000000" fill-rule="nonzero" fill-opacity="1" /><path clip-path="url(#clip800)" d="M729.835 226.386 L736.259 226.386 L736.259 258.295 L755.321 241.525 L763.481 241.525 L742.856 259.719 L764.349 280.413 L756.016 280.413 L736.259 261.42 L736.259 280.413 L729.835 280.413 L729.835 226.386 Z" fill="#000000" fill-rule="nonzero" fill-opacity="1" /><path clip-path="url(#clip800)" d="M801.988 259.372 L801.988 262.497 L772.613 262.497 Q773.03 269.094 776.571 272.566 Q780.148 276.003 786.502 276.003 Q790.182 276.003 793.62 275.101 Q797.092 274.198 800.495 272.392 L800.495 278.434 Q797.057 279.892 793.446 280.656 Q789.835 281.42 786.12 281.42 Q776.814 281.42 771.363 276.003 Q765.946 270.587 765.946 261.351 Q765.946 251.802 771.085 246.212 Q776.259 240.587 785.009 240.587 Q792.856 240.587 797.405 245.656 Q801.988 250.691 801.988 259.372 M795.599 257.497 Q795.53 252.254 792.648 249.129 Q789.8 246.004 785.078 246.004 Q779.731 246.004 776.502 249.024 Q773.307 252.045 772.821 257.531 L795.599 257.497 Z" fill="#000000" fill-rule="nonzero" fill-opacity="1" /><path clip-path="url(#clip800)" d="M818.793 230.483 L818.793 241.525 L831.953 241.525 L831.953 246.49 L818.793 246.49 L818.793 267.601 Q818.793 272.358 820.078 273.712 Q821.398 275.066 825.391 275.066 L831.953 275.066 L831.953 280.413 L825.391 280.413 Q817.995 280.413 815.182 277.67 Q812.37 274.892 812.37 267.601 L812.37 246.49 L807.682 246.49 L807.682 241.525 L812.37 241.525 L812.37 230.483 L818.793 230.483 Z" fill="#000000" fill-rule="nonzero" fill-opacity="1" /><path clip-path="url(#clip800)" d="M865.147 242.67 L865.147 248.712 Q862.439 247.323 859.522 246.629 Q856.606 245.934 853.481 245.934 Q848.724 245.934 846.328 247.393 Q843.967 248.851 843.967 251.768 Q843.967 253.99 845.668 255.274 Q847.37 256.524 852.508 257.67 L854.696 258.156 Q861.501 259.615 864.349 262.288 Q867.231 264.927 867.231 269.684 Q867.231 275.101 862.925 278.26 Q858.654 281.42 851.154 281.42 Q848.029 281.42 844.627 280.795 Q841.259 280.205 837.509 278.99 L837.509 272.392 Q841.05 274.233 844.488 275.17 Q847.925 276.073 851.293 276.073 Q855.807 276.073 858.238 274.545 Q860.668 272.983 860.668 270.17 Q860.668 267.566 858.897 266.177 Q857.161 264.788 851.224 263.504 L849.002 262.983 Q843.064 261.733 840.425 259.163 Q837.786 256.559 837.786 252.045 Q837.786 246.559 841.675 243.573 Q845.564 240.587 852.717 240.587 Q856.258 240.587 859.383 241.108 Q862.508 241.629 865.147 242.67 Z" fill="#000000" fill-rule="nonzero" fill-opacity="1" /><polyline clip-path="url(#clip800)" style="stroke:#3da44d; stroke-linecap:round; stroke-linejoin:round; stroke-width:9; stroke-opacity:1; fill:none" points="396.295,332.253 560.699,332.253 "/>
<circle clip-path="url(#clip800)" cx="478.497" cy="332.253" r="15.2226" fill="#3da44d" fill-rule="evenodd" fill-opacity="1" stroke="#000000" stroke-opacity="1" stroke-width="6.28364"/>
<path clip-path="url(#clip800)" d="M588.1 349.354 L595.426 349.354 L595.426 358.173 L588.1 358.173 L588.1 349.354 M588.1 321.403 L595.426 321.403 L595.426 330.222 L588.1 330.222 L588.1 321.403 Z" fill="#000000" fill-rule="nonzero" fill-opacity="1" /><path clip-path="url(#clip800)" d="M638.412 320.778 L638.412 326.75 Q635.704 325.257 632.961 324.528 Q630.253 323.764 627.475 323.764 Q621.26 323.764 617.822 327.722 Q614.385 331.646 614.385 338.764 Q614.385 345.882 617.822 349.84 Q621.26 353.763 627.475 353.763 Q630.253 353.763 632.961 353.034 Q635.704 352.27 638.412 350.777 L638.412 356.68 Q635.739 357.93 632.857 358.555 Q630.01 359.18 626.78 359.18 Q617.996 359.18 612.822 353.659 Q607.649 348.139 607.649 338.764 Q607.649 329.25 612.857 323.798 Q618.1 318.347 627.197 318.347 Q630.149 318.347 632.961 318.972 Q635.774 319.562 638.412 320.778 Z" fill="#000000" fill-rule="nonzero" fill-opacity="1" /><path clip-path="url(#clip800)" d="M664.593 323.764 Q659.454 323.764 656.468 327.791 Q653.482 331.784 653.482 338.764 Q653.482 345.743 656.433 349.77 Q659.419 353.763 664.593 353.763 Q669.697 353.763 672.683 349.736 Q675.669 345.708 675.669 338.764 Q675.669 331.854 672.683 327.826 Q669.697 323.764 664.593 323.764 M664.593 318.347 Q672.926 318.347 677.683 323.764 Q682.44 329.18 682.44 338.764 Q682.44 348.312 677.683 353.763 Q672.926 359.18 664.593 359.18 Q656.225 359.18 651.468 353.763 Q646.746 348.312 646.746 338.764 Q646.746 329.18 651.468 323.764 Q656.225 318.347 664.593 318.347 Z" fill="#000000" fill-rule="nonzero" fill-opacity="1" /><path clip-path="url(#clip800)" d="M715.565 325.257 Q714.488 324.632 713.204 324.354 Q711.954 324.041 710.426 324.041 Q705.009 324.041 702.093 327.583 Q699.211 331.09 699.211 337.687 L699.211 358.173 L692.787 358.173 L692.787 319.285 L699.211 319.285 L699.211 325.326 Q701.225 321.784 704.454 320.083 Q707.683 318.347 712.301 318.347 Q712.961 318.347 713.759 318.451 Q714.558 318.521 715.53 318.694 L715.565 325.257 Z" fill="#000000" fill-rule="nonzero" fill-opacity="1" /><path clip-path="url(#clip800)" d="M753.967 337.132 L753.967 340.257 L724.592 340.257 Q725.009 346.854 728.551 350.326 Q732.127 353.763 738.481 353.763 Q742.162 353.763 745.599 352.861 Q749.072 351.958 752.474 350.152 L752.474 356.194 Q749.037 357.652 745.426 358.416 Q741.815 359.18 738.099 359.18 Q728.794 359.18 723.342 353.763 Q717.926 348.347 717.926 339.111 Q717.926 329.562 723.065 323.972 Q728.238 318.347 736.988 318.347 Q744.835 318.347 749.384 323.416 Q753.967 328.451 753.967 337.132 M747.578 335.257 Q747.509 330.014 744.627 326.889 Q741.78 323.764 737.058 323.764 Q731.71 323.764 728.481 326.784 Q725.287 329.805 724.801 335.291 L747.578 335.257 Z" fill="#000000" fill-rule="nonzero" fill-opacity="1" /><path clip-path="url(#clip800)" d="M789.245 320.43 L789.245 326.472 Q786.537 325.083 783.62 324.389 Q780.703 323.694 777.578 323.694 Q772.821 323.694 770.426 325.153 Q768.064 326.611 768.064 329.528 Q768.064 331.75 769.766 333.034 Q771.467 334.284 776.606 335.43 L778.794 335.916 Q785.599 337.375 788.446 340.048 Q791.328 342.687 791.328 347.444 Q791.328 352.861 787.023 356.02 Q782.752 359.18 775.252 359.18 Q772.127 359.18 768.724 358.555 Q765.356 357.965 761.606 356.75 L761.606 350.152 Q765.148 351.993 768.585 352.93 Q772.023 353.833 775.391 353.833 Q779.905 353.833 782.335 352.305 Q784.766 350.743 784.766 347.93 Q784.766 345.326 782.995 343.937 Q781.259 342.548 775.321 341.264 L773.099 340.743 Q767.162 339.493 764.523 336.923 Q761.884 334.319 761.884 329.805 Q761.884 324.319 765.773 321.333 Q769.662 318.347 776.814 318.347 Q780.356 318.347 783.481 318.868 Q786.606 319.389 789.245 320.43 Z" fill="#000000" fill-rule="nonzero" fill-opacity="1" /></svg>
